<svg xmlns="http://www.w3.org/2000/svg" viewBox="0 0 928.937 500.955"><path d="M956.925,512.3a146.16,146.16,0,0,0-61.712-119.7,149.947,149.947,0,0,0,.812-15.241c0-80.5-64.343-145.762-143.724-145.762a141.514,141.514,0,0,0-69.759,18.3c-56.182-36.962-129.53-59.333-209.772-59.333-130.561,0-242.869,59.235-292.693,144.17-2.769-.162-5.554-.252-8.364-.252-79.365,0-143.724,65.26-143.724,145.762a146.591,146.591,0,0,0,23.654,80.136h0c0,72.43,68.362,131.138,152.656,131.138H815.832c66.211,0,119.884-46.1,119.884-102.97h0A146.583,146.583,0,0,0,956.925,512.3Z" transform="translate(-27.99 -190.56)" fill="#2cccf3" opacity="0.1"/></svg>