<svg xmlns="http://www.w3.org/2000/svg" viewBox="0 0 806.387 513.523"><path d="M450.9,113.18c-50.7,8.2-101.471,3.788-150.35-2.328s-97.644-13.925-148.447-12.4c-32.662.992-68.994,7.217-91.594,26.321-21.741,18.381-24.851,43.51-24.645,66.236.156,17.093,1.811,34.8,13.746,48.544,8.286,9.538,20.953,16.466,30.531,25.288,33.372,30.7,23.907,78.26,2.776,118.533-9.94,18.9-22.089,37.443-28.756,56.815s-7.328,40.239,5.226,56.278c12.454,15.9,36.276,25.061,61.063,29.971,50.334,9.965,106.2,4.821,160.233-2.335,119.6-15.915,237.861-41.657,355.784-67.352,43.646-9.5,87.483-19.062,129.475-33.056,23.318-7.754,47.04-17.513,61.972-32.946,18.951-19.593,19.121-46.637.4-63.041C796.9,300.167,726.63,305.346,702.212,274c-13.448-17.217-7.974-40.37,2.3-60.72,22.011-43.661,65.146-86.531,58.933-130.406-4.26-30.136-34.352-55.369-74.326-62.345-41.892-7.307-95.436,4.9-119.13,34.86C545.593,86.322,495.663,105.949,450.9,113.18Z" transform="translate(-35.857 -18.463)" fill="#2cccf3" opacity="0.1"/></svg>