<svg xmlns="http://www.w3.org/2000/svg" viewBox="0 0 844.865 504.039"><g transform="translate(140.711 -127)"><rect width="49.924" height="25.922" transform="translate(591.825 398.701)" fill="#2cccf3" opacity="0.2"/><rect width="49.924" height="25.922" transform="translate(595.666 430.383)" fill="#2cccf3" opacity="0.2"/><rect width="49.924" height="25.922" transform="translate(554.383 210.526)" fill="#2cccf3" opacity="0.2"/><rect width="49.924" height="25.922" transform="translate(589.905 240.289)" fill="#2cccf3" opacity="0.2"/><rect width="49.924" height="25.922" transform="translate(493.898 212.447)" fill="#2cccf3" opacity="0.2"/><rect width="49.924" height="25.922" transform="translate(654.231 270.051)" fill="#2cccf3" opacity="0.2"/><rect width="49.924" height="25.922" transform="translate(593.746 271.971)" fill="#2cccf3" opacity="0.2"/><rect width="49.924" height="25.922" transform="translate(529.421 242.209)" fill="#2cccf3" opacity="0.2"/><rect width="49.924" height="25.922" transform="translate(651.35 469.747)" fill="#2cccf3" opacity="0.2"/><rect width="49.924" height="25.922" transform="translate(590.866 471.667)" fill="#2cccf3" opacity="0.2"/><rect width="49.924" height="25.922" transform="translate(-140.711 399.661)" fill="#2cccf3" opacity="0.2"/><rect width="49.924" height="25.922" transform="translate(-105.188 429.423)" fill="#2cccf3" opacity="0.2"/><rect width="49.924" height="25.922" transform="translate(164.592 127)" fill="#2cccf3" opacity="0.2"/><rect width="49.924" height="25.922" transform="translate(558.223 605.117)" fill="#2cccf3" opacity="0.2"/><rect width="49.924" height="25.922" transform="translate(-101.348 461.106)" fill="#2cccf3" opacity="0.2"/><rect width="49.924" height="25.922" transform="translate(200.115 156.762)" fill="#2cccf3" opacity="0.2"/><rect width="49.924" height="25.922" transform="translate(17.701 332.456)" fill="#2cccf3" opacity="0.2"/><rect width="49.924" height="25.922" transform="translate(53.224 362.218)" fill="#2cccf3" opacity="0.2"/><rect width="49.924" height="25.922" transform="translate(148.271 345.897)" fill="#2cccf3" opacity="0.2"/><rect width="49.924" height="25.922" transform="translate(57.064 393.901)" fill="#2cccf3" opacity="0.2"/><rect width="49.924" height="25.922" transform="translate(625.428 605.117)" fill="#2cccf3" opacity="0.2"/></g></svg>