<svg xmlns="http://www.w3.org/2000/svg" xmlns:xlink="http://www.w3.org/1999/xlink" width="533.055" height="301.453" viewBox="0 0 533.055 301.453"><defs><linearGradient id="a" x1="0.5" y1="1" x2="0.5" gradientUnits="objectBoundingBox"><stop offset="0" stop-color="gray" stop-opacity="0.251"/><stop offset="0.54" stop-color="gray" stop-opacity="0.122"/><stop offset="1" stop-color="gray" stop-opacity="0.102"/></linearGradient></defs><g transform="translate(-47.589 -93.608)"><rect width="533.055" height="301.453" rx="12.49" transform="translate(47.589 93.608)" fill="url(#a)"/><rect width="531.423" height="296.211" rx="12.49" transform="translate(48.436 97.847)" fill="#fff"/><rect width="531.423" height="296.211" rx="12.49" transform="translate(48.436 97.847)" fill="#fff"/><rect width="531.423" height="296.211" rx="12.49" transform="translate(48.436 97.847)" fill="#5a5773" opacity="0.04"/><path d="M634.937,170.15H108.888a2.7,2.7,0,0,0-2.7,2.693v11.39H637.613V172.866A2.7,2.7,0,0,0,634.937,170.15Z" transform="translate(-57.777 -75.702)" fill="#5a5773"/><g transform="translate(55.402 97.847)"><ellipse cx="3.646" cy="3.64" rx="3.646" ry="3.64" fill="#fff"/><ellipse cx="3.646" cy="3.64" rx="3.646" ry="3.64" transform="translate(9.816)" fill="#fff"/><ellipse cx="3.646" cy="3.64" rx="3.646" ry="3.64" transform="translate(19.632)" fill="#fff"/></g><rect width="443.124" height="219.948" rx="10.19" transform="translate(84.009 174.104)" fill="#fff"/><rect width="127.463" height="13.355" rx="3.86" transform="translate(65.218 123.477)" fill="#5a5773" opacity="0.2"/><rect width="127.463" height="13.355" rx="3.86" transform="translate(305.571 199.634)" fill="#2cccf3" opacity="0.2"/><rect width="199.03" height="13.355" rx="3.86" transform="translate(305.571 237.029)" fill="#2cccf3" opacity="0.2"/><rect width="199.03" height="13.355" rx="3.86" transform="translate(305.571 258.868)" fill="#2cccf3" opacity="0.2"/><rect width="199.03" height="13.355" rx="3.86" transform="translate(305.571 280.707)" fill="#2cccf3" opacity="0.2"/><rect width="199.03" height="13.355" rx="3.86" transform="translate(305.571 302.546)" fill="#2cccf3" opacity="0.2"/><rect width="396.568" height="13.355" rx="3.86" transform="translate(108.033 326.625)" fill="#2cccf3" opacity="0.2"/><rect width="396.568" height="13.355" rx="3.86" transform="translate(108.033 348.464)" fill="#2cccf3" opacity="0.2"/><rect width="396.568" height="13.355" rx="3.86" transform="translate(108.033 370.304)" fill="#2cccf3" opacity="0.2"/><rect width="169.397" height="124.057" rx="8.5" transform="translate(108.033 192.225)" fill="#2cccf3" opacity="0.2"/></g></svg>