<svg xmlns="http://www.w3.org/2000/svg" viewBox="0 0 603.988 505.35"><g transform="translate(-15.402 -35.65)"><path d="M480.088,57.57h0a51.948,51.948,0,0,1,51.948,51.948v22.162H428.14V109.518A51.948,51.948,0,0,1,480.088,57.57Z" transform="translate(-133.762 -17.995)" fill="#2700f4"/><ellipse cx="59.214" cy="40.688" rx="59.214" ry="40.688" transform="translate(287.476 80.263)" fill="#2700f4"/><path d="M597.548,284.007s12.374,64.666,0,82.106,37.808,24.342,37.808,24.342l51.942-18.89,7.266-46.5s-31.621-17.8-25.07-53.77Z" transform="translate(-288.816 -123.639)" fill="#f7c4a7"/><path d="M798.664,598.135s3.272,14.168-14.532,16.711a100.675,100.675,0,0,1-31.676-.378L748.53,578.88h41.417Z" transform="translate(-336.624 -219.785)" fill="#f7c4a7"/><path d="M363.333,571.245s-7.864,31.958,9.94,34.845S456.451,609,456.451,609V571.19l-29.6,6.324L399.065,550.87Z" transform="translate(-215.678 -211.03)" fill="#f7c4a7"/><path d="M527.924,318.75l-69.574,14.711s-26.521,1.093-43.6,36.33S360.62,505.666,360.62,505.666s31.621-31.972,68.666,2.179l24.706-44.682-5.451,70.846H639.974V500.579s39.96,21.434,37.059,33.422c0,0,34.2-88.114,26.809-128.156a272.34,272.34,0,0,1-4.083-37.464h0a50.182,50.182,0,0,0-35.32-45.83c-3.6-1.107-7.562-2.145-11.961-3.073-41.053-8.716-51.557,0-51.557,0s-7.953,25.875-7.809,37.6c.179,15.075-21.434,25.07-21.434,25.07s-31.972-7.63-33.422-13.8S525.367,326.016,527.924,318.75Z" transform="translate(-215.371 -137.491)" opacity="0.1"/><path d="M527.921,316.64l-69.574,14.711s-26.521,1.093-43.6,36.33S360.61,503.57,360.61,503.57s31.621-31.972,68.666,2.179l24.706-44.682-5.451,70.825h191.44V498.469s39.96,21.434,37.059,33.422c0,0,34.2-88.114,26.809-128.156a272.359,272.359,0,0,1-4.083-37.464h0a50.182,50.182,0,0,0-35.32-45.83c-3.6-1.107-7.562-2.145-11.961-3.073-41.053-8.716-51.557,0-51.557,0s-7.953,25.875-7.809,37.6c.179,15.075-21.434,25.07-21.434,25.07s-31.972-7.63-33.422-13.8S525.364,323.906,527.921,316.64Z" transform="translate(-215.368 -136.831)" fill="#ffd24c"/><path d="M673.843,301.852a49.172,49.172,0,0,1-1.9-25.792L600,288.77s1.038,5.438,2.214,13.583a49.4,49.4,0,0,0,71.615-.5Z" transform="translate(-290.196 -125.13)" opacity="0.1"/><path d="M680.34,237.2a49.408,49.408,0,1,1-98.81,1.2c.007-.4.007-.8.007-1.2a49.4,49.4,0,0,1,57.7-48.717h0a49.371,49.371,0,0,1,40.977,45.439Q680.34,235.553,680.34,237.2Z" transform="translate(-284.423 -97.54)" fill="#f7c4a7"/><path d="M573.33,226.44s50.869-63.243,109.719,0l-5.087-14.168s-27.614-40.324-47.226-31.621-38.874,14.9-38.874,14.9Z" transform="translate(-281.86 -94.922)" opacity="0.1"/><path d="M573.33,224.81s50.869-63.243,109.719,0l-5.087-14.168s-27.614-40.324-47.226-31.621-38.874,14.9-38.874,14.9Z" transform="translate(-281.86 -94.413)" fill="#2603e0"/><path d="M508.421,444.38s-10.9,29.064,4.358,55.221-13.439,37.059-13.439,37.059" transform="translate(-258.732 -177.743)" opacity="0.1"/><path d="M767.083,406.33s18.89,23.977,6.537,45.411S762,524.766,762,524.766" transform="translate(-340.831 -165.85)" opacity="0.1"/><path d="M330.893,553.3H540.879a17.44,17.44,0,0,1,17.44,17.44H313.46A17.44,17.44,0,0,1,330.893,553.3Z" transform="translate(-97.915 -172.95)" fill="#535461"/><path d="M357.709,378.89H524.973A26.809,26.809,0,0,1,551.782,405.7v97.078H330.9V405.7A26.809,26.809,0,0,1,357.709,378.89Z" transform="translate(-103.367 -118.433)" fill="#535461"/><circle cx="13.082" cy="13.082" r="13.082" transform="translate(324.707 314.77)" fill="#fff"/><path d="M577.56,194.479s49.989-49.962,103.9-.914" transform="translate(-283.182 -92.603)" fill="none" stroke="#000" stroke-miterlimit="10" stroke-width="1" opacity="0.1"/><rect width="5.018" height="28.452" transform="translate(405.891 98.693)" fill="#787c9c"/><path d="M580.62,170.35h0a17.3,17.3,0,0,1,17.3,17.3v1.114a17.3,17.3,0,0,1-17.3,17.3h0Z" transform="translate(-181.424 -53.248)" fill="#223646"/><path d="M4456.061,1005.328c2.146,42.115,4.379,54.965,10.137,69.49s14.689,29.281,24.363,33.666,17.581,5.072,27.731,2.25,21.1-13.279,29.686-35.916,8.583-76.334,8.583-76.334-15.028,48.054-23,48-5.729-8.437-15.269-11.25-13.77-2.125-22.89,0-8.465,9.07-13.592,8.5S4456.061,1005.328,4456.061,1005.328Z" transform="translate(-4159.601 -866.235)" fill="#575988"/><rect width="7.809" height="39.052" rx="3.905" transform="translate(395.848 115.432)" fill="#787c9c"/><rect width="5.018" height="28.452" transform="translate(286.253 127.702) rotate(180)" fill="#787c9c"/><path d="M0,0H0A17.3,17.3,0,0,1,17.3,17.3v1.114A17.3,17.3,0,0,1,0,35.7H0Z" transform="translate(292.948 153.364) rotate(180)" fill="#223646"/><rect width="7.809" height="39.052" rx="3.905" transform="translate(296.296 155.034) rotate(180)" fill="#787c9c"/><path d="M681.871,140.992c-6.8-14.133-21.606-31.223-53.523-32.591v-.041h-.385l-11.308.536v.055c-31.7,1.457-46.442,18.485-53.22,32.57a73.272,73.272,0,0,0-7.026,30.521l3.9-.1,3.9-.089a66.44,66.44,0,0,1,6.345-27.167c8.607-17.68,24.445-27.077,47.068-27.951h0l10-.557h0c22.637.866,38.482,10.277,47.081,27.951a66.44,66.44,0,0,1,6.359,27.181l3.9.089,3.9.1a73.273,73.273,0,0,0-7.012-30.508Z" transform="translate(-276.571 -72.71)" fill="#223646"/><rect width="532.552" height="142.983" transform="translate(51.127 398.017)" fill="#787c9c"/><rect width="532.552" height="18.56" transform="translate(51.127 407.64)" opacity="0.259"/><rect width="603.988" height="18.56" transform="translate(15.402 395.954)" fill="#787c9c"/></g></svg>