<?xml version="1.0" encoding="utf-8"?>
<svg version="1.1" id="f010fad9-d75e-40fc-a29f-2de004ea6566"
	 xmlns="http://www.w3.org/2000/svg" xmlns:xlink="http://www.w3.org/1999/xlink" x="0px" y="0px" viewBox="0 0 956.7 713.2"
	 enable-background="new 0 0 956.7 713.2" xml:space="preserve">
<title>creative thinking</title>
<ellipse fill="#FFD24C" opacity=".8" cx="471" cy="667.2" rx="471" ry="46"/>
<ellipse opacity="0.1" enable-background="new    " cx="331" cy="660.7" rx="222" ry="33.5"/>
<path fill="#1DE9B6" d="M220.4,260.7c-104.3,0-188.8,84.5-188.8,188.8s84.6,188.8,188.8,188.8c12.8,0,25.7-1.3,38.2-3.9
	c-18-29.5-27.4-63.4-27.4-98c0-91.1,64.6-167.2,150.5-184.9C347.5,295.1,286.3,260.7,220.4,260.7z"/>
<path opacity="0.1" enable-background="new    " d="M50.7,454.9c0-104.2,84.5-188.8,188.8-188.8c10.1,0,20.3,0.8,30.3,2.4
	c-16.1-4.3-32.7-6.5-49.3-6.5c-104.3,0-188.8,84.5-188.8,188.8c0,94,68.7,171.9,158.6,186.3C107.9,615,50.7,540.2,50.7,454.9z"/>
<path fill="#1DE9B6" d="M380.9,350.1c56.4-34.2,90.8-95.4,90.8-161.4C471.6,84.5,387.1,0,282.9,0S94.1,84.5,94.1,188.8
	c0,12.8,1.3,25.7,3.9,38.2c29.5-18,63.4-27.4,98-27.4C287.1,199.6,363.2,264.2,380.9,350.1z"/>
<path opacity="0.1" enable-background="new    " d="M455.4,188.8c0,60-28.4,116.4-76.7,151.9c0.8,3.1,1.6,6.3,2.2,9.5
	c56.4-34.2,90.8-95.4,90.8-161.4C471.7,84.5,387.2,0,282.9,0c-2.7,0-5.4,0.1-8.1,0.2C375.2,4.5,455.4,87.2,455.4,188.8z"/>
<path fill="#FFBFC5" d="M372.6,435c-3.1,1.6-6,3.4-8.8,5.6c-2.8,2.1-4.9,5-6.1,8.3c-1.7-3.5-2.6-7.4-3.8-11.2
	c-2.2-6.8-4.8-13.5-7.7-20.1c4.9-1.9,9.1-5.1,12.1-9.3c6,6,12.1,12.1,15.1,20c0.5,1.4,2,2.8,2.4,4C376.3,434,373.9,434.3,372.6,435z
	"/>
<path fill="#3F3D56" d="M207.4,627.7c0,44.6,32.2,49.3,71.9,49.3s71.9-4.7,71.9-49.3s-32.2-61.6-71.9-61.6S207.4,583.1,207.4,627.7z
	"/>
<path fill="#F1F1F1" opacity="1" d="M428.8,580c6.5,2.1,12.6,5.3,17.9,9.6c0.4,0.2,0.7,0.6,0.8,1.1c0.1,1-1.2,1.5-2.2,1.7c-3,0.8-4.8,3.6-7,5.8
	s-5.7,3.9-8.2,2.1c-0.7-0.5-1.2-1.1-1.7-1.8l-10.7-13.9c3.6-2,7.4-3.7,11.4-5"/>
<path fill="#575A89" d="M448,582.9c1.4,1.4,2,3.5,3.4,5c0.9,0.9,2,1.6,3.2,2.2l8.2,4.5c1.3,0.8,2.6,1.4,4,1.9c1.5,0.4,3.1,0.8,4.7,1
	c2.3,0.4,4.5,1.1,6.6,2c1.6,0.7,3.4,1.8,3.4,3.5c-0.1,0.9-0.4,1.7-1,2.3c-3.2,4.1-8.9,5-14.1,5.5c-11.2,1.2-22.6,2.1-33.5-0.6
	c-2.1-0.4-4.1-1.3-5.9-2.5c-3.3-2.7-4-7.7-2.7-11.8c0.3-1.6,1.3-3,2.6-3.9c1.7-1,3.9-0.5,5.9-0.7c2.1-0.3,4.1-0.9,6-1.9
	c1.2-0.6,2.7-1.3,3-2.8s-1.4-2.8-1-4C441.4,579.8,446.7,581.5,448,582.9z"/>
<path opacity="0.1" enable-background="new    " d="M448,582.9c1.4,1.4,2,3.5,3.4,5c0.9,0.9,2,1.6,3.2,2.2l8.2,4.5
	c1.3,0.8,2.6,1.4,4,1.9c1.5,0.4,3.1,0.8,4.7,1c2.3,0.4,4.5,1.1,6.6,2c1.6,0.7,3.4,1.8,3.4,3.5c-0.1,0.9-0.4,1.7-1,2.3
	c-3.2,4.1-8.9,5-14.1,5.5c-11.2,1.2-22.6,2.1-33.5-0.6c-2.1-0.4-4.1-1.3-5.9-2.5c-3.3-2.7-4-7.7-2.7-11.8c0.3-1.6,1.3-3,2.6-3.9
	c1.7-1,3.9-0.5,5.9-0.7c2.1-0.3,4.1-0.9,6-1.9c1.2-0.6,2.7-1.3,3-2.8s-1.4-2.8-1-4C441.4,579.8,446.7,581.5,448,582.9z"/>
<path fill="#F1F1F1" opacity="1" d="M467,627.5l3.4,2.3c1.1,0.6,1.9,1.4,2.5,2.5c0.8,1.8-0.3,3.7-1.4,5.3c-3.4,4.6-7.9,8.2-13.2,10.3
	c-1.8,0.8-3.8,1.2-5.8,1.4c-0.4,0.1-0.9,0-1.3-0.2c-1-0.6-0.9-2-0.9-3.2c0-3.4-2.6-6.2-5-8.8s-4.7-5.6-4.2-9c0.5-2,1.5-3.8,3-5.3
	c1.3-1.6,2.8-3.1,4.5-4.2c2.4-1.6,3.3-0.7,5.6,0.7C458.5,622,462.7,624.7,467,627.5z"/>
<path fill="#575A89" d="M455.8,644.3c1.9,0.5,3.9,0,5.4-1.2c1.5-1.2,2.7-2.8,3.5-4.5c0.8-1.5,1.6-3.1,2.2-4.8
	c0.7-1.9,1.4-4.1,3.1-5.2c2-1.4,4.9-0.9,7,0.5s3.6,3.4,5.4,5.2c4.2,4.2,9.7,6.8,15.3,8.5s11.5,2.6,17.3,3.7c1.2,0.2,2.3,0.5,3.3,1.1
	c2.3,1.4,3.1,4.6,2.5,7.3s-2.4,4.9-4.3,6.9c-1.6,1.9-3.5,3.4-5.7,4.4c-1.9,0.7-3.8,1-5.8,1.1c-9.6,0.6-19.2-0.1-28.6-2.2
	c-3.4-0.9-6.9-1.6-10.5-2.1c-2.2-0.2-4.3-0.1-6.5-0.3c-4.3-0.3-8.5-1.4-12.4-3.3c-0.9-0.3-1.7-1-2.2-1.9c-0.3-0.8-0.3-1.7-0.2-2.5
	l1.4-12.5c0.1-1.1,0.5-2.5,1.6-2.6s1.8,0.9,2.4,1.7c2.6,3.1,7,4.1,10.6,2.3"/>
<path fill="#575A89" d="M372.8,486.1c6.3-0.7,13.6-0.8,17.9,3.9c2.6,2.9,3.4,6.9,4.3,10.7c1.4,6.3,3.7,12.5,6.8,18.2
	c2,3.5,4.4,6.8,6,10.6s2.2,8,3.1,12.1c3.7,16,12.7,30.4,25.5,40.6c-2.3,6.2-8.8,9.7-15.2,11.3c-1.5,0.5-3.2,0.6-4.8,0.1
	c-1.2-0.5-2.2-1.3-3.1-2.3c-3-3.2-5.8-6.6-8.3-10.2c-9.2-12.3-18.5-24.8-23.6-39.4c-1.8-5.1-3.5-11-8.5-13.2c-2.8-1.2-6-0.8-9.1-0.3
	c-6.8,1.1-13.4,2.9-19.9,5.1c-6.9,2.4-14.8,5.4-21.2,1.7c-3.8-2.2-6-6.4-6.9-10.7s-0.4-8.7,0-13.1c0-2,0.5-3.9,1.4-5.7
	c0.9-1.3,2-2.5,3.3-3.3c5.7-4.3,11.9-7.7,18.6-10c6.4-2.3,13.3-3,19.9-4.1C363.7,487.3,368.2,486.6,372.8,486.1z"/>
<path opacity="0.1" enable-background="new    " d="M372.8,486.1c6.3-0.7,13.6-0.8,17.9,3.9c2.6,2.9,3.4,6.9,4.3,10.7
	c1.4,6.3,3.7,12.5,6.8,18.2c2,3.5,4.4,6.8,6,10.6s2.2,8,3.1,12.1c3.7,16,12.7,30.4,25.5,40.6c-2.3,6.2-8.8,9.7-15.2,11.3
	c-1.5,0.5-3.2,0.6-4.8,0.1c-1.2-0.5-2.2-1.3-3.1-2.3c-3-3.2-5.8-6.6-8.3-10.2c-9.2-12.3-18.5-24.8-23.6-39.4
	c-1.8-5.1-3.5-11-8.5-13.2c-2.8-1.2-6-0.8-9.1-0.3c-6.8,1.1-13.4,2.9-19.9,5.1c-6.9,2.4-14.8,5.4-21.2,1.7c-3.8-2.2-6-6.4-6.9-10.7
	s-0.4-8.7,0-13.1c0-2,0.5-3.9,1.4-5.7c0.9-1.3,2-2.5,3.3-3.3c5.7-4.3,11.9-7.7,18.6-10c6.4-2.3,13.3-3,19.9-4.1
	C363.7,487.3,368.2,486.6,372.8,486.1z"/>
<path fill="#FFBFC5" d="M408.8,531.5c2.9,1.5,5.6,3.4,8,5.7c2.5,2.7,4.1,6.2,5.4,9.7c0.5,1.2,0.8,2.5,0.9,3.8
	c0.1,1.3-0.4,2.6-1.4,3.5c-1.2,0.8-2.5,1.1-3.9,1c-1.8,0-3.7,0-5.5-0.1c-1.1,0-2.2-0.2-3.2-0.6c-0.9-0.5-1.8-1.1-2.5-1.9
	c-3.2-3-5.8-6.5-7.8-10.5c-1.3-2.9-3.5-9.6-1.4-12.7S406.5,530.2,408.8,531.5z"/>
<path fill="#575A89" d="M320.6,530.5c9.3,3,19.2,3.3,29,4.2c16.4,1.5,32.5,4.7,48.2,9.5c3.2,1,6.5,2.1,9.1,4.2
	c2.1,1.9,3.9,4.2,5.3,6.7c2.6,3.9,4.9,7.9,6.9,12.1c1.8,3.8,3.1,7.7,4.8,11.6c5.5,12.8,14.3,24,25.4,32.5c2,1.5,4.3,3.2,4.8,5.7
	c0.2,1.6,0,3.2-0.8,4.7c-2.4,5.6-7.4,9.7-12.6,12.8c-2.2,1.3-4.7,2.7-5.8,5.1c-7.9-3.3-13.8-10.3-18.8-17.3s-9.3-14.6-15.6-20.5
	c-2.8-2.6-5.9-4.8-8.1-7.9c-3.3-4.7-4.2-11.2-8.7-14.8s-11-3.2-16.8-2.6c-29.7,2.9-59.6,2.6-89.1-1c-6.1-0.7-12.5-1.7-17.8-4.8
	s-9.5-9.1-8.7-15.2c0.7-5.8,5.5-10.3,10.9-12.6s11.2-2.7,17-3.3C293.4,538,307,535.4,320.6,530.5z"/>
<path fill="#3F3D56" d="M235.5,542.4c0.7-4.9,2.6-9.5,3.8-14.3c0.6-3,1.3-6,2.3-8.9c0-0.1,0.1-0.2,0.1-0.2c0.6,0,1.2-0.4,1.5-0.9
	c0.2-0.4,0.2-0.9,0.1-1.3c0-0.5,0-1,0-1.4c1.9-3.3,4.1-6.4,6.4-9.4c4-5.7,7.5-11.8,11-17.8c2.9-5,5.7-9.9,8.1-15.2
	c1.8-3.9,3.3-8,5.2-11.8c7-13.6,19.5-23.6,33-30.8c12.9-6.9,26.9-11.6,40.5-17.1c0.3,0.3,0.7,0.7,1,1.1c7.4,10,8.1,23.2,11.2,35.3
	c1.2,4.9,2.9,9.7,2.9,14.8c0,7.4-3.5,14.3-7.1,20.8c-3.3,6.2-6.7,12.3-11.1,17.7c-2.1,2.6-4.4,5-6.5,7.5
	c-8.6,10.5-13.5,23.4-18.4,36.1c-2.8,7.3-7.3,13.9-10.4,21.1c-1.2,2.8-1.9,5.8-3.3,8.4s-4,4.9-7.1,5c-0.9,0-1.8-0.2-2.6-0.4
	c-10.9-2.8-20.1-10-29.2-16.7c-1.6-1.2-3.3-2.4-5-3.5s-3.5-2.1-5.3-3l-4.1-2.2c-4.4-2.4-8.9-4.8-13.5-6.9c-1.4-0.5-2.7-1.2-4-2
	C235.1,545.1,235.2,543.7,235.5,542.4z"/>
<circle fill="#FFBFC5" cx="378.4" cy="409" r="25.2"/>
<path fill="#3F3D56" d="M395.3,397.2c1.3,2.2,3.7,3.3,6.2,2.9c2.4-0.5,4.5-2,5.8-4.1c1.2-2.1,2-4.5,2.1-6.9c0.2-1.9,0.2-4-1-5.5
	c-0.9-0.9-2-1.7-3.2-2.2c-1.6-1-3-2.4-4-4c-0.7-1.2-1.2-2.4-1.8-3.6c-2.3-4.4-6.8-7.9-11.7-7.7c-2.4,0.1-4.6,1-6.9,1.4
	c-7.8,1.4-16.3-2.8-23.5,0.5c-1.8,0.9-3.4,2-4.9,3.3c-2,1.7-4,3.5-5.9,5.3c-1.6,1.4-2.9,3.2-3.6,5.2c-1,3.7,1.4,7.8-0.1,11.4
	c-0.5,1-1.1,2-1.8,2.9c-1.6,2.4,0.1,11.8,0,14.7c-0.2,1.4,0.2,2.8,1,4c1.2,1.3,3.2,1.4,5,1.5h3.3c0.5,0,1,0,1.5-0.1
	c0.6-0.3,1.2-0.7,1.6-1.3c2.7-2.9,3.3-12.2,7.2-12.2c0.6,0,1.2,0.1,1.7,0.4c0.7,0.5,0.9,1.5,1.4,2.2c1.2,1.4,3.2,1.9,4.9,1.1
	c1.6-0.8,3-1.9,4.1-3.3c1.1-1.4,2.4-2.7,3.9-3.7c2.1-1.2,4.5-1.8,6.5-3.1c1.7-1.2,2.7-2.8,4.2-4.1s2.8-1.1,4.5-0.2
	C394.1,393,394.2,395,395.3,397.2z"/>
<path opacity="0.1" enable-background="new    " d="M337.1,441.6c5.9-0.8,11.9-0.4,17.5,1.4c1.9,0.4,3.6,1.5,4.9,2.9
	c0.7,1.1,1.2,2.4,1.4,3.7c1.2,6,0.4,12.3-2.1,17.8c-0.4,0.6-0.5,1.3-0.3,1.9c0.3,0.4,0.6,0.7,1,1c1.4,1.3,1.4,3.5,0.1,4.9
	c-0.1,0.1-0.2,0.2-0.3,0.3c-0.5,0.3-1.1,0.6-1.2,1.2s0.5,1.1,1,1.6c1.4,1.3,2,3.3,1.6,5.1c-0.2,0.7-0.4,1.5-0.5,2.3
	c0.1,0.9,0.4,1.9,0.8,2.7c0.8,1.9,1,4,0.8,6c-0.2,1-0.3,2-0.1,2.9c0.3,0.6,0.7,1.2,1.1,1.8c1.8,2.4,2.2,6.5-0.4,8
	c2.3,1.2,3.6,3.7,3.2,6.3c1.6-0.8,3.5,0.2,4.8,1.4s2.6,2.7,4.4,2.8c1.2,0.1,2.5-0.6,3.7-0.1c1.7,0.8,1.7,3.6,3.4,4.4
	c1.5,0.7,3.5-0.5,4.8,0.6c0.4,0.4,0.7,0.9,1.1,1.3c1,0.9,2.5,0.5,3.8,0.5c3.1-0.1,5.9,2,7.5,4.6s2.2,5.7,2.6,8.8
	c0.3,1.7,0.3,3.4-0.1,5c-0.4,1.7-1.8,2.9-3.5,3.2c-15.5,1-30.7-2.7-45.8-6.4c-4.4-1.1-8.9-2.3-12.6-5c-3.4-2.4-5.8-5.8-8.2-9.2
	c-4.4-6.2-8.9-12.5-12.1-19.4c-4.1-8.9-5.9-18.7-7.7-28.3c-0.6-2.6-0.8-5.2-0.6-7.9c0.5-3.1,1.7-6,3.5-8.7c2.1-3.5,4.5-6.8,7-9.9
	C325.3,446.3,331,442.5,337.1,441.6z"/>
<path fill="#3F3D56" d="M338.1,440.6c5.9-0.8,11.9-0.4,17.5,1.4c1.9,0.4,3.6,1.4,4.9,2.9c0.7,1.1,1.2,2.4,1.4,3.7
	c1.2,6,0.4,12.3-2.1,17.8c-0.4,0.6-0.5,1.3-0.3,1.9c0.3,0.4,0.6,0.7,1,1c1.4,1.3,1.4,3.5,0.1,4.9c-0.1,0.1-0.2,0.2-0.3,0.3
	c-0.5,0.3-1.1,0.6-1.2,1.2s0.5,1.1,1,1.6c1.4,1.3,2,3.3,1.6,5.1c-0.2,0.7-0.4,1.5-0.5,2.3c0.1,0.9,0.4,1.9,0.8,2.7
	c0.8,1.9,1,4,0.8,6c-0.6,1.6-0.2,3.5,1,4.7c1.8,2.4,2.2,6.5-0.4,8.1c2.3,1.2,3.6,3.7,3.2,6.2c1.6-0.8,3.5,0.2,4.8,1.4
	s2.6,2.7,4.4,2.8c1.2,0.1,2.5-0.6,3.7-0.1c1.7,0.8,1.7,3.6,3.4,4.4c1.5,0.7,3.5-0.5,4.8,0.6c0.4,0.4,0.7,0.9,1.1,1.3
	c1,0.9,2.4,0.5,3.8,0.5c3.1-0.1,5.9,2,7.5,4.6c1.4,2.7,2.3,5.7,2.6,8.8c0.3,1.7,0.3,3.4-0.1,5c-0.4,1.7-1.8,2.9-3.5,3.2
	c-15.5,1-30.7-2.7-45.8-6.4c-4.4-1.1-8.9-2.3-12.6-5c-3.4-2.4-5.8-5.8-8.2-9.2c-4.4-6.2-8.9-12.4-12.1-19.4
	c-4.1-8.9-5.9-18.7-7.7-28.3c-0.6-2.6-0.8-5.3-0.6-7.9c0.5-3.1,1.7-6,3.4-8.7c2.1-3.5,4.5-6.8,7-9.9
	C326.3,445.3,332.1,441.5,338.1,440.6z"/>
<path fill="#F1F1F1" opacity="0.025" d="M909.2,264.1c10.9-2.1,18.1-12.6,16-23.5s-12.6-18.1-23.5-16c-0.9,0.2-1.7,0.4-2.5,0.7
	C906.9,236.6,910.5,250.4,909.2,264.1z"/>
<path fill="#F1F1F1" opacity="0.025" d="M940.4,256c10.9-2.1,18.1-12.6,16-23.5c-2.1-10.9-12.6-18.1-23.5-16c-0.9,0.2-1.7,0.4-2.5,0.7
	C938.1,228.5,941.7,242.2,940.4,256z"/>
<path fill="#F1F1F1" opacity="0.025" d="M909.2,264.1c-10.9,2.1-21.4-5.1-23.5-16c-1.9-9.9,3.9-19.7,13.4-22.9c-13.9-20.1-38.9-29.5-62.6-23.4
	c24.1,32.3,35.2,72.4,31.1,112.5C890.4,307.7,906.9,287.8,909.2,264.1L909.2,264.1z"/>
<path fill="#F1F1F1" opacity="0.025" d="M549.4,280.7c-23,4.9-40.8,23.2-45.2,46.3c11.1-0.2,20.3,8.6,20.5,19.7c0.2,8.9-5.5,16.9-14.1,19.6
	c13.6,24.4,42.7,35.7,69.2,26.9C556,360.9,545.1,320.7,549.4,280.7z"/>
<path fill="#F1F1F1" opacity="0.025" d="M504.2,327c-11.1,0.2-20,9.4-19.8,20.5c0.2,11.1,9.4,20,20.5,19.8c1.9,0,3.9-0.4,5.7-0.9
	C504,354.4,501.7,340.5,504.2,327z"/>
<path fill="#F1F1F1" opacity="0.025" d="M467.4,335.7c-11.1,0.2-20,9.4-19.8,20.5c0.2,11.1,9.4,20,20.5,19.8c1.9,0,3.9-0.4,5.7-0.9
	C467.2,363.1,464.9,349.2,467.4,335.7z"/>
<path fill="#F1F1F1" opacity="0.025" d="M775.5,152.6l-32.4,39.7c1.6,2.4,2.9,5,4.1,7.6l35.7-43.7C780.4,154.9,777.9,153.7,775.5,152.6z"/>
<path fill="#F1F1F1" opacity="0.025" d="M867.6,314.4c-31,9-63.3-8.8-72.3-39.8s8.8-63.3,39.8-72.3c0.5-0.1,1-0.3,1.5-0.4
	c-12.9-17.2-29.2-31.6-47.8-42.4l8.8,7.2l-45.4,55.6c0.7,32.2-24.8,58.9-57,59.7s-58.9-24.8-59.7-57c-0.6-27.2,17.6-51.2,43.9-57.9
	l-3.7-3l21-25.7c-77.1,5.7-139.1,65.6-147.3,142.4c31.5-6.8,62.6,13.2,69.4,44.7c6.3,29.2-10.4,58.5-38.8,67.8
	c52.6,71,152.8,85.9,223.8,33.3C839.8,399.8,863,359.1,867.6,314.4z M694.4,420.2c-25-20.4-28.7-57.1-8.3-82.1
	c20.4-25,57.1-28.7,82.1-8.3c25,20.4,28.7,57.1,8.3,82.1c0,0,0,0,0,0C756.1,436.8,719.3,440.6,694.4,420.2z"/>
<path fill="#F1F1F1" opacity="0.025" d="M729.5,139.3c-3.2-0.4-6.3-0.8-9.5-1l-22.1,27.1c3.1,0.2,6.2,0.7,9.2,1.4L729.5,139.3z"/>
<path fill="#F1F1F1" opacity="0.025" d="M731,178.6l26.9-32.9c-2.8-0.9-5.5-1.7-8.3-2.5l-25.1,30.7c2.2,1.3,4.3,2.8,6.2,4.4L731,178.6z"/>
<path fill="#3F3D56" d="M371.8,396.2c-4.3,0.8,0.4,39.5,7.4,45.5c5.3,4.5,14.2,6.3,17,3.3c4.1-4.4-4.6-19.6-2.8-20.5
	c0.8-0.4,2.2,2.6,4.4,2.4c2.3-0.3,4.7-4.2,3.9-6.8c-1.2-3.9-8.4-2.3-15.8-6.3C375,407.8,374.5,395.7,371.8,396.2z"/>
</svg>
