<svg xmlns="http://www.w3.org/2000/svg" viewBox="0 0 560.98 560.98"><path d="M280.49,0C435.4,0,560.98,125.58,560.98,280.49S435.4,560.98,280.49,560.98,0,435.4,0,280.49,125.58,0,280.49,0Z" transform="translate(0 0)" fill="#2cccf3"/><path d="M188.38,443.05a690.773,690.773,0,0,0,69.12,18.89c23.06,4.88,46.29,8.06,69.29,7.89a287.519,287.519,0,0,0,34.67-2.5c11.58-1.47,23.15-3.55,34.71-6s23.09-5.27,34.64-8.34,23.07-6.42,34.7-10a172.183,172.183,0,0,1-15.45,9.75c-5.29,3-10.71,5.8-16.21,8.45a288.1,288.1,0,0,1-34,13.65c-2.91,1-5.85,1.86-8.79,2.76s-5.91,1.67-8.9,2.42c-5.95,1.59-12,2.81-18.09,4-3,.58-6.1,1-9.17,1.46s-6.17.77-9.25,1.15-6.2.56-9.33.68l-4.68.22-4.69.1c-25.13.15-49.78-4.58-73.09-12.24a276.993,276.993,0,0,1-34-13.81c-5.48-2.69-10.88-5.53-16.14-8.61a165.2,165.2,0,0,1-15.34-9.92Z" fill="#101656"/><path d="M347.68,289.76l-.23-56.6q0-3.79-3.67-7.69t-7.47-4.12c-2.53-.15-4.27-.3-5.23-.45a5.89,5.89,0,0,1-2.9-1.45,4.12,4.12,0,0,1-1.45-3.34,2.17,2.17,0,0,1,1.89-2.45,74.67,74.67,0,0,1,9.48-.34h19.38l43.46-.89A102.41,102.41,0,0,1,460,230.7a66.78,66.78,0,0,1,20.95,22.85,61.14,61.14,0,0,1,8,30.64,157.165,157.165,0,0,1-2.12,28,60.57,60.57,0,0,1-7,19.84,77.221,77.221,0,0,1-9.8,13.59,133.944,133.944,0,0,1-12.48,11.48Q450,363.3,437.26,368a74.859,74.859,0,0,1-26.07,4.68l-53.49-1.12q-7.8,0-14.48.56t-7.8.56q-5.35,0-5.35-2.9a3.52,3.52,0,0,1,.78-2.56,7.87,7.87,0,0,1,3.34-1.45,34.255,34.255,0,0,0,3.68-1.12,16.16,16.16,0,0,0,6.58-5.9,15.09,15.09,0,0,0,3-8.58Zm18.72,3.34-.23,47.47q0,10.47,2.23,14.93a6.59,6.59,0,0,0,4.24,2.89q3.11.9,7.13,2L389,363a52.732,52.732,0,0,0,13.71,1.45h4.46q15.15,0,25.85-4.35a65.571,65.571,0,0,0,20.5-13.7Q470,330.54,470,295.11a73.14,73.14,0,0,0-7-32.32,63.26,63.26,0,0,0-18.39-23.17q-23.4-17.61-51-17.61H384.7q-10.69,0-14.26,3.79a7.42,7.42,0,0,0-2.12,3.12q-.33,1.34-.89,5.24a49.227,49.227,0,0,0-.56,6.8v9.35Z" fill="#101656"/><path d="M302.82,350.15a15,15,0,0,0,3,8.58,16.2,16.2,0,0,0,6.57,5.9,35.787,35.787,0,0,0,3.68,1.12,7.8,7.8,0,0,1,3.34,1.45,3.47,3.47,0,0,1,.78,2.56q0,2.89-5.34,2.9-1.12,0-7.8-.56t-14.49-.56l-53.48,1.12A74.779,74.779,0,0,1,213,368q-12.71-4.68-20.28-10.92a133.94,133.94,0,0,1-12.48-11.48,76.71,76.71,0,0,1-9.79-13.6,61,61,0,0,1-7-19.84,157.272,157.272,0,0,1-2.11-28,61,61,0,0,1,8-30.64,66.68,66.68,0,0,1,20.95-22.85,102.39,102.39,0,0,1,59.05-18.27l43.45.89h19.39a74.578,74.578,0,0,1,9.47.34,2.17,2.17,0,0,1,1.9,2.45,4.12,4.12,0,0,1-1.45,3.34,5.93,5.93,0,0,1-2.9,1.45c-1,.15-2.71.3-5.24.45s-5,1.52-7.46,4.12-3.68,5.16-3.68,7.69l-.22,56.6Zm-19.39-99.84V241a49.055,49.055,0,0,0-.55-6.8q-.56-3.9-.89-5.24a7.52,7.52,0,0,0-2.12-3.12Q276.3,222,265.61,222h-8.92q-27.63,0-51,17.61a63.34,63.34,0,0,0-18.38,23.17,73.14,73.14,0,0,0-7,32.32q0,35.43,16.49,51.25a65.57,65.57,0,0,0,20.5,13.7q10.69,4.35,25.85,4.35h4.46a52.7,52.7,0,0,0,13.7-1.45l9.25-2.56q4-1.11,7.13-2a6.65,6.65,0,0,0,4.24-2.89q2.22-4.46,2.22-14.93l-.22-47.47Z" fill="#101656"/></svg>