<svg xmlns="http://www.w3.org/2000/svg" viewBox="0 0 569.482 412.5"><g transform="translate(0)" preserveAspectRatio="xMaxYMid meet"><path d="M93.83,812.62l66.9-72.509,265.706-8.551,46.385,94.118H93.83Z" transform="translate(-93.83 -413.303)" fill="#514e7f"/><path d="M93.83,812.62l66.9-72.509,265.706-8.551,46.385,94.118H93.83Z" transform="translate(-93.83 -413.303)" opacity="0.2"/><path d="M533.707,840.224v2.508a4.891,4.891,0,0,1-4.891,4.891H385.993c-2.7,0,0-5.4,0-5.4l-1.615-35.373a5.839,5.839,0,0,1,4.4-5.925c7.948-2.006,13.419,1.215,13.419,1.215l88.475-2.249a28.374,28.374,0,0,1,5.487.259,24.03,24.03,0,0,1,16.217,9.609l20.332,27.566A4.892,4.892,0,0,1,533.707,840.224Z" transform="translate(-187.591 -446.959)" fill="#514e7f"/><path d="M533.822,852.932h0a4.891,4.891,0,0,1-4.891,4.891H386.108c-2.7,0,0-5.4,0-5.4s7.885-3.825,19.595-3.135l104.244-2.257s12.313.282,19.517,1.066A4.883,4.883,0,0,1,533.822,852.932Z" transform="translate(-187.707 -457.158)" opacity="0.1"/><path d="M458.979,783.55H369.36l2.477,27.253L475.642,809Z" transform="translate(-153.401 -424.544)" fill="#2cccf3"/><path d="M296.684,824.362v9.46l-93.891,3.809s-21.468-1.466-24.1-14.657a12.305,12.305,0,0,1,.078-4.154c.948-5.557,5.714-15.26,26.72-19.744l25.865-2.657h57.672S296.472,803.874,296.684,824.362Z" transform="translate(-143.092 -446.216)" fill="#514e7f"/><path d="M296.684,830.839V840l-93.891,3.809s-21.468-1.466-24.1-14.657A12.3,12.3,0,0,1,178.77,825s12.98,12.274,30.568,10.471l82.643-3.6A46.4,46.4,0,0,0,296.684,830.839Z" transform="translate(-143.092 -452.395)" opacity="0.1"/><ellipse cx="28.867" cy="4.954" rx="28.867" ry="4.954" transform="translate(52.424 360.508) rotate(-2.95)" opacity="0.1"/><path d="M232.136,751.828l-15.19,7.509-16.162-3.825-.078-26.343c1.027-19.226-7.838-57.711-12.219-75.15q-2.532-10.111-4.428-20.379l-4.969-26.767L171,537.32h19.25l11.318,16.209Z" transform="translate(-141.459 -390.197)" fill="#514e7f"/><path d="M233.753,751.837l-15.19,7.509-9.688-56.261c.188-9.586-11.827-55.093-12.611-56.966C186.686,623.256,178.48,537.36,178.48,537.36h13.4l11.31,16.177Z" transform="translate(-143.076 -390.206)" fill="#514e7f"/><path d="M233.753,751.837l-15.19,7.509-9.688-56.261c.188-9.586-11.827-55.093-12.611-56.966C186.686,623.256,178.48,537.36,178.48,537.36h13.4l11.31,16.177Z" transform="translate(-143.076 -390.206)" opacity="0.15"/><path d="M323.148,688.745l-51.73,54.513-6.067.431-7.391.533a8.332,8.332,0,0,1-8.214-4.93C234.069,704.021,183.954,533.475,173.4,497.35a6.85,6.85,0,0,1,4.8-8.543l7.054-1.9.525.063,75.362,10.111a11.483,11.483,0,0,1,9.406,7.885l55.163,172.38a11.475,11.475,0,0,1-2.571,11.4Z" transform="translate(-141.919 -379.298)" fill="#514e7f"/><path d="M323.148,688.745l-51.73,54.513-6.067.431-7.391.533a8.332,8.332,0,0,1-8.214-4.93C234.069,704.021,183.954,533.475,173.4,497.35a6.85,6.85,0,0,1,4.8-8.543l7.054-1.9.525.063,75.362,10.111a11.483,11.483,0,0,1,9.406,7.885l55.163,172.38a11.475,11.475,0,0,1-2.571,11.4Z" transform="translate(-141.919 -379.298)" opacity="0.1"/><path d="M326.468,688.952,274.918,743.3l-6.067.431-77.36-247.679A23.631,23.631,0,0,1,189.32,487l76.624,10.283a9.468,9.468,0,0,1,7.76,6.505l55.469,173.336a11.913,11.913,0,0,1-2.7,11.827Z" transform="translate(-145.42 -379.317)" fill="#514e7f"/><path d="M325.806,683.426a11.489,11.489,0,0,1-2.085,2.587L272.97,733.2,203.73,503.71l66.489,6.584a11.655,11.655,0,0,1,10.025,8.253L326.95,674.075A11.7,11.7,0,0,1,325.806,683.426Z" transform="translate(-148.535 -382.93)" fill="#2cccf3"/><path d="M344.147,685.242,288.56,512.11a11.655,11.655,0,0,1,10.025,8.253l46.706,155.528A11.7,11.7,0,0,1,344.147,685.242Z" transform="translate(-166.876 -384.746)" opacity="0.1"/><path d="M526.822,779.637a79.791,79.791,0,0,1-8.481,3.864c-7.572,2.978-19.109,6.4-29.855,5.087-18.067-2.195-28.875,3.715-28.875,3.715l-4.052-30.058s13.324-3.919,18.74-4.9c4.06-.784,18.709-7.532,25.74-10.848,2.351-1.1,3.817-1.818,3.817-1.818H517.37Z" transform="translate(-202.983 -435.03)" fill="#ffc1c7"/><path d="M539.092,779.637a79.763,79.763,0,0,1-8.481,3.864c-.917-26.767-11.185-34.714-18.3-37,2.351-1.1,3.817-1.818,3.817-1.818H529.64Z" transform="translate(-215.252 -435.03)" opacity="0.1"/><path d="M587.571,671.819v65.838l-3.535,4.186-11.326,13.4s-2.532,7.054-6.756,10.127-13.857-1.011-13.857-1.011l-2.7,4.389s-6.074,1.184-8.943,0-9.97,3.378-9.97,3.378c1.019-48.3-25.16-44.41-25.16-44.41,18.066-19.422,29.212-13.176,29.212-13.176l7.775-7.43,9.625-9.751c-2.195-7.548,5.737-9.162,7.595-10.009s6.756-8.951,6.592-9.962,1.513-7.6,4.217-7.344c1.5.141,3.566-2.5,5.118-4.875,1.238-1.912,2.148-3.652,2.148-3.652Z" transform="translate(-213.741 -417.05)" fill="#ffd24c"/><path d="M640.09,587.879,660,577.69l-1.129,11.937,3.919,11.992s-3.6,9.288-4.044,10.3-9.006,22.181-9.006,22.181l-6.866-8.669Z" transform="translate(-242.879 -398.925)" fill="#ff6584"/><path d="M603.4,601.333l-2.79-37.551L620.518,553.6" transform="translate(-203.399 -374.827)" opacity="0.1"/><path d="M721.205,554.583s-6.615,9.515-15.676,21.641c-21.084,28.217-55.383,70.541-50.163,39.832.172-1,.306-2.007.423-3.018-1.285.862-4.233.11-7.446-1.419l-.219-.1a38.333,38.333,0,0,1-4.577-2.649c-.165-.1-.321-.212-.478-.321-3.566-2.485-6.419-5.393-6.27-7.4,2.532-44.081,12.792-23.059,15.676-18.168a3.182,3.182,0,0,0,.658.917q-.188-.517-.423-1.082a215.119,215.119,0,0,0-10.3-20.3v-.078l-.588-1.05C638.155,554.842,634.181,548,630.607,542l-.964-1.615c-5.643-9.468-10.033-16.53-10.033-16.53s25.638-23.451,47.247-37.7c18.027-11.906,33.3-17.4,28.413,2.571-3.135,12.839-2.218,23.82.674,32.919.1.337.212.674.329,1a53.173,53.173,0,0,0,2.007,5.1,57.95,57.95,0,0,0,3.512,6.662A64.575,64.575,0,0,0,721.205,554.583Z" transform="translate(-238.451 -376.822)" fill="#ffc1c7"/><path d="M703.038,458.084a66.246,66.246,0,1,1-19.4-47.141A66.544,66.544,0,0,1,703.038,458.084Z" transform="translate(-227.714 -358.678)" fill="#ffc1c7"/><path d="M646.258,623.38s1.184,18.913,13.176,17.392,2.869,40.193,2.869,40.193l-13.324,12.157L634.6,697.542s-12.666-3.715-12.494-4.4,5.063-40.185,5.063-40.185l7.43-21.115Z" transform="translate(-238.991 -408.804)" opacity="0.1"/><path d="M646.262,625.1s1.183,18.913,13.176,17.4,2.869,40.193,2.869,40.193L648.982,694.85l-14.359,4.389s-12.666-3.715-12.494-4.389,5.063-40.193,5.063-40.193l7.43-21.108Z" transform="translate(-238.996 -409.176)" fill="#ffd24c"/><path d="M606.93,671.815v65.839l-3.535,4.185c-3.645-9.672-6.419-22.785-4.7-34.573,2.234-15.629-2.218-35.631-3.833-42.113,1.238-1.913,2.148-3.652,2.148-3.652Z" transform="translate(-233.1 -417.046)" opacity="0.1"/><path d="M651.972,621.872a38.62,38.62,0,0,1-2.861,10.769c-.439,1.043-.886,2.054-1.332,3-3.566-2.485-6.419-5.393-6.27-7.4,2.532-44.081,12.791-23.059,15.676-18.168C655.773,611.142,652.623,614.277,651.972,621.872Z" transform="translate(-243.185 -403.917)" opacity="0.1"/><path d="M658.778,606.437c-2.116-5.2-6.27-13.089-10.918-21.429l.588-.3L659.2,606.17a2.294,2.294,0,0,0-.423.266Z" transform="translate(-244.559 -400.443)" opacity="0.1"/><path d="M729.071,570.858s-73.293,105.381-65.839,61.473c.172-1,.306-2.006.423-3.018-1.317.878-4.366.078-7.666-1.521.5-2.931.784-4.938.784-4.938l8.112-22.95s4.7-18.239,4.052-21.946l.22-.149,40.334-27.08h.039A64.579,64.579,0,0,0,729.071,570.858Z" transform="translate(-246.317 -393.096)" opacity="0.1"/><path d="M791.313,647.942l-5.745,29.7-17.244,125.3H618.73s2.7-21.946,2.7-25.332-3.033-8.441-2.7-12.157,1.63-1.019,0-7.43-2.352-23.984-7.736-30.058-14.21-28.381-11.522-47.263-4.4-44.245-4.4-44.245-6.074-8.786,0-9.123,8.449.306,8.112-5.753,2.7-17.549,6.411-19.916,9.123-11.146,10.134-14.524a5.67,5.67,0,0,1,1.568-2.2c3.041-2.916,9.225-5.9,9.225-5.9l5.91-2.955v.078l10.722,21.382s-5.016,2.438-5.855,12.227a38.538,38.538,0,0,1-2.861,10.769c-.282.674-.564,1.34-.854,1.975-.862,1.912-1.74,3.605-2.485,4.954h0c-1.105,2-1.9,3.229-1.9,3.229s-.29,2.289-.729,5.487h0c-.9,6.568-2.422,16.977-3.323,19.469-.784,2.21-2.352,6.012-3.221,9.406a13.007,13.007,0,0,0-.572,5.377.986.986,0,0,0,.078.3c1.011,3.135,6.074-10.346,6.074-10.346s3.715-11.483,5.408-11.483c1.293,0,4.2-16.209,5.487-23.686.376-2.234.6-3.684.6-3.684l8.112-22.957s1.121-4.335,2.195-9.21c1.129-5.126,2.2-10.84,1.858-12.744l.22-.149L695.73,549.4h.039l.619-.415h-.063c-.282,0-1.1-.5-2.657-4.17-.4-.933-.846-2.061-1.34-3.456,0,0,12.9-5.181,17.5-1.387a4.1,4.1,0,0,1,.784.831,3.292,3.292,0,0,1,.337.557c3.041,6.27,4.389,10.973,7.43,15.033a13.071,13.071,0,0,0,1.066,1.23c3.676,3.849,10.973,8.355,9.743,9.578-1.348,1.348,10.134,7.054,10.134,7.054s6.717,3.841,8.826,7.054a3.212,3.212,0,0,1,.627,1.709c0,3.378,9.8,5.4,12.839,5.4s17.565,31.414,24.65,35.13S791.313,647.942,791.313,647.942Z" transform="translate(-232.563 -390.469)" fill="#ffd24c"/><path d="M450.627,766.772s-42.96-12.431-46,6.654,17.565,30.059,30.733,29.722,18.913-12.839,18.913-12.839Z" transform="translate(-191.905 -438.946)" fill="#ffc1c7"/><path d="M692.308,836.155s-9.625,6.921-30.058,6.921S618,847.465,618,847.465s-30.4-71.6-91.359-10.307c0,0-10.973,14.187,45.93,15.676,0,0,20.1-.674,24.486,9.288h113.65l15.543-11.639Z" transform="translate(-218.168 -449.661)" fill="#ffc1c7"/><path d="M444.272,727.693s-2.869-6.749-6.27,0L436.16,780.05l4.044,12.329,4.044-10.973Z" transform="translate(-198.788 -430.708)" fill="#514e7f"/><path d="M738.162,540.828c-5.894,2.007-12.36,6.709-14.265,8.183-.353,0-1.568-.784-4-7.626C719.892,541.384,734.479,535.529,738.162,540.828Z" transform="translate(-260.135 -390.476)" opacity="0.1"/><path d="M653.308,607.888s-5.016,2.438-5.855,12.227a38.538,38.538,0,0,1-2.861,10.769l-3.3,6.937h0l-2.626,8.731h0l.274,17.777-6.866,11.114-.572,5.377-1.779,16.632-9.123-4.389s3.762-26.821,6.584-32.253,6.592-34.2,6.592-34.2-.172-10.558,1.184-12.415-2.351-1.521-2.7-5.4c-.2-2.3-2.775-8.7-4.836-13.521,3.041-2.916,9.225-5.9,9.225-5.9l5.91-2.955Z" transform="translate(-238.665 -400.813)" fill="#ffd24c"/><path d="M653.308,607.888s-5.016,2.438-5.855,12.227a38.538,38.538,0,0,1-2.861,10.769l-3.3,6.937h0l-2.626,8.731h0l.274,17.777-6.866,11.114-.572,5.377-1.779,16.632-9.123-4.389s3.762-26.821,6.584-32.253,6.592-34.2,6.592-34.2-.172-10.558,1.184-12.415-2.351-1.521-2.7-5.4c-.2-2.3-2.775-8.7-4.836-13.521,3.041-2.916,9.225-5.9,9.225-5.9l5.91-2.955Z" transform="translate(-238.665 -400.813)" opacity="0.1"/><path d="M736.814,559.765c-7.532,6.161-27.785,23.639-30.113,35.521-2.869,14.649-11.483,13.23-11.483,13.23-10.761-23.341-18.168-29.063-22.409-29.87l40.334-27.088h.039l.619-.415h-.086c-.282,0-1.1-.494-2.657-4.162l16.162-4.852a4.094,4.094,0,0,1,.784.831,3.635,3.635,0,0,1,.337.557c3.041,6.27,4.389,10.973,7.43,15.033a14.178,14.178,0,0,0,1.042,1.215Z" transform="translate(-249.953 -391.237)" opacity="0.1"/><path d="M736.815,558.04c-7.532,6.161-27.785,23.647-30.113,35.529-2.869,14.641-11.483,13.223-11.483,13.223-10.761-23.334-18.168-29.079-22.409-29.862l40.334-27.08h.039l.619-.415h-.086c-.282,0-1.1-.5-2.657-4.17l16.162-4.844a4.1,4.1,0,0,1,.784.831,3.283,3.283,0,0,1,.337.557c3.041,6.27,4.389,10.973,7.43,15.033a13.058,13.058,0,0,0,1.042,1.2Z" transform="translate(-249.953 -390.867)" fill="#ffd24c"/><path d="M696.23,711.668c.5-.165,26.821-15.065,23.8-3.731S696.23,711.668,696.23,711.668Z" transform="translate(-255.017 -426.167)" opacity="0.1"/><path d="M551,732.08s13.842,21.531,18.74,20.857S551,732.08,551,732.08Z" transform="translate(-223.617 -432.305)" opacity="0.1"/><path d="M573,721.85s.846,16.718,8.112,17.894S573,721.85,573,721.85Z" transform="translate(-228.374 -430.094)" opacity="0.1"/><path d="M671,790.36s17.2,28.609,13.85,38.508Z" transform="translate(-249.562 -444.906)" opacity="0.1"/><path d="M696.44,794.67s23.263,30.568,19.234,33.1S696.44,794.67,696.44,794.67Z" transform="translate(-255.062 -445.838)" opacity="0.1"/><path d="M629.63,732.08s-2.391,21.735,6.584,28.052Z" transform="translate(-240.555 -432.305)" opacity="0.1"/><path d="M753.393,608.622s-39.825,30.9-33.444,62.993,12.541,34.448,12.541,34.448,2.351,12.831,6.756,18.239,3.715,8.951,3.715,8.951,4.052-1.857,5.4,7.43,8.442,15.872,8.442,15.872,2.351,7.43-3.715,11.483-4.7,8.449-4.7,8.449l-24.658,14.351,27.464,27.19h70.933s-2.03-3.543,2.351-8.622,2.2-25.16,2.2-25.16-2.453-3.214.549-10.307-2.579-27.354-2.579-27.354l-6.27-19.76s-5.236-14.014-4.389-21.531-1.724-15.731-1.724-15.731L798.65,646.613S799.324,603.724,753.393,608.622Z" transform="translate(-259.996 -405.529)" opacity="0.1"/><path d="M755.114,608.622s-39.856,30.9-33.437,62.993,12.494,34.448,12.494,34.448,2.351,12.831,6.756,18.239,3.715,8.951,3.715,8.951,4.052-1.857,5.408,7.43,8.442,15.872,8.442,15.872,2.351,7.43-3.715,11.483-4.7,8.449-4.7,8.449l-24.658,14.351,27.527,27.19h70.925s-2.022-3.543,2.351-8.622,2.195-25.16,2.195-25.16-2.453-3.214.549-10.307-2.579-27.354-2.579-27.354l-6.27-19.76s-5.236-14.014-4.389-21.531-1.74-15.731-1.74-15.731L800.37,646.613S801.044,603.724,755.114,608.622Z" transform="translate(-260.367 -405.529)" fill="#ffd24c"/><path d="M781.55,636.368s28.373,9.625,35.968,14.359S806.373,631.979,781.55,636.368Z" transform="translate(-273.464 -411.493)" opacity="0.1"/><path d="M800.51,822.9s40.358,5.063,38.006,13S800.51,822.9,800.51,822.9Z" transform="translate(-277.563 -451.941)" opacity="0.1"/><path d="M790.42,833.88s29.525,9.46,24.3,17.244S790.42,833.88,790.42,833.88Z" transform="translate(-275.382 -454.315)" opacity="0.1"/><ellipse cx="12.854" cy="7.023" rx="12.854" ry="7.023" transform="translate(235.522 329.982)" fill="#ffc1c7"/><g transform="translate(323.128 0)"><path d="M16.79,67.455C12.6,69.139,7.684,71.079,3.835,68.721,1.007,66.975-.157,63.351.017,60.033s1.439-6.462,2.44-9.627C4.5,43.9,5.6,37.135,7.877,30.663s5.992-12.71,11.893-16.13C30.632,8.245,44.69,13.441,56.746,9.96c5.1-1.46,9.545-4.4,14.292-6.707S81.124-.831,86.249.4c6,1.4,10.433,6.452,16.028,9.024,6.125,2.818,13.455,2.624,19.029,6.391,3.951,2.675,6.442,6.993,8.657,11.229a213.167,213.167,0,0,1,16.691,42.774,64.867,64.867,0,0,1,2.726,16.334c.051,7.085-1.868,14.027-3.767,20.866l-3.063,10.821a49.6,49.6,0,0,1-4.441,11.862c-2.144,3.7-5.451,6.809-9.545,7.881-5.1,1.317-11.046-1.235-13.271-6.013-1.368-2.96-1.307-6.35-1.378-9.606a106.923,106.923,0,0,0-2.042-18.988c-.633-3.134-1.48-6.391-3.614-8.759-2.756-3.063-7.146-4.083-11.23-4.155-4.778-.061-10.015,1.235-12.8,5.1-2.236,3.124-2.624,7.514-5.594,9.953a9.258,9.258,0,0,1-4.543,1.848,15.18,15.18,0,0,1-16.058-9.647c-.939-2.7-1.4-6.044-3.951-7.309-1.327-.664-2.91-.541-4.328-.97-4.349-1.317-5.492-6.83-5.89-11.352-.459-5.3,1.307-15.762-5.278-16.119C31.49,61.187,23.313,65.28,16.79,67.455Z" transform="translate(0 23.368) rotate(-9)" fill="#575988"/><path d="M.3,26.164C-1.964,27.257,9.411,37.3,5.187,47.429c-.347.919-4.514,31.132-1.407,39a19.969,19.969,0,0,0,4.083,6.738c5.186,5.288,14.129,5.186,20.591,1.582s10.923-9.923,14.71-16.334a56.835,56.835,0,0,0,5.012-10.209c1.165-3.622,14.136-27.567,19.23-63,0,0-20.217-6.792-22.923-4.872-.335-.123,5.208,28.952-16.3,36.272C16.22,39.787,7.7,22.469.3,26.164Z" transform="matrix(0.978, -0.208, 0.208, 0.978, 28.441, 116.268)" fill="#575988"/></g></g></svg>