<svg xmlns="http://www.w3.org/2000/svg" xmlns:xlink="http://www.w3.org/1999/xlink" width="228.026" height="244.556" viewBox="0 0 228.026 244.556"><defs><linearGradient id="a" x1="3.499" y1="1.031" x2="3.499" y2="0.019" gradientUnits="objectBoundingBox"><stop offset="0" stop-color="gray" stop-opacity="0.251"/><stop offset="0.54" stop-color="gray" stop-opacity="0.122"/><stop offset="1" stop-color="gray" stop-opacity="0.102"/></linearGradient></defs><g transform="translate(-16 -293.693)"><ellipse cx="62.447" cy="15.426" rx="62.447" ry="15.426" transform="translate(24.908 507.396)" fill="#2cccf3" opacity="0.1"/><g transform="translate(16)"><rect width="228.026" height="111.295" rx="6.61" transform="translate(0 301.004)" fill="#fff"/><rect width="228.026" height="111.295" rx="6.61" transform="translate(0 301.004)" fill="#5a5773" opacity="0.1"/><rect width="204.759" height="99.942" rx="6.61" transform="translate(11.631 306.681)" fill="#fff"/><rect width="140.474" height="20.589" rx="6.03" transform="translate(41.43 326.73)" fill="#2cccf3"/><rect width="130.169" height="4.201" transform="translate(46.582 354.845)" fill="#2cccf3"/><rect width="179.113" height="4.201" transform="translate(24.454 363.713)" fill="#2cccf3"/><rect width="179.113" height="4.201" transform="translate(24.454 373.045)" fill="#2cccf3"/><rect width="179.113" height="4.201" transform="translate(24.454 382.378)" fill="#2cccf3"/></g><path d="M132.68,720.1c.742-2.707,1.248-5.09,1.248-5.09a10.6,10.6,0,0,1,1.385-5.159V709.1h0l.212-5.5a18.3,18.3,0,0,0-1.248-2.932c-.923-1.765.312-8.059.312-8.059s4.011-8.777,3.337-14.472,8.5-24.845,8.5-24.845a24.628,24.628,0,0,0-.574-5.614,4.3,4.3,0,0,1-.062-1.166,1.106,1.106,0,0,1,0-.143v.044c.268-3.743,3.487-10.6,3.487-10.6l.119-13.349s-1.584-7.935,1.871-18.371c1.216-3.643,2.015-6.562,2.539-8.82.062-.256.119-.5.168-.736-6.288-1.21-11.091-2.2-11.091-2.2s4.26-15.208,6.862-17.8,4.884-10.96,4.884-10.96,1.709-10.792-.25-14.035-2.046-8.733-2.046-8.733-4.629-3.637-5.165-5.19a25.447,25.447,0,0,1-1.322-6.862c.069-1.809.73-3.431.568-4.4s1.566-4.547.836-6.306a4.828,4.828,0,0,1-.25-1.678v-.05h0a23.342,23.342,0,0,1,.593-4.485,12.726,12.726,0,0,1,4.8-2.333l.119-.412.312-1.067a5.207,5.207,0,0,1,.474-.262l.031-.393.1-1.553-.6-3.543c-1.248-6.151,6.937-6.743,6.937-6.743a4.285,4.285,0,0,1,2.377-1.934c1.659-.512-.075,9.176-.867,9.768-.624.443-2.5,3.431-3.4,4.9h0l-.15.243a3.369,3.369,0,0,1,.362.405l-.393,2.1-.062.318a8.733,8.733,0,0,1,1.216,2.264,4.7,4.7,0,0,0-1.322,3.406,10.973,10.973,0,0,1-.624,4.2c.087-.094,1.179-1.185,2.214-.873s3.917,1.3,3.917,1.3,2.165.468,1.946.942,1.391,2.645,1.391,2.645l6.069-5.321c.069-.168.131-.331.193-.5a13.939,13.939,0,0,0,.624-2.414,13.037,13.037,0,0,1-1.871-.667,4.072,4.072,0,0,1-1.584-1.1,6.548,6.548,0,0,1-.842-2.564,35.941,35.941,0,0,0-1.99-4.934,15.776,15.776,0,0,1-.836-8.733,5.814,5.814,0,0,1,1-2.5c1.011-1.279,2.763-1.747,4.067-2.745s2.177-2.576,3.674-3.306a7.08,7.08,0,0,1,4.466-.212,23.867,23.867,0,0,1,8.14,3.312,4.229,4.229,0,0,0,2.745,1.023,3.786,3.786,0,0,0,2.059-1.391.463.463,0,0,1,0-.087l.069-.069a10.287,10.287,0,0,1,.736,4.416,3.3,3.3,0,0,1-.05.7v.243a1.134,1.134,0,0,0,0,.206h0a1.029,1.029,0,0,0,.037.306,2.19,2.19,0,0,0,.518.817,4.459,4.459,0,0,1,.449.667.892.892,0,0,0-.069-.243,3.481,3.481,0,0,1,.536,1.871,1.828,1.828,0,0,1-.493,1.3,5.8,5.8,0,0,1-.986.736,11.2,11.2,0,0,1-5.789,11.409c-.075.162-.15.331-.218.5a13.948,13.948,0,0,0-1.31,6.344,1.5,1.5,0,0,0,.05.468c.05.156.143.168.206.256h0s9.669.468,12.027-1.51,5.552,5.258,5.552,5.258,3.443.8,4.161.162,4.766.087,4.766.087a8.733,8.733,0,0,1,6.126-1.977,17.9,17.9,0,0,1,4.535-2.3h0l.112-.037h0a4.89,4.89,0,0,1,2.189-.193s4.909-3.743,6.375-5.807,8.346-9.631,8.346-9.669l.044-.374.119-1.135a3.818,3.818,0,0,0,.586.075l.15-.393a21.414,21.414,0,0,1,1.528-3.169s.056-1.441-.349-1.815.393-5.614.393-5.614,4.672-9.856,8.221-2.227c0,0,7.074,5.121.761,10.523,0,0-2.5,1.085-2.851,2-.249.624-1.142,2.258-1.74,3.362l-.268.493.069.062-.125.936-.05.368c1.117.692,1.871,1.366,1.666,1.871a10.606,10.606,0,0,0-.792,2.564s-8.82,10.168-10.08,14.653c0,0-23.118,12.563-30.566,13.237l1.029,6.762a53.9,53.9,0,0,1,.087,5.483c-.156,1.435.586,7.991.586,7.991s.917,9.644,1.959,11.029.624,7.136.624,7.136a48.594,48.594,0,0,0,1.173,8.209,20.976,20.976,0,0,1,0,8.165s3.437,8.777-5.358,2.576c0,0-4.416-.443-9.507-.811v.505c0,.661-.031,1.372-.05,2.121-.125,4.947-.356,11.758-.78,16.9-.749,9.1-4.217,27.029-4.217,27.029l-.349,9.057a12,12,0,0,1,.162,2.6,16.842,16.842,0,0,1-2.788,8.976l-.929,6.02s-1.778,3.917-1.9,6.294a2.832,2.832,0,0,0,.05.58,4.628,4.628,0,0,1,.044.93c0,2.745-1.921,9.245-1.921,9.245s-.356,6.618-1.36,6.961c-.861.3.986,3.861,1.535,4.884a1.015,1.015,0,0,0,.044-.187l.119.2a4.7,4.7,0,0,1,.243,1.69,2.414,2.414,0,0,1-1.191,2.283c-1.928,1.079-2.975,2-1.391,2.445a17.637,17.637,0,0,1,1.734.43l.094-.218a1.067,1.067,0,0,1,.624,1.185,4.847,4.847,0,0,1-.68,2.221,24.177,24.177,0,0,1-2.869,4.791l-.761-.112a3.806,3.806,0,0,0,.412.83,3.169,3.169,0,0,0,1.085,1.042,3.469,3.469,0,0,0,1.335.511,3.849,3.849,0,0,1,2.757,1.478c.936,1.316,1.491,3.082-.524,4.535l-7.18,2.171s-12.251,1.117-11.5-1.591,1.248-5.09,1.248-5.09a10.823,10.823,0,0,1,1.173-4.816,6.442,6.442,0,0,1,.462-.7l-.43-.062s-.711-6.082-1.884-7.261c-.262-.281-.318-.487-.25-.624-.106-.331.206-.512.624-.624a.971.971,0,0,0,.081.237,6.018,6.018,0,0,1,1.185-.081s.518-3.15-.724-4.366a1.185,1.185,0,0,1-.212-.948,4.859,4.859,0,0,1,.181-1.285.471.471,0,0,0,.044.075,47.209,47.209,0,0,1,3.119-7.323s.206-2.876-.543-4.061.7-15.632.7-15.632-.031-7.011.986-10.236-.817-7.142-.817-7.142a.992.992,0,0,1,.031-.206.256.256,0,0,0,0-.056s.062-.43.162-1.1v.069c.274-1.871.78-5.184,1.117-6.731.48-2.189.393-12.763.393-12.763l-1.616-4.554-3.475,7.648-3.743,10.23a8.8,8.8,0,0,0-1.871,4.367v.331a5.19,5.19,0,0,1,0,.692,6.188,6.188,0,0,1-1.173,3.649s-1.079,4.859-2.5,6.051a5.654,5.654,0,0,0-1.528,3.593s-1.959,7.036-2.8,8.253c-.7,1.023-.855,3.911-.88,4.8h0v.256s-.331,2.533-.405,4.666v.755a.137.137,0,0,1,0-.05,7.229,7.229,0,0,0,.137,1.728v-.256a18.146,18.146,0,0,1,.343,4.441c-.056,2.551-.561,5.558-2.177,7.273-2.795,2.969-4.46,2.5-4.46,2.5s1.142,3.886,2.695,4.716a.988.988,0,0,1,.168.112.383.383,0,0,1,.044-.218,1.871,1.871,0,0,1,.412,1.447,10.342,10.342,0,0,1-2.183,5.614,3.118,3.118,0,0,1-1.366.736,2.347,2.347,0,0,0,.243.162,4.9,4.9,0,0,0,.536.274,2.652,2.652,0,0,0,.8.243,3.792,3.792,0,0,1,2.757,1.478c.936,1.31,1.491,3.075-.524,4.529l-7.18,2.171S131.925,722.808,132.68,720.1Z" transform="translate(-67.638 -195.749)" fill="url(#a)"/><path d="M200.326,861.08l6.955-2.177c1.952-1.46,1.416-3.225.512-4.541a3.643,3.643,0,0,0-2.664-1.466,3.256,3.256,0,0,1-1.3-.518,3.118,3.118,0,0,1-1.042-1.035,5.115,5.115,0,0,1-.68-2.682s-7.448-2.5-9.594-.368a5.614,5.614,0,0,0-.954,1.3,11.229,11.229,0,0,0-1.148,4.816s-.474,2.377-1.2,5.09S200.326,861.08,200.326,861.08Z" transform="translate(-88.906 -330.41)" fill="#2d293d"/><path d="M146.709,853.575l6.955-2.177c1.952-1.46,1.416-3.225.512-4.535a3.643,3.643,0,0,0-2.67-1.472,2.453,2.453,0,0,1-.773-.237,4.9,4.9,0,0,1-.518-.281c-1.871-1.129-1.728-3.743-1.728-3.743s-7.448-2.5-9.594-.368a5.512,5.512,0,0,0-.761.948,10.885,10.885,0,0,0-1.347,5.171s-.48,2.383-1.2,5.09S146.709,853.575,146.709,853.575Z" transform="translate(-68.73 -327.577)" fill="#2d293d"/><path d="M193.948,848.291a5.615,5.615,0,0,0-.948,1.3h0l11.228,1.74a5.115,5.115,0,0,1-.68-2.682S196.119,846.164,193.948,848.291Z" transform="translate(-90.343 -330.409)" opacity="0.1"/><path d="M139.641,841.735l-.081,2.115c1.647,2.963,10.161,2.657,12.682,1.3a4.9,4.9,0,0,1-.518-.281c-1.871-1.129-1.728-3.743-1.728-3.743s-7.448-2.5-9.594-.368A5.517,5.517,0,0,0,139.641,841.735Z" transform="translate(-70.239 -327.577)" opacity="0.1"/><path d="M137.9,760.893a19.375,19.375,0,0,1,1.248,2.932l-.306,7.573c1.8,3.244,11.815,2.57,13.224.9s3.019-6.132,1.516-6.955-2.607-4.716-2.607-4.716,1.616.449,4.329-2.5,2.2-9.812,1.778-11.459.281-7.1.281-7.1.05-3.843.867-5.059,2.72-8.253,2.72-8.253a5.631,5.631,0,0,1,1.478-3.593c1.391-1.191,2.445-6.057,2.445-6.057a6.275,6.275,0,0,0,1.117-4.086c-.193-2.408,1.821-4.928,1.821-4.928l3.662-10.23,3.368-7.654,1.553,4.572s.075,10.573-.393,12.763-1.248,8.022-1.248,8.022,1.772,3.911.786,7.142-.973,10.236-.973,10.236-1.422,14.453-.7,15.632.518,4.055.518,4.055-4.254,8.29-3.057,9.494.7,4.366.7,4.366-2.682-.106-1.578,1.092,1.7,7.23,1.7,7.23l11.546,1.79a24.432,24.432,0,0,0,2.782-4.8c1.672-3.487-.162-3.175-1.69-3.618s-.518-1.366,1.347-2.445.911-3.712.911-3.712-2.6-4.809-1.622-5.152,1.322-6.961,1.322-6.961,2.221-7.8,1.821-9.924,1.815-7.136,1.815-7.136l.9-6.013a16.611,16.611,0,0,0,2.551-11.334l.362-9.307s3.393-17.9,4.154-27.029c.474-5.826.711-13.792.817-18.764.062-2.795.087-4.641.087-4.641l-41.276-5.913a34.066,34.066,0,0,1-.992,6.126,91.107,91.107,0,0,1-2.5,8.827c-3.381,10.436-1.871,18.371-1.871,18.371l-.131,13.349s-3.992,8.783-3.337,11.883a25.351,25.351,0,0,1,.549,5.614s-8.883,19.138-8.234,24.808-3.25,14.478-3.25,14.478S137.009,759.128,137.9,760.893Z" transform="translate(-69.491 -255.892)" fill="#575988"/><path d="M171.6,748.183,159.05,746S165.918,753.585,171.6,748.183Z" transform="translate(-77.571 -292.249)" opacity="0.05"/><path d="M162.206,726.39s-.624,4.441,2.065,6.238C164.245,732.615,159.411,731.661,162.206,726.39Z" transform="translate(-78.431 -284.872)" opacity="0.1"/><path d="M164.85,703.67s10.211,9.089,14.073,8.521S164.85,703.67,164.85,703.67Z" transform="translate(-79.753 -276.324)" opacity="0.1"/><path d="M204,757s7.941,2.133,8.059,5.352S204,757,204,757Z" transform="translate(-94.482 -296.388)" opacity="0.1"/><path d="M197.439,821s11.228,2.545,7.972,3.861a54.369,54.369,0,0,1-8.59,2.264S193.166,827.188,197.439,821Z" transform="translate(-91.234 -320.465)" opacity="0.05"/><g transform="translate(68.089 399.07)" opacity="0.05"><path d="M213.731,830.037a2.246,2.246,0,0,0,1.1-1.6l.106.206s.961,2.626-.911,3.743c-.212.119-.412.243-.624.362-.331-.075-.692-.137-1.035-.237C210.843,832.045,211.859,831.122,213.731,830.037Z" transform="translate(-165.44 -722.334)"/><path d="M191.534,827.687c-.3-.3-.256-1.035,0-1.977a5.358,5.358,0,0,1,.536,2.807,2.183,2.183,0,0,0-.536-.83Z" transform="translate(-157.802 -721.307)"/><path d="M197.3,752.48a13.05,13.05,0,0,1,.624,3.562,13.605,13.605,0,0,0-.786-2.458S197.209,753.154,197.3,752.48Z" transform="translate(-159.99 -693.757)"/><path d="M156.125,742.174a4.579,4.579,0,0,1-.069-1.054c.119.724.193,1.391.237,1.977C156.244,742.8,156.187,742.492,156.125,742.174Z" transform="translate(-144.531 -689.483)"/><path d="M195.6,805.88a6.356,6.356,0,0,1-.2-2.14,7.217,7.217,0,0,1,.449,2.707,2.638,2.638,0,0,0-.25-.568Z" transform="translate(-159.328 -713.042)"/><path d="M190.436,836a37.677,37.677,0,0,1,1.092,5.945l11.546,1.79a24.179,24.179,0,0,0,2.788-4.8c.15-.306.262-.58.362-.83.68.343.929,1.079-.069,3.15a24.472,24.472,0,0,1-2.782,4.791L191.8,844.271s-.624-6.076-1.74-7.267C189.544,836.412,189.931,836.143,190.436,836Z" transform="translate(-157.235 -725.178)"/><path d="M215.335,752.538s-.349,6.618-1.322,6.961h0c-.443-1.117-.73-2.164-.293-2.32.973-.349,1.329-6.961,1.329-6.961s2.221-7.791,1.821-9.924,1.809-7.13,1.809-7.13l.9-6.02a16.611,16.611,0,0,0,2.551-11.334l.356-9.307s3.381-17.928,4.117-27.029c.468-5.826.7-13.792.817-18.763,0-.9.037-1.7.05-2.37l.331.05s0,1.871-.087,4.635c-.106,4.99-.343,12.944-.817,18.77-.736,9.095-4.111,27.029-4.111,27.029l-.362,9.3a16.63,16.63,0,0,1-2.545,11.334l-.911,6.019s-2.214,4.99-1.815,7.136S215.335,752.538,215.335,752.538Z" transform="translate(-166.145 -658.34)"/><path d="M152.551,839.605a11.228,11.228,0,0,0,2.009-4.485c1.142,1.11-.374,5.209-1.715,6.8s-11.428,2.345-13.224-.892l.069-1.828C142.184,841.869,151.216,841.189,152.551,839.605Z" transform="translate(-138.35 -724.847)"/><path d="M137.619,823.955a19.382,19.382,0,0,1,1.248,2.932l-.056,1.341a20.955,20.955,0,0,0-.886-1.959,5.782,5.782,0,0,1-.324-2.389Z" transform="translate(-137.584 -720.618)"/><path d="M159.481,818.885a18.755,18.755,0,0,1-.861-2.314s1.616.443,4.323-2.526c1.971-2.164,2.239-6.375,2.077-9.145.424,1.653.929,8.49-1.778,11.459C161.458,818.305,160.155,818.785,159.481,818.885Z" transform="translate(-145.498 -713.478)"/><path d="M168.883,762.053a51.3,51.3,0,0,0-.412,5.683,8.111,8.111,0,0,0-.162-.9c-.418-1.653.274-7.1.274-7.1s.056-3.843.867-5.059,2.72-8.253,2.72-8.253a5.664,5.664,0,0,1,1.485-3.593c1.391-1.2,2.445-6.057,2.445-6.057a6.313,6.313,0,0,0,1.117-4.086c-.193-2.408,1.821-4.928,1.821-4.928l3.662-10.23,3.368-7.654,1.553,4.579v1.46l-1.248-3.743-3.368,7.648-3.662,10.236s-2.015,2.5-1.821,4.928a6.275,6.275,0,0,1-1.117,4.086s-1.054,4.859-2.445,6.051a5.631,5.631,0,0,0-1.478,3.593s-1.909,7.036-2.72,8.259S168.883,762.053,168.883,762.053Z" transform="translate(-149.093 -677.73)"/></g><path d="M167.208,504.855l.586,3.531-.1,1.559-.075,1.148,3.986.568.48-.811h0a36.509,36.509,0,0,1,3.3-4.9c.761-.593,2.458-10.28.848-9.768a4.21,4.21,0,0,0-2.308,1.934S166.029,498.711,167.208,504.855Z" transform="translate(-80.595 -198.256)" fill="#ffcdd3"/><path d="M167.94,519.171l3.986.568.48-.811h0a3.537,3.537,0,0,0-4.367-.9Z" transform="translate(-80.916 -206.334)" opacity="0.1"/><path d="M166.2,521.259l5.234,1.428.137-.786.381-2.1a3.637,3.637,0,0,0-5.084-.892l-.3,1.067Z" transform="translate(-80.261 -206.563)" fill="#dce6f2"/><path d="M303.74,506l5.514,3.244s.231-.443.555-1.048c.58-1.1,1.441-2.763,1.684-3.362.368-.917,2.763-2.009,2.763-2.009,6.119-5.408-.724-10.517-.724-10.517-3.431-7.629-7.96,2.233-7.96,2.233s-.78,5.259-.387,5.614.337,1.815.337,1.815a21.208,21.208,0,0,0-1.485,3.169C303.846,505.653,303.74,506,303.74,506Z" transform="translate(-132.005 -195.716)" fill="#ffcdd3"/><path d="M303.74,515.5l5.514,3.244s.231-.443.555-1.048c-.773-.692-3.506-3.119-4.435-3.019a6.7,6.7,0,0,1-1.335,0C303.846,515.159,303.74,515.5,303.74,515.5Z" transform="translate(-132.005 -205.222)" opacity="0.1"/><path d="M302.71,517.338l6.238,3.362.175-1.36.125-.936s-3.543-3.281-4.629-3.206a5.887,5.887,0,0,1-1.659-.069l-.112,1.135Z" transform="translate(-131.618 -205.393)" fill="#dce6f2"/><path d="M190.45,535.561s27.49,4.179,22.394,2.308c-3.549-1.31-4.89-3.649-5.09-6.194a14.485,14.485,0,0,1,1.248-6.35,27.836,27.836,0,0,1,2.664-4.891s-20.66-12.42-16.842-1.7a16.929,16.929,0,0,1,1,5.046,14.223,14.223,0,0,1-.736,5.04,15.1,15.1,0,0,1-4.641,6.743Z" transform="translate(-89.384 -205.108)" fill="#ffcdd3"/><path d="M197.216,518.731a16.929,16.929,0,0,1,1,5.047c1.921,1.74,4.1,1.715,6.905,1.821,2.152.087,4.51.7,6.238-.274a27.832,27.832,0,0,1,2.664-4.891S193.4,508.015,197.216,518.731Z" transform="translate(-91.752 -205.108)" opacity="0.1"/><circle cx="11.422" cy="11.422" r="11.422" transform="translate(102.738 298.403)" fill="#ffcdd3"/><path d="M190.45,543.647s27.49,4.179,22.394,2.308c-3.549-1.31-4.89-3.649-5.09-6.194-1.316-1.541-4.036-2.72-5.789-3.362a8.315,8.315,0,0,0-4.99-.274,6.86,6.86,0,0,0-1.871.78,15.1,15.1,0,0,1-4.653,6.743Z" transform="translate(-89.384 -213.193)" opacity="0.1"/><path d="M166.2,522.222l5.234,1.428.137-.786a4.66,4.66,0,0,0-4.99-1.928Z" transform="translate(-80.261 -207.526)" opacity="0.1"/><path d="M302.71,518.042l6.238,3.362.175-1.36a47.233,47.233,0,0,0-6.3-3.044Z" transform="translate(-131.618 -206.096)" opacity="0.1"/><path d="M168.65,655.486c10.6,2.1,25.762,4.884,28.2,4.242,2.027-.53,8.421-.218,13.979.187.062-2.795.087-4.641.087-4.641l-41.276-5.913A34.065,34.065,0,0,1,168.65,655.486Z" transform="translate(-81.183 -255.892)" opacity="0.1"/><path d="M151.72,602.981s34.969,7.4,38.793,6.394,23.174.986,23.174.986c8.5,6.188,5.19-2.583,5.19-2.583a21.111,21.111,0,0,0,0-8.165,49.906,49.906,0,0,1-1.129-8.209s.418-5.751-.586-7.13-1.871-11.029-1.871-11.029-.7-6.556-.555-7.991-.075-5.483-.075-5.483l-.992-6.762c7.23-.68,29.617-13.268,29.617-13.268,1.248-4.466,9.787-14.709,9.787-14.709a11.08,11.08,0,0,1,.774-2.564c.624-1.51-7.878-4.909-7.878-4.909s-6.743,7.616-8.14,9.675-6.182,5.814-6.182,5.814a4.685,4.685,0,0,0-2.121.193h-.112a17.136,17.136,0,0,0-4.367,2.3,8.359,8.359,0,0,0-5.938,1.977s-3.911-.724-4.6-.081-4.03-.156-4.03-.156-3.119-7.223-5.371-5.246-11.646,1.522-11.646,1.522c-1.179-1.709-4.173-3.013-6.044-3.7a8.265,8.265,0,0,0-4.99-.275,6.485,6.485,0,0,0-2.015.88l-5.889,5.34s-1.553-2.171-1.341-2.645-1.871-.936-1.871-.936-2.751-.973-3.793-1.3-2.058.773-2.146.873a11.09,11.09,0,0,0,.624-4.2,4.822,4.822,0,0,1,1.279-3.412c-3.038-8.377-10.879-1.759-10.879-1.759s-1.042,4.473-.337,6.238-.973,5.34-.823,6.306-.48,2.576-.549,4.4a27.06,27.06,0,0,0,1.248,6.862c.493,1.547,4.99,5.19,4.99,5.19s.081,5.477,1.971,8.733.231,14.035.231,14.035-2.246,8.365-4.747,10.96S151.72,602.981,151.72,602.981Z" transform="translate(-74.813 -206.307)" fill="#656691"/><path d="M237.779,553.03s1.179-3.119,2.146-3.375a22.1,22.1,0,0,0,2.832-1.141l-.574-1.2s-3.643.855-4.254,1.871S237.779,553.03,237.779,553.03Z" transform="translate(-107.127 -217.499)" opacity="0.1"/><path d="M269.22,545.039c.156.967,8.658,2.158,8.658,2.158l-4.148-4.5h-.106A17.135,17.135,0,0,0,269.22,545.039Z" transform="translate(-119.018 -215.765)" opacity="0.1"/><circle cx="0.767" cy="0.767" r="0.767" transform="translate(174.642 316.287)" fill="#575988"/><circle cx="0.767" cy="0.767" r="0.767" transform="translate(173.6 317.784)" fill="#575988"/><circle cx="0.767" cy="0.767" r="0.767" transform="translate(172.583 319.163)" fill="#575988"/><circle cx="0.767" cy="0.767" r="0.767" transform="translate(171.523 320.66)" fill="#575988"/><circle cx="0.624" cy="0.624" r="0.624" transform="translate(81.248 317.241)" fill="#575988"/><circle cx="0.624" cy="0.624" r="0.624" transform="translate(81.098 318.651)" fill="#575988"/><circle cx="0.624" cy="0.624" r="0.624" transform="translate(80.955 320.061)" fill="#575988"/><path d="M212.822,598.15c.094-.106-22.581,26.367-38.762,9.943C174.06,608.093,200.446,612.709,212.822,598.15Z" transform="translate(-83.218 -236.626)" opacity="0.1"/><path d="M246.433,621.68s-12.956-.143-14.453,3.524l-.15,3.874a2.5,2.5,0,0,0,2.408.094c1.335-.655,9.307-4.329,12-2.308Z" transform="translate(-104.952 -245.478)" opacity="0.1"/><path d="M246.43,621.66s-12.382-.137-13.817,3.362l-.143,3.693a2.37,2.37,0,0,0,2.3.087c1.248-.624,8.9-4.123,11.471-2.2Z" transform="translate(-105.193 -245.47)" fill="#656691"/><path d="M237.5,576.2a42.041,42.041,0,0,1-5.346,8.415A33.728,33.728,0,0,1,224,591.9S237.218,577.947,237.5,576.2Z" transform="translate(-102.006 -228.368)" opacity="0.1"/><path d="M248.413,552.36s-2.5,9.238-8.2,12.189Z" transform="translate(-108.104 -219.399)" opacity="0.1"/><path d="M254.016,554.068c.062-.168,1.634,7.448-7.616,11.272C246.4,565.34,250.311,564.174,254.016,554.068Z" transform="translate(-110.433 -220.041)" opacity="0.1"/><path d="M164.857,540.561c.143,0-4.6,2.776-5.907,4.092C158.981,544.653,162.131,540.262,164.857,540.561Z" transform="translate(-77.533 -214.955)" opacity="0.1"/><path d="M205.1,516.361a2.451,2.451,0,0,1-.954,1.509,2.352,2.352,0,0,1-1.085.193c-3.487.087-7.117.1-10.28-1.366a3.88,3.88,0,0,1-1.528-1.1,6.292,6.292,0,0,1-.817-2.564,37.107,37.107,0,0,0-1.921-4.928,16.218,16.218,0,0,1-.792-8.733,5.844,5.844,0,0,1,.967-2.5c.973-1.279,2.676-1.747,3.936-2.751s2.108-2.576,3.568-3.312a6.586,6.586,0,0,1,4.317-.212,22.656,22.656,0,0,1,7.922,3.325,3.986,3.986,0,0,0,2.651,1.017,3.692,3.692,0,0,0,2.034-1.435,10.6,10.6,0,0,1,.661,4.99,2.151,2.151,0,0,0,0,.749,2.277,2.277,0,0,0,.5.817c.817,1.029,1.3,2.626.412,3.6-.387.424-.967.624-1.341,1.079-.674.773-.505,1.934-.53,2.963a1.559,1.559,0,0,1-.287,1,1.491,1.491,0,0,1-1.422.281,3.88,3.88,0,0,0-1.5-.2,2.5,2.5,0,0,0-1.341.948C206.583,511.7,205.885,513.928,205.1,516.361Z" transform="translate(-88.257 -196.07)" fill="#2d293d"/><g transform="translate(102.551 297.261)" opacity="0.1"><path d="M192.936,520.8a3.831,3.831,0,0,0,1.528,1.1c3.163,1.466,6.793,1.447,10.28,1.366a2.277,2.277,0,0,0,1.085-.2,2.421,2.421,0,0,0,.954-1.5,17.738,17.738,0,0,1,3.169-6.643,2.5,2.5,0,0,1,1.341-.954,4,4,0,0,1,1.5.2,1.472,1.472,0,0,0,1.422-.281,1.535,1.535,0,0,0,.287-1c0-1.029-.143-2.189.53-2.969.374-.43.954-.624,1.341-1.073a2.258,2.258,0,0,0,.306-2.283,2.613,2.613,0,0,1,.044,3.063c-.387.424-.961.624-1.341,1.079-.674.773-.5,1.934-.524,2.963a1.528,1.528,0,0,1-.293,1,1.485,1.485,0,0,1-1.422.281,3.849,3.849,0,0,0-1.491-.2,2.5,2.5,0,0,0-1.347.954,17.9,17.9,0,0,0-3.169,6.637,1.8,1.8,0,0,1-2.034,1.709c-3.487.081-7.117.094-10.286-1.372a3.906,3.906,0,0,1-1.528-1.1,3,3,0,0,1-.455-.942A1.155,1.155,0,0,0,192.936,520.8Z" transform="translate(-192.83 -499.434)"/><path d="M229.2,500.725a1.541,1.541,0,0,1-.324-.624,2.153,2.153,0,0,1,0-.749,10.635,10.635,0,0,0-.374-4.154l.062-.069a10.523,10.523,0,0,1,.667,4.99,3.386,3.386,0,0,0-.031.605Z" transform="translate(-206.25 -495.13)"/></g><path d="M209.212,542.755s-14.347,1.341-15.532-.855" transform="translate(-90.599 -215.464)" opacity="0.1"/><path d="M168.611,532.095s-7.928-.293-9.781,2.607" transform="translate(-77.488 -211.772)" opacity="0.1"/></g></svg>