<svg xmlns="http://www.w3.org/2000/svg" xmlns:xlink="http://www.w3.org/1999/xlink" viewBox="0 0 580.883 527.532"><defs><style>.a,.j,.m{fill:#2cccf3;}.b{fill:#444053;}.c,.d{fill:none;stroke:#444053;stroke-miterlimit:10;}.d{stroke-width:0.75px;}.e{fill:url(#a);}.f{fill:#fff;}.g,.h,.i,.p{fill:#5a5773;}.g{opacity:0.04;}.i,.j{opacity:0.2;}.k,.m,.p,.y{opacity:0.1;}.l{fill:#ffd037;}.n{fill:#65617d;}.o{fill:#9d9cb5;}.q{fill:url(#b);}.r{fill:#2d293d;}.s{fill:#575988;}.t,.u{opacity:0.05;}.v{fill:#ffcdd3;}.w{fill:#dce6f2;}.x{fill:#656691;}.z{fill:#f7c4a7;}.aa{fill:#e7effd;}.ab{fill:#e6e6f0;}.ac{fill:#3f3d56;}.ad{fill:#fbbebe;}.ae{fill:#223646;}.af{fill:#ffd24c;}.ag{fill:#2700f4;}.ah{fill:#2603e0;}.ai{fill:#e6e8ec;}</style><linearGradient id="a" x1="0.5" y1="1" x2="0.5" gradientUnits="objectBoundingBox"><stop offset="0" stop-color="gray" stop-opacity="0.251"/><stop offset="0.54" stop-color="gray" stop-opacity="0.122"/><stop offset="1" stop-color="gray" stop-opacity="0.102"/></linearGradient><linearGradient id="b" x1="3.499" y1="1.031" x2="3.499" y2="0.019" xlink:href="#a"/></defs><g transform="translate(-97 -0.146)"><g transform="translate(-50 -6)"><path class="a" d="M612.928,167.526s-8.777-3.562-36.685,9.245-31.414,11.172-38.625,9.213-11.228-2.42-19-13.1c0,0-5.464-29.617-10.748-34.208s-27.759,2.614-27.759,2.614-26.941,6.182-32.075-29.823c0,0,3.643-27.141-1.316-35.469,0,0,9.981,4.323,26.536-2.651S503,80.832,503,80.832s4.167,10.792,3.743,17.223,2.2,8.845,10.087,5.739c0,0,3.867-5.508-1.616-14.609s-9.394-15.888-7.86-22.955,5.926-16.842,20.061-21.77,33.335-5.851,42.555-9.687S581.42,28.44,581.42,28.44s-5.683,5.7,7.7,29.786,4.847,34.545,4.847,34.545-7.111,16.942-38.488,15.595c0,0-30.235,1.1-13.723,13.929,0,0,10.561-2.152,26.343-7.167s27.178,15.688,30,30.1S612.928,167.526,612.928,167.526Z" transform="translate(-185.796 -22.294)"/><path class="b" d="M633.632,57.724l.168-.044c1.21,4.6-12.307,23.08-23.854,37.758l-.137-.106C626.11,74.616,634.574,61.261,633.632,57.724Z" transform="translate(-247.153 -33.294)"/><path class="b" d="M590.344,117.55l.069.187c-9.226,11.733-20.828,25.731-30.116,36.1-.886.992-1.765,2.027-2.614,3.088l-.262-.218c.848-1.06,1.734-2.1,2.62-3.119C569.322,143.25,581.124,129.277,590.344,117.55Z" transform="translate(-227.443 -55.818)"/><path class="b" d="M544.827,179.88l.181.312c-16.9,21.1-18.021,53.87-18.09,54.157l-3.568-4.117C523.425,229.945,527.8,201.126,544.827,179.88Z" transform="translate(-214.626 -79.267)"/><path class="c" d="M602.4,191.345s-19.961-10.361-35.462-6.643-50.527-13.137-50.527-13.137-14.852-6.038-17.834-12.912c0,0-10.186-10.767-10.767-16.343s-10.5-19.587-16.967-20.13" transform="translate(-194.871 -57.56)"/><path class="c" d="M671.712,240.22s-10.055-6.762-8.87-14.64" transform="translate(-267.068 -96.46)"/><path class="c" d="M642.9,247.594s-14.347-5.215-15.794-25.644" transform="translate(-253.661 -95.095)"/><path class="c" d="M609.214,252.68S595.49,241.3,600.05,221.41" transform="translate(-243.132 -94.891)"/><path class="c" d="M568.039,243.55s-9.138-19.156-1.01-31.62" transform="translate(-229.791 -91.325)"/><path class="c" d="M677.01,212.82s-10.386,3.294-8.159,8.733" transform="translate(-269.247 -91.66)"/><path class="c" d="M653.422,182.61s-13.892,4.41-14.222,24.059" transform="translate(-258.21 -80.294)"/><path class="c" d="M623.909,175.34s-12.638,15.595-11.708,29.786" transform="translate(-248.034 -77.559)"/><path class="c" d="M588.788,185.15s-12.557,12-10.954,18.682" transform="translate(-235.07 -81.25)"/><path class="c" d="M575.244,177.293s-11.777,2.115-13.424-1.753" transform="translate(-229.098 -77.635)"/><path class="c" d="M558.81,155.56s5.951,7.878,7.485,6.113" transform="translate(-227.966 -70.118)"/><path class="c" d="M631.4,143.473s-29.68,2.14-36.4-6.793" transform="translate(-241.581 -63.015)"/><path class="c" d="M548.8,91.91s13.929,29.9,24.041,33.684" transform="translate(-224.2 -46.172)"/><path class="c" d="M572.22,69.08s8.558,27.5,19.156,36.086" transform="translate(-233.011 -37.583)"/><path class="d" d="M651.6,111.122s-22.575,9.687-36.13-.112" transform="translate(-249.282 -53.357)"/><path class="d" d="M604.46,59.68s5.159,20.217,12.108,25.1" transform="translate(-245.14 -34.046)"/><path class="d" d="M657.412,74.89s-12.682,4.8-17.422,1.123" transform="translate(-258.507 -39.769)"/><path class="c" d="M538.5,166.15s0,17.622-4.8,18.876" transform="translate(-218.519 -74.102)"/><path class="c" d="M478.52,197.807s19.05,1.634,27.84-8.2" transform="translate(-197.76 -82.928)"/><path class="c" d="M523.059,132.78s-4.61,17.871-17.329,22.687" transform="translate(-207.997 -61.548)"/><path class="c" d="M460.2,168.2s13.486,4.691,25.082-7.248" transform="translate(-190.868 -72.146)"/><path class="c" d="M503.725,108.15s-1.248,15.177-9.525,22.282" transform="translate(-203.659 -52.281)"/><path class="c" d="M461,133.338s11.191.081,13.811-3.568" transform="translate(-191.169 -60.415)"/></g><g transform="translate(59.748 6.35)"><rect class="e" width="533.055" height="301.453" rx="12.49" transform="translate(47.589 93.608)"/><rect class="f" width="531.423" height="296.211" rx="12.49" transform="translate(48.436 97.847)"/><rect class="f" width="531.423" height="296.211" rx="12.49" transform="translate(48.436 97.847)"/><rect class="g" width="531.423" height="296.211" rx="12.49" transform="translate(48.436 97.847)"/><path class="h" d="M634.937,170.15H108.888a2.7,2.7,0,0,0-2.7,2.693v11.39H637.613V172.866A2.7,2.7,0,0,0,634.937,170.15Z" transform="translate(-57.777 -75.702)"/><g transform="translate(55.402 97.847)"><ellipse class="f" cx="3.646" cy="3.64" rx="3.646" ry="3.64"/><ellipse class="f" cx="3.646" cy="3.64" rx="3.646" ry="3.64" transform="translate(9.816)"/><ellipse class="f" cx="3.646" cy="3.64" rx="3.646" ry="3.64" transform="translate(19.632)"/></g><rect class="f" width="443.124" height="219.948" rx="10.19" transform="translate(84.009 174.104)"/><rect class="i" width="127.463" height="13.355" rx="3.86" transform="translate(65.218 123.477)"/><rect class="j" width="127.463" height="13.355" rx="3.86" transform="translate(305.571 199.634)"/><rect class="j" width="199.03" height="13.355" rx="3.86" transform="translate(305.571 237.029)"/><rect class="j" width="199.03" height="13.355" rx="3.86" transform="translate(305.571 258.868)"/><rect class="j" width="199.03" height="13.355" rx="3.86" transform="translate(305.571 280.707)"/><rect class="j" width="199.03" height="13.355" rx="3.86" transform="translate(305.571 302.546)"/><rect class="j" width="396.568" height="13.355" rx="3.86" transform="translate(108.033 326.625)"/><rect class="j" width="396.568" height="13.355" rx="3.86" transform="translate(108.033 348.464)"/><rect class="j" width="396.568" height="13.355" rx="3.86" transform="translate(108.033 370.304)"/><rect class="j" width="169.397" height="124.057" rx="8.5" transform="translate(108.033 192.225)"/></g><path class="a" d="M751.593,678.54s3.7,4.834-1.709,12.139-9.862,13.468-8.059,18.021c0,0,8.153-13.561,14.8-13.723S758.9,686.693,751.593,678.54Z" transform="translate(-296.665 -266.87)"/><path class="k" d="M751.718,678.54a5.99,5.99,0,0,1,.755,1.516c6.481,7.61,9.931,14.715,3.705,14.89-5.8.168-12.763,10.542-14.428,13.156a4.791,4.791,0,0,0,.2.624s8.153-13.561,14.8-13.723S759.023,686.693,751.718,678.54Z" transform="translate(-296.791 -266.87)"/><path class="l" d="M768.238,687.764c0,1.7-.187,3.081-.424,3.081s-.424-1.379-.424-3.081.237-.9.474-.9S768.238,686.061,768.238,687.764Z" transform="translate(-306.437 -269.93)"/><path class="l" d="M770.778,690.956c-1.5.811-2.8,1.3-2.913,1.1s1.01-1.035,2.5-1.871.9-.225,1.017,0S772.269,690.139,770.778,690.956Z" transform="translate(-306.613 -271.09)"/><path class="a" d="M721.4,678.54s-3.7,4.834,1.7,12.139,9.868,13.468,8.066,18.021c0,0-8.159-13.561-14.8-13.723S714.1,686.693,721.4,678.54Z" transform="translate(-286.013 -266.87)"/><path class="k" d="M721.4,678.54a5.857,5.857,0,0,0-.761,1.516c-6.475,7.61-9.924,14.715-3.7,14.89,5.8.168,12.756,10.542,14.422,13.156a4.783,4.783,0,0,1-.193.624s-8.159-13.561-14.8-13.723S714.1,686.693,721.4,678.54Z" transform="translate(-286.013 -266.87)"/><path class="l" d="M715.38,687.768c0,1.7.193,3.081.43,3.081s.424-1.379.424-3.081-.237-.886-.468-.886S715.38,686.065,715.38,687.768Z" transform="translate(-286.87 -269.934)"/><path class="l" d="M711.054,690.956c1.5.811,2.8,1.3,2.913,1.1s-1.01-1.035-2.5-1.871-.9-.225-1.017,0S709.557,690.139,711.054,690.956Z" transform="translate(-284.902 -271.09)"/><ellipse class="m" cx="38.675" cy="5.932" rx="38.675" ry="5.932" transform="translate(406.484 466.963)"/><path class="n" d="M749.974,715.089l-.187,1.51-.256,2.133-.112.892-.256,2.133-.112.892-.262,2.127-2.957,24.265c-.268,2.164-3.805,3.855-8.109,3.855H722.365c-4.273,0-7.8-1.691-8.066-3.855L711.331,724.8l-.256-2.127-.112-.892-.262-2.133-.106-.892-.262-2.133-.187-1.51c-.143-1.248,1.772-2.258,4.186-2.258h31.451C748.2,712.831,750.111,713.86,749.974,715.089Z" transform="translate(-284.898 -279.778)"/><path class="o" d="M721.462,700.32l-.256,2.133H682.282l-.262-2.133Z" transform="translate(-256.585 -263.499)"/><path class="o" d="M721.316,705.16l-.256,2.133H682.872l-.262-2.133Z" transform="translate(-256.807 -265.32)"/><path class="o" d="M721.174,710.01l-.262,2.133H683.466l-.256-2.133Z" transform="translate(-257.033 -267.144)"/><g transform="translate(81 -25)"><ellipse class="m" cx="62.447" cy="15.426" rx="62.447" ry="15.426" transform="translate(24.908 507.396)"/><g transform="translate(16)"><rect class="f" width="228.026" height="111.295" rx="6.61" transform="translate(0 301.004)"/><rect class="p" width="228.026" height="111.295" rx="6.61" transform="translate(0 301.004)"/><rect class="f" width="204.759" height="99.942" rx="6.61" transform="translate(11.631 306.681)"/><rect class="a" width="140.474" height="20.589" rx="6.03" transform="translate(41.43 326.73)"/><rect class="a" width="130.169" height="4.201" transform="translate(46.582 354.845)"/><rect class="a" width="179.113" height="4.201" transform="translate(24.454 363.713)"/><rect class="a" width="179.113" height="4.201" transform="translate(24.454 373.045)"/><rect class="a" width="179.113" height="4.201" transform="translate(24.454 382.378)"/></g><path class="q" d="M132.68,720.1c.742-2.707,1.248-5.09,1.248-5.09a10.6,10.6,0,0,1,1.385-5.159V709.1h0l.212-5.5a18.3,18.3,0,0,0-1.248-2.932c-.923-1.765.312-8.059.312-8.059s4.011-8.777,3.337-14.472,8.5-24.845,8.5-24.845a24.628,24.628,0,0,0-.574-5.614,4.3,4.3,0,0,1-.062-1.166,1.106,1.106,0,0,1,0-.143v.044c.268-3.743,3.487-10.6,3.487-10.6l.119-13.349s-1.584-7.935,1.871-18.371c1.216-3.643,2.015-6.562,2.539-8.82.062-.256.119-.5.168-.736-6.288-1.21-11.091-2.2-11.091-2.2s4.26-15.208,6.862-17.8,4.884-10.96,4.884-10.96,1.709-10.792-.25-14.035-2.046-8.733-2.046-8.733-4.629-3.637-5.165-5.19a25.447,25.447,0,0,1-1.322-6.862c.069-1.809.73-3.431.568-4.4s1.566-4.547.836-6.306a4.828,4.828,0,0,1-.25-1.678v-.05h0a23.342,23.342,0,0,1,.593-4.485,12.726,12.726,0,0,1,4.8-2.333l.119-.412.312-1.067a5.207,5.207,0,0,1,.474-.262l.031-.393.1-1.553-.6-3.543c-1.248-6.151,6.937-6.743,6.937-6.743a4.285,4.285,0,0,1,2.377-1.934c1.659-.512-.075,9.176-.867,9.768-.624.443-2.5,3.431-3.4,4.9h0l-.15.243a3.369,3.369,0,0,1,.362.405l-.393,2.1-.062.318a8.733,8.733,0,0,1,1.216,2.264,4.7,4.7,0,0,0-1.322,3.406,10.973,10.973,0,0,1-.624,4.2c.087-.094,1.179-1.185,2.214-.873s3.917,1.3,3.917,1.3,2.165.468,1.946.942,1.391,2.645,1.391,2.645l6.069-5.321c.069-.168.131-.331.193-.5a13.939,13.939,0,0,0,.624-2.414,13.037,13.037,0,0,1-1.871-.667,4.072,4.072,0,0,1-1.584-1.1,6.548,6.548,0,0,1-.842-2.564,35.941,35.941,0,0,0-1.99-4.934,15.776,15.776,0,0,1-.836-8.733,5.814,5.814,0,0,1,1-2.5c1.011-1.279,2.763-1.747,4.067-2.745s2.177-2.576,3.674-3.306a7.08,7.08,0,0,1,4.466-.212,23.867,23.867,0,0,1,8.14,3.312,4.229,4.229,0,0,0,2.745,1.023,3.786,3.786,0,0,0,2.059-1.391.463.463,0,0,1,0-.087l.069-.069a10.287,10.287,0,0,1,.736,4.416,3.3,3.3,0,0,1-.05.7v.243a1.134,1.134,0,0,0,0,.206h0a1.029,1.029,0,0,0,.037.306,2.19,2.19,0,0,0,.518.817,4.459,4.459,0,0,1,.449.667.892.892,0,0,0-.069-.243,3.481,3.481,0,0,1,.536,1.871,1.828,1.828,0,0,1-.493,1.3,5.8,5.8,0,0,1-.986.736,11.2,11.2,0,0,1-5.789,11.409c-.075.162-.15.331-.218.5a13.948,13.948,0,0,0-1.31,6.344,1.5,1.5,0,0,0,.05.468c.05.156.143.168.206.256h0s9.669.468,12.027-1.51,5.552,5.258,5.552,5.258,3.443.8,4.161.162,4.766.087,4.766.087a8.733,8.733,0,0,1,6.126-1.977,17.9,17.9,0,0,1,4.535-2.3h0l.112-.037h0a4.89,4.89,0,0,1,2.189-.193s4.909-3.743,6.375-5.807,8.346-9.631,8.346-9.669l.044-.374.119-1.135a3.818,3.818,0,0,0,.586.075l.15-.393a21.414,21.414,0,0,1,1.528-3.169s.056-1.441-.349-1.815.393-5.614.393-5.614,4.672-9.856,8.221-2.227c0,0,7.074,5.121.761,10.523,0,0-2.5,1.085-2.851,2-.249.624-1.142,2.258-1.74,3.362l-.268.493.069.062-.125.936-.05.368c1.117.692,1.871,1.366,1.666,1.871a10.606,10.606,0,0,0-.792,2.564s-8.82,10.168-10.08,14.653c0,0-23.118,12.563-30.566,13.237l1.029,6.762a53.9,53.9,0,0,1,.087,5.483c-.156,1.435.586,7.991.586,7.991s.917,9.644,1.959,11.029.624,7.136.624,7.136a48.594,48.594,0,0,0,1.173,8.209,20.976,20.976,0,0,1,0,8.165s3.437,8.777-5.358,2.576c0,0-4.416-.443-9.507-.811v.505c0,.661-.031,1.372-.05,2.121-.125,4.947-.356,11.758-.78,16.9-.749,9.1-4.217,27.029-4.217,27.029l-.349,9.057a12,12,0,0,1,.162,2.6,16.842,16.842,0,0,1-2.788,8.976l-.929,6.02s-1.778,3.917-1.9,6.294a2.832,2.832,0,0,0,.05.58,4.628,4.628,0,0,1,.044.93c0,2.745-1.921,9.245-1.921,9.245s-.356,6.618-1.36,6.961c-.861.3.986,3.861,1.535,4.884a1.015,1.015,0,0,0,.044-.187l.119.2a4.7,4.7,0,0,1,.243,1.69,2.414,2.414,0,0,1-1.191,2.283c-1.928,1.079-2.975,2-1.391,2.445a17.637,17.637,0,0,1,1.734.43l.094-.218a1.067,1.067,0,0,1,.624,1.185,4.847,4.847,0,0,1-.68,2.221,24.177,24.177,0,0,1-2.869,4.791l-.761-.112a3.806,3.806,0,0,0,.412.83,3.169,3.169,0,0,0,1.085,1.042,3.469,3.469,0,0,0,1.335.511,3.849,3.849,0,0,1,2.757,1.478c.936,1.316,1.491,3.082-.524,4.535l-7.18,2.171s-12.251,1.117-11.5-1.591,1.248-5.09,1.248-5.09a10.823,10.823,0,0,1,1.173-4.816,6.442,6.442,0,0,1,.462-.7l-.43-.062s-.711-6.082-1.884-7.261c-.262-.281-.318-.487-.25-.624-.106-.331.206-.512.624-.624a.971.971,0,0,0,.081.237,6.018,6.018,0,0,1,1.185-.081s.518-3.15-.724-4.366a1.185,1.185,0,0,1-.212-.948,4.859,4.859,0,0,1,.181-1.285.471.471,0,0,0,.044.075,47.209,47.209,0,0,1,3.119-7.323s.206-2.876-.543-4.061.7-15.632.7-15.632-.031-7.011.986-10.236-.817-7.142-.817-7.142a.992.992,0,0,1,.031-.206.256.256,0,0,0,0-.056s.062-.43.162-1.1v.069c.274-1.871.78-5.184,1.117-6.731.48-2.189.393-12.763.393-12.763l-1.616-4.554-3.475,7.648-3.743,10.23a8.8,8.8,0,0,0-1.871,4.367v.331a5.19,5.19,0,0,1,0,.692,6.188,6.188,0,0,1-1.173,3.649s-1.079,4.859-2.5,6.051a5.654,5.654,0,0,0-1.528,3.593s-1.959,7.036-2.8,8.253c-.7,1.023-.855,3.911-.88,4.8h0v.256s-.331,2.533-.405,4.666v.755a.137.137,0,0,1,0-.05,7.229,7.229,0,0,0,.137,1.728v-.256a18.146,18.146,0,0,1,.343,4.441c-.056,2.551-.561,5.558-2.177,7.273-2.795,2.969-4.46,2.5-4.46,2.5s1.142,3.886,2.695,4.716a.988.988,0,0,1,.168.112.383.383,0,0,1,.044-.218,1.871,1.871,0,0,1,.412,1.447,10.342,10.342,0,0,1-2.183,5.614,3.118,3.118,0,0,1-1.366.736,2.347,2.347,0,0,0,.243.162,4.9,4.9,0,0,0,.536.274,2.652,2.652,0,0,0,.8.243,3.792,3.792,0,0,1,2.757,1.478c.936,1.31,1.491,3.075-.524,4.529l-7.18,2.171S131.925,722.808,132.68,720.1Z" transform="translate(-67.638 -195.749)"/><path class="r" d="M200.326,861.08l6.955-2.177c1.952-1.46,1.416-3.225.512-4.541a3.643,3.643,0,0,0-2.664-1.466,3.256,3.256,0,0,1-1.3-.518,3.118,3.118,0,0,1-1.042-1.035,5.115,5.115,0,0,1-.68-2.682s-7.448-2.5-9.594-.368a5.614,5.614,0,0,0-.954,1.3,11.229,11.229,0,0,0-1.148,4.816s-.474,2.377-1.2,5.09S200.326,861.08,200.326,861.08Z" transform="translate(-88.906 -330.41)"/><path class="r" d="M146.709,853.575l6.955-2.177c1.952-1.46,1.416-3.225.512-4.535a3.643,3.643,0,0,0-2.67-1.472,2.453,2.453,0,0,1-.773-.237,4.9,4.9,0,0,1-.518-.281c-1.871-1.129-1.728-3.743-1.728-3.743s-7.448-2.5-9.594-.368a5.512,5.512,0,0,0-.761.948,10.885,10.885,0,0,0-1.347,5.171s-.48,2.383-1.2,5.09S146.709,853.575,146.709,853.575Z" transform="translate(-68.73 -327.577)"/><path class="k" d="M193.948,848.291a5.615,5.615,0,0,0-.948,1.3h0l11.228,1.74a5.115,5.115,0,0,1-.68-2.682S196.119,846.164,193.948,848.291Z" transform="translate(-90.343 -330.409)"/><path class="k" d="M139.641,841.735l-.081,2.115c1.647,2.963,10.161,2.657,12.682,1.3a4.9,4.9,0,0,1-.518-.281c-1.871-1.129-1.728-3.743-1.728-3.743s-7.448-2.5-9.594-.368A5.517,5.517,0,0,0,139.641,841.735Z" transform="translate(-70.239 -327.577)"/><path class="s" d="M137.9,760.893a19.375,19.375,0,0,1,1.248,2.932l-.306,7.573c1.8,3.244,11.815,2.57,13.224.9s3.019-6.132,1.516-6.955-2.607-4.716-2.607-4.716,1.616.449,4.329-2.5,2.2-9.812,1.778-11.459.281-7.1.281-7.1.05-3.843.867-5.059,2.72-8.253,2.72-8.253a5.631,5.631,0,0,1,1.478-3.593c1.391-1.191,2.445-6.057,2.445-6.057a6.275,6.275,0,0,0,1.117-4.086c-.193-2.408,1.821-4.928,1.821-4.928l3.662-10.23,3.368-7.654,1.553,4.572s.075,10.573-.393,12.763-1.248,8.022-1.248,8.022,1.772,3.911.786,7.142-.973,10.236-.973,10.236-1.422,14.453-.7,15.632.518,4.055.518,4.055-4.254,8.29-3.057,9.494.7,4.366.7,4.366-2.682-.106-1.578,1.092,1.7,7.23,1.7,7.23l11.546,1.79a24.432,24.432,0,0,0,2.782-4.8c1.672-3.487-.162-3.175-1.69-3.618s-.518-1.366,1.347-2.445.911-3.712.911-3.712-2.6-4.809-1.622-5.152,1.322-6.961,1.322-6.961,2.221-7.8,1.821-9.924,1.815-7.136,1.815-7.136l.9-6.013a16.611,16.611,0,0,0,2.551-11.334l.362-9.307s3.393-17.9,4.154-27.029c.474-5.826.711-13.792.817-18.764.062-2.795.087-4.641.087-4.641l-41.276-5.913a34.066,34.066,0,0,1-.992,6.126,91.107,91.107,0,0,1-2.5,8.827c-3.381,10.436-1.871,18.371-1.871,18.371l-.131,13.349s-3.992,8.783-3.337,11.883a25.351,25.351,0,0,1,.549,5.614s-8.883,19.138-8.234,24.808-3.25,14.478-3.25,14.478S137.009,759.128,137.9,760.893Z" transform="translate(-69.491 -255.892)"/><path class="t" d="M171.6,748.183,159.05,746S165.918,753.585,171.6,748.183Z" transform="translate(-77.571 -292.249)"/><path class="k" d="M162.206,726.39s-.624,4.441,2.065,6.238C164.245,732.615,159.411,731.661,162.206,726.39Z" transform="translate(-78.431 -284.872)"/><path class="k" d="M164.85,703.67s10.211,9.089,14.073,8.521S164.85,703.67,164.85,703.67Z" transform="translate(-79.753 -276.324)"/><path class="k" d="M204,757s7.941,2.133,8.059,5.352S204,757,204,757Z" transform="translate(-94.482 -296.388)"/><path class="t" d="M197.439,821s11.228,2.545,7.972,3.861a54.369,54.369,0,0,1-8.59,2.264S193.166,827.188,197.439,821Z" transform="translate(-91.234 -320.465)"/><g class="u" transform="translate(68.089 399.07)"><path d="M213.731,830.037a2.246,2.246,0,0,0,1.1-1.6l.106.206s.961,2.626-.911,3.743c-.212.119-.412.243-.624.362-.331-.075-.692-.137-1.035-.237C210.843,832.045,211.859,831.122,213.731,830.037Z" transform="translate(-165.44 -722.334)"/><path d="M191.534,827.687c-.3-.3-.256-1.035,0-1.977a5.358,5.358,0,0,1,.536,2.807,2.183,2.183,0,0,0-.536-.83Z" transform="translate(-157.802 -721.307)"/><path d="M197.3,752.48a13.05,13.05,0,0,1,.624,3.562,13.605,13.605,0,0,0-.786-2.458S197.209,753.154,197.3,752.48Z" transform="translate(-159.99 -693.757)"/><path d="M156.125,742.174a4.579,4.579,0,0,1-.069-1.054c.119.724.193,1.391.237,1.977C156.244,742.8,156.187,742.492,156.125,742.174Z" transform="translate(-144.531 -689.483)"/><path d="M195.6,805.88a6.356,6.356,0,0,1-.2-2.14,7.217,7.217,0,0,1,.449,2.707,2.638,2.638,0,0,0-.25-.568Z" transform="translate(-159.328 -713.042)"/><path d="M190.436,836a37.677,37.677,0,0,1,1.092,5.945l11.546,1.79a24.179,24.179,0,0,0,2.788-4.8c.15-.306.262-.58.362-.83.68.343.929,1.079-.069,3.15a24.472,24.472,0,0,1-2.782,4.791L191.8,844.271s-.624-6.076-1.74-7.267C189.544,836.412,189.931,836.143,190.436,836Z" transform="translate(-157.235 -725.178)"/><path d="M215.335,752.538s-.349,6.618-1.322,6.961h0c-.443-1.117-.73-2.164-.293-2.32.973-.349,1.329-6.961,1.329-6.961s2.221-7.791,1.821-9.924,1.809-7.13,1.809-7.13l.9-6.02a16.611,16.611,0,0,0,2.551-11.334l.356-9.307s3.381-17.928,4.117-27.029c.468-5.826.7-13.792.817-18.763,0-.9.037-1.7.05-2.37l.331.05s0,1.871-.087,4.635c-.106,4.99-.343,12.944-.817,18.77-.736,9.095-4.111,27.029-4.111,27.029l-.362,9.3a16.63,16.63,0,0,1-2.545,11.334l-.911,6.019s-2.214,4.99-1.815,7.136S215.335,752.538,215.335,752.538Z" transform="translate(-166.145 -658.34)"/><path d="M152.551,839.605a11.228,11.228,0,0,0,2.009-4.485c1.142,1.11-.374,5.209-1.715,6.8s-11.428,2.345-13.224-.892l.069-1.828C142.184,841.869,151.216,841.189,152.551,839.605Z" transform="translate(-138.35 -724.847)"/><path d="M137.619,823.955a19.382,19.382,0,0,1,1.248,2.932l-.056,1.341a20.955,20.955,0,0,0-.886-1.959,5.782,5.782,0,0,1-.324-2.389Z" transform="translate(-137.584 -720.618)"/><path d="M159.481,818.885a18.755,18.755,0,0,1-.861-2.314s1.616.443,4.323-2.526c1.971-2.164,2.239-6.375,2.077-9.145.424,1.653.929,8.49-1.778,11.459C161.458,818.305,160.155,818.785,159.481,818.885Z" transform="translate(-145.498 -713.478)"/><path d="M168.883,762.053a51.3,51.3,0,0,0-.412,5.683,8.111,8.111,0,0,0-.162-.9c-.418-1.653.274-7.1.274-7.1s.056-3.843.867-5.059,2.72-8.253,2.72-8.253a5.664,5.664,0,0,1,1.485-3.593c1.391-1.2,2.445-6.057,2.445-6.057a6.313,6.313,0,0,0,1.117-4.086c-.193-2.408,1.821-4.928,1.821-4.928l3.662-10.23,3.368-7.654,1.553,4.579v1.46l-1.248-3.743-3.368,7.648-3.662,10.236s-2.015,2.5-1.821,4.928a6.275,6.275,0,0,1-1.117,4.086s-1.054,4.859-2.445,6.051a5.631,5.631,0,0,0-1.478,3.593s-1.909,7.036-2.72,8.259S168.883,762.053,168.883,762.053Z" transform="translate(-149.093 -677.73)"/></g><path class="v" d="M167.208,504.855l.586,3.531-.1,1.559-.075,1.148,3.986.568.48-.811h0a36.509,36.509,0,0,1,3.3-4.9c.761-.593,2.458-10.28.848-9.768a4.21,4.21,0,0,0-2.308,1.934S166.029,498.711,167.208,504.855Z" transform="translate(-80.595 -198.256)"/><path class="k" d="M167.94,519.171l3.986.568.48-.811h0a3.537,3.537,0,0,0-4.367-.9Z" transform="translate(-80.916 -206.334)"/><path class="w" d="M166.2,521.259l5.234,1.428.137-.786.381-2.1a3.637,3.637,0,0,0-5.084-.892l-.3,1.067Z" transform="translate(-80.261 -206.563)"/><path class="v" d="M303.74,506l5.514,3.244s.231-.443.555-1.048c.58-1.1,1.441-2.763,1.684-3.362.368-.917,2.763-2.009,2.763-2.009,6.119-5.408-.724-10.517-.724-10.517-3.431-7.629-7.96,2.233-7.96,2.233s-.78,5.259-.387,5.614.337,1.815.337,1.815a21.208,21.208,0,0,0-1.485,3.169C303.846,505.653,303.74,506,303.74,506Z" transform="translate(-132.005 -195.716)"/><path class="k" d="M303.74,515.5l5.514,3.244s.231-.443.555-1.048c-.773-.692-3.506-3.119-4.435-3.019a6.7,6.7,0,0,1-1.335,0C303.846,515.159,303.74,515.5,303.74,515.5Z" transform="translate(-132.005 -205.222)"/><path class="w" d="M302.71,517.338l6.238,3.362.175-1.36.125-.936s-3.543-3.281-4.629-3.206a5.887,5.887,0,0,1-1.659-.069l-.112,1.135Z" transform="translate(-131.618 -205.393)"/><path class="v" d="M190.45,535.561s27.49,4.179,22.394,2.308c-3.549-1.31-4.89-3.649-5.09-6.194a14.485,14.485,0,0,1,1.248-6.35,27.836,27.836,0,0,1,2.664-4.891s-20.66-12.42-16.842-1.7a16.929,16.929,0,0,1,1,5.046,14.223,14.223,0,0,1-.736,5.04,15.1,15.1,0,0,1-4.641,6.743Z" transform="translate(-89.384 -205.108)"/><path class="k" d="M197.216,518.731a16.929,16.929,0,0,1,1,5.047c1.921,1.74,4.1,1.715,6.905,1.821,2.152.087,4.51.7,6.238-.274a27.832,27.832,0,0,1,2.664-4.891S193.4,508.015,197.216,518.731Z" transform="translate(-91.752 -205.108)"/><circle class="v" cx="11.422" cy="11.422" r="11.422" transform="translate(102.738 298.403)"/><path class="k" d="M190.45,543.647s27.49,4.179,22.394,2.308c-3.549-1.31-4.89-3.649-5.09-6.194-1.316-1.541-4.036-2.72-5.789-3.362a8.315,8.315,0,0,0-4.99-.274,6.86,6.86,0,0,0-1.871.78,15.1,15.1,0,0,1-4.653,6.743Z" transform="translate(-89.384 -213.193)"/><path class="k" d="M166.2,522.222l5.234,1.428.137-.786a4.66,4.66,0,0,0-4.99-1.928Z" transform="translate(-80.261 -207.526)"/><path class="k" d="M302.71,518.042l6.238,3.362.175-1.36a47.233,47.233,0,0,0-6.3-3.044Z" transform="translate(-131.618 -206.096)"/><path class="k" d="M168.65,655.486c10.6,2.1,25.762,4.884,28.2,4.242,2.027-.53,8.421-.218,13.979.187.062-2.795.087-4.641.087-4.641l-41.276-5.913A34.065,34.065,0,0,1,168.65,655.486Z" transform="translate(-81.183 -255.892)"/><path class="x" d="M151.72,602.981s34.969,7.4,38.793,6.394,23.174.986,23.174.986c8.5,6.188,5.19-2.583,5.19-2.583a21.111,21.111,0,0,0,0-8.165,49.906,49.906,0,0,1-1.129-8.209s.418-5.751-.586-7.13-1.871-11.029-1.871-11.029-.7-6.556-.555-7.991-.075-5.483-.075-5.483l-.992-6.762c7.23-.68,29.617-13.268,29.617-13.268,1.248-4.466,9.787-14.709,9.787-14.709a11.08,11.08,0,0,1,.774-2.564c.624-1.51-7.878-4.909-7.878-4.909s-6.743,7.616-8.14,9.675-6.182,5.814-6.182,5.814a4.685,4.685,0,0,0-2.121.193h-.112a17.136,17.136,0,0,0-4.367,2.3,8.359,8.359,0,0,0-5.938,1.977s-3.911-.724-4.6-.081-4.03-.156-4.03-.156-3.119-7.223-5.371-5.246-11.646,1.522-11.646,1.522c-1.179-1.709-4.173-3.013-6.044-3.7a8.265,8.265,0,0,0-4.99-.275,6.485,6.485,0,0,0-2.015.88l-5.889,5.34s-1.553-2.171-1.341-2.645-1.871-.936-1.871-.936-2.751-.973-3.793-1.3-2.058.773-2.146.873a11.09,11.09,0,0,0,.624-4.2,4.822,4.822,0,0,1,1.279-3.412c-3.038-8.377-10.879-1.759-10.879-1.759s-1.042,4.473-.337,6.238-.973,5.34-.823,6.306-.48,2.576-.549,4.4a27.06,27.06,0,0,0,1.248,6.862c.493,1.547,4.99,5.19,4.99,5.19s.081,5.477,1.971,8.733.231,14.035.231,14.035-2.246,8.365-4.747,10.96S151.72,602.981,151.72,602.981Z" transform="translate(-74.813 -206.307)"/><path class="k" d="M237.779,553.03s1.179-3.119,2.146-3.375a22.1,22.1,0,0,0,2.832-1.141l-.574-1.2s-3.643.855-4.254,1.871S237.779,553.03,237.779,553.03Z" transform="translate(-107.127 -217.499)"/><path class="k" d="M269.22,545.039c.156.967,8.658,2.158,8.658,2.158l-4.148-4.5h-.106A17.135,17.135,0,0,0,269.22,545.039Z" transform="translate(-119.018 -215.765)"/><circle class="s" cx="0.767" cy="0.767" r="0.767" transform="translate(174.642 316.287)"/><circle class="s" cx="0.767" cy="0.767" r="0.767" transform="translate(173.6 317.784)"/><circle class="s" cx="0.767" cy="0.767" r="0.767" transform="translate(172.583 319.163)"/><circle class="s" cx="0.767" cy="0.767" r="0.767" transform="translate(171.523 320.66)"/><circle class="s" cx="0.624" cy="0.624" r="0.624" transform="translate(81.248 317.241)"/><circle class="s" cx="0.624" cy="0.624" r="0.624" transform="translate(81.098 318.651)"/><circle class="s" cx="0.624" cy="0.624" r="0.624" transform="translate(80.955 320.061)"/><path class="k" d="M212.822,598.15c.094-.106-22.581,26.367-38.762,9.943C174.06,608.093,200.446,612.709,212.822,598.15Z" transform="translate(-83.218 -236.626)"/><path class="k" d="M246.433,621.68s-12.956-.143-14.453,3.524l-.15,3.874a2.5,2.5,0,0,0,2.408.094c1.335-.655,9.307-4.329,12-2.308Z" transform="translate(-104.952 -245.478)"/><path class="x" d="M246.43,621.66s-12.382-.137-13.817,3.362l-.143,3.693a2.37,2.37,0,0,0,2.3.087c1.248-.624,8.9-4.123,11.471-2.2Z" transform="translate(-105.193 -245.47)"/><path class="k" d="M237.5,576.2a42.041,42.041,0,0,1-5.346,8.415A33.728,33.728,0,0,1,224,591.9S237.218,577.947,237.5,576.2Z" transform="translate(-102.006 -228.368)"/><path class="k" d="M248.413,552.36s-2.5,9.238-8.2,12.189Z" transform="translate(-108.104 -219.399)"/><path class="k" d="M254.016,554.068c.062-.168,1.634,7.448-7.616,11.272C246.4,565.34,250.311,564.174,254.016,554.068Z" transform="translate(-110.433 -220.041)"/><path class="k" d="M164.857,540.561c.143,0-4.6,2.776-5.907,4.092C158.981,544.653,162.131,540.262,164.857,540.561Z" transform="translate(-77.533 -214.955)"/><path class="r" d="M205.1,516.361a2.451,2.451,0,0,1-.954,1.509,2.352,2.352,0,0,1-1.085.193c-3.487.087-7.117.1-10.28-1.366a3.88,3.88,0,0,1-1.528-1.1,6.292,6.292,0,0,1-.817-2.564,37.107,37.107,0,0,0-1.921-4.928,16.218,16.218,0,0,1-.792-8.733,5.844,5.844,0,0,1,.967-2.5c.973-1.279,2.676-1.747,3.936-2.751s2.108-2.576,3.568-3.312a6.586,6.586,0,0,1,4.317-.212,22.656,22.656,0,0,1,7.922,3.325,3.986,3.986,0,0,0,2.651,1.017,3.692,3.692,0,0,0,2.034-1.435,10.6,10.6,0,0,1,.661,4.99,2.151,2.151,0,0,0,0,.749,2.277,2.277,0,0,0,.5.817c.817,1.029,1.3,2.626.412,3.6-.387.424-.967.624-1.341,1.079-.674.773-.505,1.934-.53,2.963a1.559,1.559,0,0,1-.287,1,1.491,1.491,0,0,1-1.422.281,3.88,3.88,0,0,0-1.5-.2,2.5,2.5,0,0,0-1.341.948C206.583,511.7,205.885,513.928,205.1,516.361Z" transform="translate(-88.257 -196.07)"/><g class="y" transform="translate(102.551 297.261)"><path d="M192.936,520.8a3.831,3.831,0,0,0,1.528,1.1c3.163,1.466,6.793,1.447,10.28,1.366a2.277,2.277,0,0,0,1.085-.2,2.421,2.421,0,0,0,.954-1.5,17.738,17.738,0,0,1,3.169-6.643,2.5,2.5,0,0,1,1.341-.954,4,4,0,0,1,1.5.2,1.472,1.472,0,0,0,1.422-.281,1.535,1.535,0,0,0,.287-1c0-1.029-.143-2.189.53-2.969.374-.43.954-.624,1.341-1.073a2.258,2.258,0,0,0,.306-2.283,2.613,2.613,0,0,1,.044,3.063c-.387.424-.961.624-1.341,1.079-.674.773-.5,1.934-.524,2.963a1.528,1.528,0,0,1-.293,1,1.485,1.485,0,0,1-1.422.281,3.849,3.849,0,0,0-1.491-.2,2.5,2.5,0,0,0-1.347.954,17.9,17.9,0,0,0-3.169,6.637,1.8,1.8,0,0,1-2.034,1.709c-3.487.081-7.117.094-10.286-1.372a3.906,3.906,0,0,1-1.528-1.1,3,3,0,0,1-.455-.942A1.155,1.155,0,0,0,192.936,520.8Z" transform="translate(-192.83 -499.434)"/><path d="M229.2,500.725a1.541,1.541,0,0,1-.324-.624,2.153,2.153,0,0,1,0-.749,10.635,10.635,0,0,0-.374-4.154l.062-.069a10.523,10.523,0,0,1,.667,4.99,3.386,3.386,0,0,0-.031.605Z" transform="translate(-206.25 -495.13)"/></g><path class="k" d="M209.212,542.755s-14.347,1.341-15.532-.855" transform="translate(-90.599 -215.464)"/><path class="k" d="M168.611,532.095s-7.928-.293-9.781,2.607" transform="translate(-77.488 -211.772)"/></g><g transform="translate(-24 -8)"><ellipse class="m" cx="62.447" cy="15.426" rx="62.447" ry="15.426" transform="translate(576.154 504.826)"/><path class="n" d="M978.65,592.038s2.14-11.228,9.007-11.228l5.028,10.336-3.35,2.308S982.056,593.654,978.65,592.038Z" transform="translate(-385.916 -230.103)"/><path class="k" d="M992.685,591.1l-3.35,2.308a39.662,39.662,0,0,1-8.783-.736,10.124,10.124,0,0,1-1.9-.624l.037-.181v-.037a24.952,24.952,0,0,1,1.3-4.117c.212-.505.449-1.023.711-1.541a10.445,10.445,0,0,1,4.367-4.772,5.92,5.92,0,0,1,2.289-.624h.306l.112.231,1.7,3.493Z" transform="translate(-385.916 -230.091)"/><path class="n" d="M1089.438,652.614s7.217-.692,7.854-.168,4.734,3.175,7.155,1.5.811-7.485.811-7.735-.231-8.49-.231-8.49l-4.329-5.832-5.427-10.218-11.091-1.1.287,16.218-.056,8.315Z" transform="translate(-425.617 -245.061)"/><path class="k" d="M1089.438,652.614s7.217-.692,7.854-.168,4.734,3.175,7.155,1.5.811-7.485.811-7.735-.231-8.49-.231-8.49l-4.329-5.832-5.427-10.218-11.091-1.1.287,16.218-.056,8.315Z" transform="translate(-425.617 -245.061)"/><path class="z" d="M980.838,573.888s-.58,7.043-4.99,7.161c0,0-1.248-.749-2.919-2-3.855-2.888-9.981-8.434-8.284-13.592,2.427-7.392,14.2,6.238,14.2,6.238l.911,1.017Z" transform="translate(-380.537 -223.499)"/><path class="k" d="M985.784,579.574s-.58,7.043-4.99,7.161c0,0-1.248-.749-2.919-2l-.374-.48a5.745,5.745,0,0,0,2.408.624,3.25,3.25,0,0,0,3.119-1.977,24.956,24.956,0,0,0,1.247-2.8,8.723,8.723,0,0,0,.443-1.728Z" transform="translate(-385.483 -229.185)"/><path class="aa" d="M984.1,591.995l-.986-1.248-3.325-4.279-1.69-2.189a5.7,5.7,0,0,0,2.4.624,3.231,3.231,0,0,0,3.119-1.977,24.452,24.452,0,0,0,1.216-2.794c.549-1.56.536-2.358.343-2.632a15.415,15.415,0,0,1,1.909,1.7h0l.318.3.119.237,1.74,3.368a.907.907,0,0,1,0,.143C989.391,584.3,989.952,591.034,984.1,591.995Z" transform="translate(-385.709 -228.843)"/><path class="ab" d="M1023.795,833.409s-4.853,3.181-7.28,2.714a8.733,8.733,0,0,0-4.909.811,14.572,14.572,0,0,1-6.119,3.986c-3.93,1.329-9.413.8-12.532-.231-1.472-.493-1.591-1.129-.88-1.909a26.627,26.627,0,0,1,4.691-3.175,45.347,45.347,0,0,0,8.259-7.042,2.5,2.5,0,0,1,.749-1.678,8.616,8.616,0,0,0,1.167-1.248c.624-.73,1.2-1.5,1.2-1.5l14.291.536s.243,1.029.437,2.083a7.532,7.532,0,0,1,.2,2.077,1.871,1.871,0,0,0,.406,1.441l.256,2.358Z" transform="translate(-390.807 -321.647)"/><path class="ab" d="M1082.26,838.1c-.168.692-.38,1.927-.474,2.5a1.055,1.055,0,0,1-.044.318s-1.154,2.539-7.567,3.462-6.406-2.133-6.406-2.133l.062-.83c.112-1.347.343-3.936.511-4.485a20.5,20.5,0,0,0-.168-4.042l-.069-3.443-.05-2.389,10.6-1.1a20.444,20.444,0,0,0,.343,2.364,3.037,3.037,0,0,0,.468,1.248c.574.624.923,3.462.923,3.462S1082.51,837.172,1082.26,838.1Z" transform="translate(-419.444 -322.327)"/><path class="k" d="M1031.621,824.718s.243,1.029.437,2.083c-1.541.281-8.278,1.447-9.981.624a26.429,26.429,0,0,0-6.007-1.441l.069-.237c.624-.73,1.2-1.5,1.2-1.5Z" transform="translate(-399.993 -321.688)"/><path class="k" d="M1079.226,828.344c-2.689-.455-8.6.624-10.916,1.123l-.05-2.389,10.6-1.1A20.441,20.441,0,0,0,1079.226,828.344Z" transform="translate(-419.628 -322.339)"/><path class="ac" d="M1064.957,668.3l-.225,8.109s.287,12.413-.58,14.347-.867,9.875-.867,9.875.58,3.743-.056,4.56-.175,3.811.287,5.371.056,5.427.056,5.427l-.112,21.833s-.624,5.658-1.447,6.469a1.9,1.9,0,0,0-.462,1.871,19.456,19.456,0,0,0-.518,3.811,1.916,1.916,0,0,1-.8,2.539c-1.322.636-.986,2.657-.986,2.657-3.175-.755-12.182,1.248-12.182,1.248a55.236,55.236,0,0,1-2.545-6.182,3.2,3.2,0,0,1,2.314-4.217c1.21-.168-.867-2.308-.867-2.308s.231-.287-.349-2.37.119-7.392.293-8.777,1.035-8.109,1.035-8.109-.462-8.49-.112-8.833,1.5-3.7.923-4.791-1.5-8.315-1.5-8.733-.749-9.762-.749-9.762a77.827,77.827,0,0,1-.518-7.91,50.963,50.963,0,0,0-.468-6.525c0-4.273-2.5-8.9-2.5-8.9l-.062.168-5.365,14.2s-.867,4.273-1.616,6.7a44,44,0,0,0-1.129,4.99l-.05.312-.05.324-.037.231h0s.4,3.057-.237,4.042a14.416,14.416,0,0,0-1.322,4.735c0,.811.056,3.93.056,3.93s.231,6.175-.405,6.862a1.079,1.079,0,0,0-.287,1.248s1.036,4.678.574,5.889a12.172,12.172,0,0,0-.112,4.042s-.923,8.951-1.042,9.413-.749,4.042-.056,4.329a9.244,9.244,0,0,1,2.021,2.021s.287,7.567-.749,8.14-.468,3.524-.468,3.524-8.371,1.616-10.274.692a26.355,26.355,0,0,0-6.007-1.441l.574-1.871c-.037.069-.418.686-.686-1.678-.293-2.5,2.133-1.248,2.133-1.248s1.909.462-1.154-2.539-1.559-6.063-1.385-6.063a38.725,38.725,0,0,0,.574-4.448,14.706,14.706,0,0,0,.119-4.735c-.406-2.077-.749-8.546-.749-8.546s.287-4.909-.237-6.7.349-4.99.524-5.776-.524-7.623-.524-7.623a21.378,21.378,0,0,0,.237-5.614c-.349-2.37.343-11.091.343-11.091l1.042-10.043a20.756,20.756,0,0,0,.624-4.367,35.025,35.025,0,0,1,.867-5.714,6.336,6.336,0,0,1,.462-2.776c.58-1.154.811-4.99.811-4.99l5.546-12.7,2.713-11.228,36.666-.349s.131.973.355,2.738.536,4.367.886,7.6c.318,2.932.667,6.381,1.01,10.218C1067.271,666.109,1064.957,668.3,1064.957,668.3Z" transform="translate(-399.351 -249.835)"/><path class="ad" d="M1078.251,521.677l-8.54,9.138s-10.966-4.366-9.812-5.895c.443-.58.374-2.414.118-4.435-.406-3.2-1.248-6.862-1.248-6.862s19.169-3.119,17.547.112a5.314,5.314,0,0,0-.118,3.836,14.527,14.527,0,0,0,2.052,4.1Z" transform="translate(-416.058 -204.317)"/><path class="k" d="M1072.483,645.9c-1.822,0-7.885.062-14.659.175h-.081l-2.24.037h-.069c-8.034.125-15.95-1.441-19.132-1.148-6.755.624,2.427-6.238,2.427-6.238a56.657,56.657,0,0,0,15.389,1.553l1.946-.1c6.138-.349,12.307-.923,15.532-1.871C1071.822,640.082,1072.134,642.677,1072.483,645.9Z" transform="translate(-406.672 -251.735)"/><path class="ae" d="M1072.483,645.345c-1.822,0-7.885.069-14.659.175h-.081l-2.24.037h-.069c-8.034.131-15.95-1.441-19.132-1.142-6.755.624,2.427-6.238,2.427-6.238a56.372,56.372,0,0,0,15.389,1.553l1.946-.1c6.138-.343,12.307-.923,15.532-1.871C1071.822,639.525,1072.134,642.12,1072.483,645.345Z" transform="translate(-406.672 -251.528)"/><path class="k" d="M1053.307,532.23l-10.6,4.99-8.2,63.4s4.853-2.2,7.623-.811,11.315.119,11.315.119,6.238-.349,7.161.349,11.783-2.888,11.783-2.888,1.965-4.367.462-5.084.462-7.485.462-7.485l-.923-45.736-1.871-5.889-4.99-3.007-5.078,4.042-2.427.349Z" transform="translate(-406.927 -211.059)"/><path class="af" d="M1053.3,531.124l-10.6,4.99-8.222,63.408s4.853-2.2,7.623-.811,11.315.119,11.315.119,6.238-.349,7.161.343,11.783-2.882,11.783-2.882,1.965-4.367.462-5.084.462-7.485.462-7.485l-.923-45.736-1.871-5.889-4.99-3.007-5.078,4.042-2.427.349Z" transform="translate(-406.916 -210.645)"/><path class="k" d="M1044.543,526.738s-1.036-.518-2.021.986a6.519,6.519,0,0,1-2.826,2.189s-10.511,1.678-10.917,3.063l-4.909.287s-1.734.231-1.871,3.874-1.1,3.98-1.1,3.98-2.021,3.581-1.871,5.427a3.038,3.038,0,0,1-1.559,2.776l7.217,18.763s.231,7.741-1.1,10.567-3.811,15.364-3.811,15.364,1.042-.231.979.462-1.248,8.259-1.248,8.259a16.813,16.813,0,0,1-.923,4.042c-.574,1.042-.624,6.462-.624,6.462l-.923,3.93s2.189,4.909,5.539,4.217,9.407-13.8,9.407-13.8l3.867-14.147,3.007-13.973.867-9.469,1.385-20.965,2.021-13.854S1045.354,527.724,1044.543,526.738Z" transform="translate(-400.358 -209.728)"/><path class="n" d="M1043.989,525.628s-1.042-.518-2.021.986a6.556,6.556,0,0,1-2.832,2.189s-10.511,1.678-10.916,3.063l-4.9.287s-1.734.231-1.909,3.867-1.1,3.986-1.1,3.986-2.021,3.581-1.871,5.427a3.026,3.026,0,0,1-1.56,2.776L1024.121,567s.231,7.741-1.1,10.567-3.811,15.364-3.811,15.364,1.042-.231.986.462-1.248,8.253-1.248,8.253a16.45,16.45,0,0,1-.923,4.042c-.58,1.035-.624,6.469-.624,6.469l-.923,3.93s2.2,4.909,5.545,4.211,9.413-13.8,9.413-13.8l3.867-14.148,3-13.973.83-9.506,1.385-20.965,2.021-13.854S1044.794,526.614,1043.989,525.628Z" transform="translate(-400.148 -209.31)"/><path class="k" d="M992.478,590.9l-3.35,2.308a39.665,39.665,0,0,1-8.783-.736l-1.871-.83-.374-.162.387.125a7.647,7.647,0,0,0,4.622.162c4.741-1.6,4.217-9.419,4.03-11.191a1.637,1.637,0,0,0-.037-.337h0v.044a3.119,3.119,0,0,0,.218.306l.212.225h0l1.734,3.331a.908.908,0,0,1,0,.143Z" transform="translate(-385.709 -229.888)"/><path class="n" d="M1004.28,561.14l-1.616.462-.231,3.287a2.236,2.236,0,0,0-2.427,1.965,7.929,7.929,0,0,1-1.441,3.294s-3.175,2.657-3.35,4.909l-1.965,1.21s-4.56-1.042-5.614-2.888c0,0,2.083,14.9-9.007,11.228,0,0,12.413,5.427,12.993,6.182a7.258,7.258,0,0,0,7.854,1.1,8.236,8.236,0,0,0,4.217-4.678s3.35-4.678,3.462-5.371,2.713-1.5,2.713-1.5l4.99-12.008Z" transform="translate(-385.908 -222.702)"/><path class="k" d="M1084.052,530.343l1.672-7.623s.755,2.5,1.5,3.063l2.5,1.871a14.648,14.648,0,0,0,3.35,1.154c.855,0,5.546,1.248,6.119,1.871s2.888.175,2.888.175,1.9.624,3.581,1.042,2.5,3.175,2.133,4.273a3.337,3.337,0,0,0,.811,3.119c.692.692,1.042,2.944,1.042,2.944a3.382,3.382,0,0,1,1.959,1.672,11.548,11.548,0,0,1,.405,4.042l-8.6,12.126a35.676,35.676,0,0,1-.231,5.72c-.343,1.042,1.21,18.714,1.21,18.714l1.79,30.372a31.513,31.513,0,0,1-2.888,2.252c-.518.231-1.036-10.742-1.036-11.141s-13.343-19.961-13.343-19.961-1.79-2.888-1.79-3.524-1.672-6.469-1.672-6.469l-2.539-11.228Z" transform="translate(-425.14 -208.248)"/><path class="n" d="M1113.128,547.295v.661l-8.6,12.114h0s.119,4.678-.231,5.72c-.2.624.237,6.818.624,11.921.293,3.68.561,6.787.561,6.787l.761,12.881,1.029,17.466a31.484,31.484,0,0,1-2.888,2.252c-.518.231-1.036-10.742-1.036-11.147s-13.343-19.961-13.343-19.961-1.79-2.888-1.79-3.524-1.672-6.469-1.672-6.469l-2.539-11.228,1.154-34.414.979-7.623a16.362,16.362,0,0,0,2.2,3.057l2.5,1.909a14.647,14.647,0,0,0,3.35,1.154c.854,0,5.545,1.248,6.119,1.871s2.888.175,2.888.175,1.909.624,3.581,1.042,2.5,3.175,2.133,4.273a3.343,3.343,0,0,0,.811,3.119c.692.692,1.042,2.944,1.042,2.944a3.381,3.381,0,0,1,1.959,1.672,9.359,9.359,0,0,1,.412,3.35Z" transform="translate(-425.553 -208.252)"/><g transform="translate(108.655 186.159)"><path class="ag" d="M440.323,57.57h0a12.183,12.183,0,0,1,12.183,12.183v5.2H428.14v-5.2A12.183,12.183,0,0,1,440.323,57.57Z" transform="translate(102.685 39.257)"/><ellipse class="ag" cx="13.887" cy="9.542" rx="13.887" ry="9.542" transform="translate(529.206 106.369)"/><path class="z" d="M604.7,199.382a11.587,11.587,0,1,1-23.173.281c0-.094,0-.187,0-.281a11.584,11.584,0,0,1,13.531-11.425h0a11.578,11.578,0,0,1,9.61,10.656Q604.7,199,604.7,199.382Z" transform="translate(-50.066 -79.083)"/><path class="ah" d="M573.33,188.818s11.93-14.832,25.732,0l-1.193-3.323s-6.476-9.457-11.075-7.416-9.117,3.494-9.117,3.494Z" transform="translate(-43.187 -70.691)"/><path class="s" d="M4456.061,1000.09c.5,9.877,1.027,12.891,2.377,16.3s3.446,6.867,5.714,7.9a8.7,8.7,0,0,0,6.5.528c2.38-.662,4.949-3.114,6.962-8.423s2.013-17.9,2.013-17.9-3.525,11.27-5.395,11.257-1.343-1.979-3.581-2.638a8.51,8.51,0,0,0-5.368,0c-2.139.5-1.985,2.127-3.187,1.993S4456.061,1000.09,4456.061,1000.09Z" transform="translate(-3924.748 -879.924)"/></g><path class="k" d="M1017.53,808.76c.287,0,12.413.462,12.183,2.427S1017.53,808.76,1017.53,808.76Z" transform="translate(-400.543 -315.86)"/><path class="k" d="M1021.88,814s8.14,1.329,6.007,2.539S1021.88,814,1021.88,814Z" transform="translate(-402.179 -317.832)"/><path class="k" d="M1070.39,806.73s13.511,1.154,11.49,2.651-6.812,1.734-7.043,1.79S1070.39,806.73,1070.39,806.73Z" transform="translate(-420.429 -315.097)"/><path class="k" d="M1067.8,816.26s7.485,1.248,7.735,2.714S1067.8,816.26,1067.8,816.26Z" transform="translate(-419.455 -318.682)"/><path class="k" d="M1074.46,760.53s6.862,1.616,7.28,2.714Z" transform="translate(-421.961 -297.716)"/><path class="k" d="M1031.02,768.49s-3.58,1.042-.112,3.119S1031.02,768.49,1031.02,768.49Z" transform="translate(-405.006 -300.71)"/><path class="k" d="M1057.43,678.691c.405,0,6.7-2.077,8.9-1.154a14.628,14.628,0,0,0,4.9.923Z" transform="translate(-415.554 -266.404)"/><path class="k" d="M1053.79,688.158l-.062.574-5.383,14.1s-.867,4.273-1.616,6.7a44,44,0,0,0-1.129,4.99l4.766-29.549Z" transform="translate(-411.103 -269.289)"/><path class="ac" d="M1069.984,646.649l-2.239.037h-.069l-1.316-5.82,1.946-.106Z" transform="translate(-418.913 -252.657)"/><path class="z" d="M1101.82,635.556l-1.435,1.185-4.8,3.949s-12.987,6.93-16.568.349c-3.156-5.8,11.571-9.943,15.121-10.848l.755-.181Z" transform="translate(-423.508 -248.612)"/><path class="k" d="M1026.88,547.9s2.539,1.154,3.119,2.77S1026.88,547.9,1026.88,547.9Z" transform="translate(-404.06 -217.721)"/><path class="k" d="M1012.75,575.67s-3.693,4.5-2.2,6.238S1012.75,575.67,1012.75,575.67Z" transform="translate(-397.784 -228.169)"/><path class="k" d="M1118.031,552s-3.462.349-3.581,3.35Z" transform="translate(-437.005 -219.264)"/><path class="k" d="M1068.72,621.155c.349-.349,8.315-12.126,10.168-11.085Z" transform="translate(-419.801 -241.086)"/><path class="k" d="M1111.07,635.556l-1.435,1.185c-1.248-2.115-6.475-6.331-6.475-6.331l.225-.218.755-.181Z" transform="translate(-432.758 -248.612)"/><path class="af" d="M1112.665,632.3s-.511,1.285-1.048,2.4-1.117,2.121-1.142,1.3c-.062-1.622-6.755-7.049-6.755-7.049l.9-.886,1.054-1.023Z" transform="translate(-432.969 -247.495)"/><path class="k" d="M1112.93,617.677l.761,12.881c-1.8-2.788-6.718-9.937-9.881-9.706l7.679-8.833a10.279,10.279,0,0,0,.88-1.129C1112.661,614.57,1112.93,617.677,1112.93,617.677Z" transform="translate(-433.002 -241.419)"/><path class="k" d="M1113.211,632.3s-.511,1.285-1.048,2.4c-2.015-2.757-4.778-6.02-6.993-6.631l1.054-1.023Z" transform="translate(-433.514 -247.495)"/><path class="n" d="M1118.682,560.58l2.077,1.616s3.468.062,3.811,2.944,3.524,4.217,3.524,4.217,2.364,2.37,2.364,3.468,1.79,3.057,1.79,3.231,1.734,3.693,1.5,4.329,1.871,3.406,1.21,4.448a26.755,26.755,0,0,0-1.385,2.888s-2.714,5.2-4.1,6.175-7.735,9.245-7.735,9.245-6.818,7.847-6.818,10.274c0,0-6.637-11.085-10.567-10.8l7.679-8.833a5.988,5.988,0,0,0,1.391-2.308c.062-.861,3.693-4.853,5.427-5.028,0,0,.287-2.364-.462-2.427s-1.385-1.871-1.385-1.871-5.084-6.007-5.14-9.818S1118.682,560.58,1118.682,560.58Z" transform="translate(-433.209 -222.492)"/><path class="k" d="M1129.843,569.37s-4.853,3.581-3.811,4.741S1129.843,569.37,1129.843,569.37Z" transform="translate(-441.307 -225.799)"/><path class="k" d="M1132.6,592.3s9.007-2.888,9.931,0Z" transform="translate(-443.834 -233.941)"/><path class="k" d="M1023.795,838.507s-4.853,3.181-7.28,2.713a8.732,8.732,0,0,0-4.909.811,14.572,14.572,0,0,1-6.119,3.986c-3.93,1.329-9.413.8-12.532-.231-1.472-.493-1.591-1.129-.88-1.909,3.387.674,10.966,2.015,13.006,1.042a54.126,54.126,0,0,0,6.469-4.042s4.99-.692,5.658-.692a61.806,61.806,0,0,0,6.494-2.5Z" transform="translate(-390.807 -326.744)"/><path class="k" d="M1081.816,849.45a1.058,1.058,0,0,1-.043.318s-1.154,2.539-7.567,3.462-6.406-2.133-6.406-2.133l.062-.83C1069.89,851.041,1074.319,851.9,1081.816,849.45Z" transform="translate(-419.455 -331.168)"/><path class="k" d="M1029.853,568.26s0,13.168-1.123,14.466S1029.853,568.26,1029.853,568.26Z" transform="translate(-404.638 -225.381)"/><path class="k" d="M1114.17,575.07l1.678,4.7S1116.509,575.157,1114.17,575.07Z" transform="translate(-436.9 -227.943)"/><circle class="ai" cx="0.143" cy="0.143" r="0.143" transform="translate(583.415 340.577)"/><rect class="f" width="113.018" height="129.885" rx="6.61" transform="translate(529.67 343.939)"/><rect class="p" width="113.018" height="129.885" rx="6.61" transform="translate(529.67 343.939)"/><rect class="f" width="101.49" height="116.636" rx="6.61" transform="translate(535.433 350.564)"/><rect class="a" width="69.627" height="24.028" rx="6.03" transform="translate(550.198 373.956)"/><rect class="a" width="64.518" height="4.903" transform="translate(552.756 406.773)"/><rect class="a" width="88.777" height="4.903" transform="translate(541.79 417.122)"/><rect class="a" width="88.777" height="4.903" transform="translate(541.79 428.013)"/><rect class="a" width="88.777" height="4.903" transform="translate(541.79 438.905)"/></g></g></svg>