<svg xmlns="http://www.w3.org/2000/svg" viewBox="0 0 172.213 252.693"><g transform="translate(-529.67 -282.986)"><ellipse cx="62.447" cy="15.426" rx="62.447" ry="15.426" transform="translate(576.154 504.826)" fill="#2cccf3" opacity="0.1"/><path d="M978.65,592.038s2.14-11.228,9.007-11.228l5.028,10.336-3.35,2.308S982.056,593.654,978.65,592.038Z" transform="translate(-385.916 -230.103)" fill="#65617d"/><path d="M992.685,591.1l-3.35,2.308a39.662,39.662,0,0,1-8.783-.736,10.124,10.124,0,0,1-1.9-.624l.037-.181v-.037a24.952,24.952,0,0,1,1.3-4.117c.212-.505.449-1.023.711-1.541a10.445,10.445,0,0,1,4.367-4.772,5.92,5.92,0,0,1,2.289-.624h.306l.112.231,1.7,3.493Z" transform="translate(-385.916 -230.091)" opacity="0.1"/><path d="M1089.438,652.614s7.217-.692,7.854-.168,4.734,3.175,7.155,1.5.811-7.485.811-7.735-.231-8.49-.231-8.49l-4.329-5.832-5.427-10.218-11.091-1.1.287,16.218-.056,8.315Z" transform="translate(-425.617 -245.061)" fill="#65617d"/><path d="M1089.438,652.614s7.217-.692,7.854-.168,4.734,3.175,7.155,1.5.811-7.485.811-7.735-.231-8.49-.231-8.49l-4.329-5.832-5.427-10.218-11.091-1.1.287,16.218-.056,8.315Z" transform="translate(-425.617 -245.061)" opacity="0.1"/><path d="M980.838,573.888s-.58,7.043-4.99,7.161c0,0-1.248-.749-2.919-2-3.855-2.888-9.981-8.434-8.284-13.592,2.427-7.392,14.2,6.238,14.2,6.238l.911,1.017Z" transform="translate(-380.537 -223.499)" fill="#f7c4a7"/><path d="M985.784,579.574s-.58,7.043-4.99,7.161c0,0-1.248-.749-2.919-2l-.374-.48a5.745,5.745,0,0,0,2.408.624,3.25,3.25,0,0,0,3.119-1.977,24.956,24.956,0,0,0,1.247-2.8,8.723,8.723,0,0,0,.443-1.728Z" transform="translate(-385.483 -229.185)" opacity="0.1"/><path d="M984.1,591.995l-.986-1.248-3.325-4.279-1.69-2.189a5.7,5.7,0,0,0,2.4.624,3.231,3.231,0,0,0,3.119-1.977,24.452,24.452,0,0,0,1.216-2.794c.549-1.56.536-2.358.343-2.632a15.415,15.415,0,0,1,1.909,1.7h0l.318.3.119.237,1.74,3.368a.907.907,0,0,1,0,.143C989.391,584.3,989.952,591.034,984.1,591.995Z" transform="translate(-385.709 -228.843)" fill="#e7effd"/><path d="M1023.795,833.409s-4.853,3.181-7.28,2.714a8.733,8.733,0,0,0-4.909.811,14.572,14.572,0,0,1-6.119,3.986c-3.93,1.329-9.413.8-12.532-.231-1.472-.493-1.591-1.129-.88-1.909a26.627,26.627,0,0,1,4.691-3.175,45.347,45.347,0,0,0,8.259-7.042,2.5,2.5,0,0,1,.749-1.678,8.616,8.616,0,0,0,1.167-1.248c.624-.73,1.2-1.5,1.2-1.5l14.291.536s.243,1.029.437,2.083a7.532,7.532,0,0,1,.2,2.077,1.871,1.871,0,0,0,.406,1.441l.256,2.358Z" transform="translate(-390.807 -321.647)" fill="#e6e6f0"/><path d="M1082.26,838.1c-.168.692-.38,1.927-.474,2.5a1.055,1.055,0,0,1-.044.318s-1.154,2.539-7.567,3.462-6.406-2.133-6.406-2.133l.062-.83c.112-1.347.343-3.936.511-4.485a20.5,20.5,0,0,0-.168-4.042l-.069-3.443-.05-2.389,10.6-1.1a20.444,20.444,0,0,0,.343,2.364,3.037,3.037,0,0,0,.468,1.248c.574.624.923,3.462.923,3.462S1082.51,837.172,1082.26,838.1Z" transform="translate(-419.444 -322.327)" fill="#e6e6f0"/><path d="M1031.621,824.718s.243,1.029.437,2.083c-1.541.281-8.278,1.447-9.981.624a26.429,26.429,0,0,0-6.007-1.441l.069-.237c.624-.73,1.2-1.5,1.2-1.5Z" transform="translate(-399.993 -321.688)" opacity="0.1"/><path d="M1079.226,828.344c-2.689-.455-8.6.624-10.916,1.123l-.05-2.389,10.6-1.1A20.441,20.441,0,0,0,1079.226,828.344Z" transform="translate(-419.628 -322.339)" opacity="0.1"/><path d="M1064.957,668.3l-.225,8.109s.287,12.413-.58,14.347-.867,9.875-.867,9.875.58,3.743-.056,4.56-.175,3.811.287,5.371.056,5.427.056,5.427l-.112,21.833s-.624,5.658-1.447,6.469a1.9,1.9,0,0,0-.462,1.871,19.456,19.456,0,0,0-.518,3.811,1.916,1.916,0,0,1-.8,2.539c-1.322.636-.986,2.657-.986,2.657-3.175-.755-12.182,1.248-12.182,1.248a55.236,55.236,0,0,1-2.545-6.182,3.2,3.2,0,0,1,2.314-4.217c1.21-.168-.867-2.308-.867-2.308s.231-.287-.349-2.37.119-7.392.293-8.777,1.035-8.109,1.035-8.109-.462-8.49-.112-8.833,1.5-3.7.923-4.791-1.5-8.315-1.5-8.733-.749-9.762-.749-9.762a77.827,77.827,0,0,1-.518-7.91,50.963,50.963,0,0,0-.468-6.525c0-4.273-2.5-8.9-2.5-8.9l-.062.168-5.365,14.2s-.867,4.273-1.616,6.7a44,44,0,0,0-1.129,4.99l-.05.312-.05.324-.037.231h0s.4,3.057-.237,4.042a14.416,14.416,0,0,0-1.322,4.735c0,.811.056,3.93.056,3.93s.231,6.175-.405,6.862a1.079,1.079,0,0,0-.287,1.248s1.036,4.678.574,5.889a12.172,12.172,0,0,0-.112,4.042s-.923,8.951-1.042,9.413-.749,4.042-.056,4.329a9.244,9.244,0,0,1,2.021,2.021s.287,7.567-.749,8.14-.468,3.524-.468,3.524-8.371,1.616-10.274.692a26.355,26.355,0,0,0-6.007-1.441l.574-1.871c-.037.069-.418.686-.686-1.678-.293-2.5,2.133-1.248,2.133-1.248s1.909.462-1.154-2.539-1.559-6.063-1.385-6.063a38.725,38.725,0,0,0,.574-4.448,14.706,14.706,0,0,0,.119-4.735c-.406-2.077-.749-8.546-.749-8.546s.287-4.909-.237-6.7.349-4.99.524-5.776-.524-7.623-.524-7.623a21.378,21.378,0,0,0,.237-5.614c-.349-2.37.343-11.091.343-11.091l1.042-10.043a20.756,20.756,0,0,0,.624-4.367,35.025,35.025,0,0,1,.867-5.714,6.336,6.336,0,0,1,.462-2.776c.58-1.154.811-4.99.811-4.99l5.546-12.7,2.713-11.228,36.666-.349s.131.973.355,2.738.536,4.367.886,7.6c.318,2.932.667,6.381,1.01,10.218C1067.271,666.109,1064.957,668.3,1064.957,668.3Z" transform="translate(-399.351 -249.835)" fill="#3f3d56"/><path d="M1078.251,521.677l-8.54,9.138s-10.966-4.366-9.812-5.895c.443-.58.374-2.414.118-4.435-.406-3.2-1.248-6.862-1.248-6.862s19.169-3.119,17.547.112a5.314,5.314,0,0,0-.118,3.836,14.527,14.527,0,0,0,2.052,4.1Z" transform="translate(-416.058 -204.317)" fill="#fbbebe"/><path d="M1072.483,645.9c-1.822,0-7.885.062-14.659.175h-.081l-2.24.037h-.069c-8.034.125-15.95-1.441-19.132-1.148-6.755.624,2.427-6.238,2.427-6.238a56.657,56.657,0,0,0,15.389,1.553l1.946-.1c6.138-.349,12.307-.923,15.532-1.871C1071.822,640.082,1072.134,642.677,1072.483,645.9Z" transform="translate(-406.672 -251.735)" opacity="0.1"/><path d="M1072.483,645.345c-1.822,0-7.885.069-14.659.175h-.081l-2.24.037h-.069c-8.034.131-15.95-1.441-19.132-1.142-6.755.624,2.427-6.238,2.427-6.238a56.372,56.372,0,0,0,15.389,1.553l1.946-.1c6.138-.343,12.307-.923,15.532-1.871C1071.822,639.525,1072.134,642.12,1072.483,645.345Z" transform="translate(-406.672 -251.528)" fill="#223646"/><path d="M1053.307,532.23l-10.6,4.99-8.2,63.4s4.853-2.2,7.623-.811,11.315.119,11.315.119,6.238-.349,7.161.349,11.783-2.888,11.783-2.888,1.965-4.367.462-5.084.462-7.485.462-7.485l-.923-45.736-1.871-5.889-4.99-3.007-5.078,4.042-2.427.349Z" transform="translate(-406.927 -211.059)" opacity="0.1"/><path d="M1053.3,531.124l-10.6,4.99-8.222,63.408s4.853-2.2,7.623-.811,11.315.119,11.315.119,6.238-.349,7.161.343,11.783-2.882,11.783-2.882,1.965-4.367.462-5.084.462-7.485.462-7.485l-.923-45.736-1.871-5.889-4.99-3.007-5.078,4.042-2.427.349Z" transform="translate(-406.916 -210.645)" fill="#ffd24c"/><path d="M1044.543,526.738s-1.036-.518-2.021.986a6.519,6.519,0,0,1-2.826,2.189s-10.511,1.678-10.917,3.063l-4.909.287s-1.734.231-1.871,3.874-1.1,3.98-1.1,3.98-2.021,3.581-1.871,5.427a3.038,3.038,0,0,1-1.559,2.776l7.217,18.763s.231,7.741-1.1,10.567-3.811,15.364-3.811,15.364,1.042-.231.979.462-1.248,8.259-1.248,8.259a16.813,16.813,0,0,1-.923,4.042c-.574,1.042-.624,6.462-.624,6.462l-.923,3.93s2.189,4.909,5.539,4.217,9.407-13.8,9.407-13.8l3.867-14.147,3.007-13.973.867-9.469,1.385-20.965,2.021-13.854S1045.354,527.724,1044.543,526.738Z" transform="translate(-400.358 -209.728)" opacity="0.1"/><path d="M1043.989,525.628s-1.042-.518-2.021.986a6.556,6.556,0,0,1-2.832,2.189s-10.511,1.678-10.916,3.063l-4.9.287s-1.734.231-1.909,3.867-1.1,3.986-1.1,3.986-2.021,3.581-1.871,5.427a3.026,3.026,0,0,1-1.56,2.776L1024.121,567s.231,7.741-1.1,10.567-3.811,15.364-3.811,15.364,1.042-.231.986.462-1.248,8.253-1.248,8.253a16.45,16.45,0,0,1-.923,4.042c-.58,1.035-.624,6.469-.624,6.469l-.923,3.93s2.2,4.909,5.545,4.211,9.413-13.8,9.413-13.8l3.867-14.148,3-13.973.83-9.506,1.385-20.965,2.021-13.854S1044.794,526.614,1043.989,525.628Z" transform="translate(-400.148 -209.31)" fill="#65617d"/><path d="M992.478,590.9l-3.35,2.308a39.665,39.665,0,0,1-8.783-.736l-1.871-.83-.374-.162.387.125a7.647,7.647,0,0,0,4.622.162c4.741-1.6,4.217-9.419,4.03-11.191a1.637,1.637,0,0,0-.037-.337h0v.044a3.119,3.119,0,0,0,.218.306l.212.225h0l1.734,3.331a.908.908,0,0,1,0,.143Z" transform="translate(-385.709 -229.888)" opacity="0.1"/><path d="M1004.28,561.14l-1.616.462-.231,3.287a2.236,2.236,0,0,0-2.427,1.965,7.929,7.929,0,0,1-1.441,3.294s-3.175,2.657-3.35,4.909l-1.965,1.21s-4.56-1.042-5.614-2.888c0,0,2.083,14.9-9.007,11.228,0,0,12.413,5.427,12.993,6.182a7.258,7.258,0,0,0,7.854,1.1,8.236,8.236,0,0,0,4.217-4.678s3.35-4.678,3.462-5.371,2.713-1.5,2.713-1.5l4.99-12.008Z" transform="translate(-385.908 -222.702)" fill="#65617d"/><path d="M1084.052,530.343l1.672-7.623s.755,2.5,1.5,3.063l2.5,1.871a14.648,14.648,0,0,0,3.35,1.154c.855,0,5.546,1.248,6.119,1.871s2.888.175,2.888.175,1.9.624,3.581,1.042,2.5,3.175,2.133,4.273a3.337,3.337,0,0,0,.811,3.119c.692.692,1.042,2.944,1.042,2.944a3.382,3.382,0,0,1,1.959,1.672,11.548,11.548,0,0,1,.405,4.042l-8.6,12.126a35.676,35.676,0,0,1-.231,5.72c-.343,1.042,1.21,18.714,1.21,18.714l1.79,30.372a31.513,31.513,0,0,1-2.888,2.252c-.518.231-1.036-10.742-1.036-11.141s-13.343-19.961-13.343-19.961-1.79-2.888-1.79-3.524-1.672-6.469-1.672-6.469l-2.539-11.228Z" transform="translate(-425.14 -208.248)" opacity="0.1"/><path d="M1113.128,547.295v.661l-8.6,12.114h0s.119,4.678-.231,5.72c-.2.624.237,6.818.624,11.921.293,3.68.561,6.787.561,6.787l.761,12.881,1.029,17.466a31.484,31.484,0,0,1-2.888,2.252c-.518.231-1.036-10.742-1.036-11.147s-13.343-19.961-13.343-19.961-1.79-2.888-1.79-3.524-1.672-6.469-1.672-6.469l-2.539-11.228,1.154-34.414.979-7.623a16.362,16.362,0,0,0,2.2,3.057l2.5,1.909a14.647,14.647,0,0,0,3.35,1.154c.854,0,5.545,1.248,6.119,1.871s2.888.175,2.888.175,1.909.624,3.581,1.042,2.5,3.175,2.133,4.273a3.343,3.343,0,0,0,.811,3.119c.692.692,1.042,2.944,1.042,2.944a3.381,3.381,0,0,1,1.959,1.672,9.359,9.359,0,0,1,.412,3.35Z" transform="translate(-425.553 -208.252)" fill="#65617d"/><g transform="translate(108.655 186.159)"><path d="M440.323,57.57h0a12.183,12.183,0,0,1,12.183,12.183v5.2H428.14v-5.2A12.183,12.183,0,0,1,440.323,57.57Z" transform="translate(102.685 39.257)" fill="#2700f4"/><ellipse cx="13.887" cy="9.542" rx="13.887" ry="9.542" transform="translate(529.206 106.369)" fill="#2700f4"/><path d="M604.7,199.382a11.587,11.587,0,1,1-23.173.281c0-.094,0-.187,0-.281a11.584,11.584,0,0,1,13.531-11.425h0a11.578,11.578,0,0,1,9.61,10.656Q604.7,199,604.7,199.382Z" transform="translate(-50.066 -79.083)" fill="#f7c4a7"/><path d="M573.33,188.818s11.93-14.832,25.732,0l-1.193-3.323s-6.476-9.457-11.075-7.416-9.117,3.494-9.117,3.494Z" transform="translate(-43.187 -70.691)" fill="#2603e0"/><path d="M4456.061,1000.09c.5,9.877,1.027,12.891,2.377,16.3s3.446,6.867,5.714,7.9a8.7,8.7,0,0,0,6.5.528c2.38-.662,4.949-3.114,6.962-8.423s2.013-17.9,2.013-17.9-3.525,11.27-5.395,11.257-1.343-1.979-3.581-2.638a8.51,8.51,0,0,0-5.368,0c-2.139.5-1.985,2.127-3.187,1.993S4456.061,1000.09,4456.061,1000.09Z" transform="translate(-3924.748 -879.924)" fill="#575988"/></g><path d="M1017.53,808.76c.287,0,12.413.462,12.183,2.427S1017.53,808.76,1017.53,808.76Z" transform="translate(-400.543 -315.86)" opacity="0.1"/><path d="M1021.88,814s8.14,1.329,6.007,2.539S1021.88,814,1021.88,814Z" transform="translate(-402.179 -317.832)" opacity="0.1"/><path d="M1070.39,806.73s13.511,1.154,11.49,2.651-6.812,1.734-7.043,1.79S1070.39,806.73,1070.39,806.73Z" transform="translate(-420.429 -315.097)" opacity="0.1"/><path d="M1067.8,816.26s7.485,1.248,7.735,2.714S1067.8,816.26,1067.8,816.26Z" transform="translate(-419.455 -318.682)" opacity="0.1"/><path d="M1074.46,760.53s6.862,1.616,7.28,2.714Z" transform="translate(-421.961 -297.716)" opacity="0.1"/><path d="M1031.02,768.49s-3.58,1.042-.112,3.119S1031.02,768.49,1031.02,768.49Z" transform="translate(-405.006 -300.71)" opacity="0.1"/><path d="M1057.43,678.691c.405,0,6.7-2.077,8.9-1.154a14.628,14.628,0,0,0,4.9.923Z" transform="translate(-415.554 -266.404)" opacity="0.1"/><path d="M1053.79,688.158l-.062.574-5.383,14.1s-.867,4.273-1.616,6.7a44,44,0,0,0-1.129,4.99l4.766-29.549Z" transform="translate(-411.103 -269.289)" opacity="0.1"/><path d="M1069.984,646.649l-2.239.037h-.069l-1.316-5.82,1.946-.106Z" transform="translate(-418.913 -252.657)" fill="#3f3d56"/><path d="M1101.82,635.556l-1.435,1.185-4.8,3.949s-12.987,6.93-16.568.349c-3.156-5.8,11.571-9.943,15.121-10.848l.755-.181Z" transform="translate(-423.508 -248.612)" fill="#f7c4a7"/><path d="M1026.88,547.9s2.539,1.154,3.119,2.77S1026.88,547.9,1026.88,547.9Z" transform="translate(-404.06 -217.721)" opacity="0.1"/><path d="M1012.75,575.67s-3.693,4.5-2.2,6.238S1012.75,575.67,1012.75,575.67Z" transform="translate(-397.784 -228.169)" opacity="0.1"/><path d="M1118.031,552s-3.462.349-3.581,3.35Z" transform="translate(-437.005 -219.264)" opacity="0.1"/><path d="M1068.72,621.155c.349-.349,8.315-12.126,10.168-11.085Z" transform="translate(-419.801 -241.086)" opacity="0.1"/><path d="M1111.07,635.556l-1.435,1.185c-1.248-2.115-6.475-6.331-6.475-6.331l.225-.218.755-.181Z" transform="translate(-432.758 -248.612)" opacity="0.1"/><path d="M1112.665,632.3s-.511,1.285-1.048,2.4-1.117,2.121-1.142,1.3c-.062-1.622-6.755-7.049-6.755-7.049l.9-.886,1.054-1.023Z" transform="translate(-432.969 -247.495)" fill="#ffd24c"/><path d="M1112.93,617.677l.761,12.881c-1.8-2.788-6.718-9.937-9.881-9.706l7.679-8.833a10.279,10.279,0,0,0,.88-1.129C1112.661,614.57,1112.93,617.677,1112.93,617.677Z" transform="translate(-433.002 -241.419)" opacity="0.1"/><path d="M1113.211,632.3s-.511,1.285-1.048,2.4c-2.015-2.757-4.778-6.02-6.993-6.631l1.054-1.023Z" transform="translate(-433.514 -247.495)" opacity="0.1"/><path d="M1118.682,560.58l2.077,1.616s3.468.062,3.811,2.944,3.524,4.217,3.524,4.217,2.364,2.37,2.364,3.468,1.79,3.057,1.79,3.231,1.734,3.693,1.5,4.329,1.871,3.406,1.21,4.448a26.755,26.755,0,0,0-1.385,2.888s-2.714,5.2-4.1,6.175-7.735,9.245-7.735,9.245-6.818,7.847-6.818,10.274c0,0-6.637-11.085-10.567-10.8l7.679-8.833a5.988,5.988,0,0,0,1.391-2.308c.062-.861,3.693-4.853,5.427-5.028,0,0,.287-2.364-.462-2.427s-1.385-1.871-1.385-1.871-5.084-6.007-5.14-9.818S1118.682,560.58,1118.682,560.58Z" transform="translate(-433.209 -222.492)" fill="#65617d"/><path d="M1129.843,569.37s-4.853,3.581-3.811,4.741S1129.843,569.37,1129.843,569.37Z" transform="translate(-441.307 -225.799)" opacity="0.1"/><path d="M1132.6,592.3s9.007-2.888,9.931,0Z" transform="translate(-443.834 -233.941)" opacity="0.1"/><path d="M1023.795,838.507s-4.853,3.181-7.28,2.713a8.732,8.732,0,0,0-4.909.811,14.572,14.572,0,0,1-6.119,3.986c-3.93,1.329-9.413.8-12.532-.231-1.472-.493-1.591-1.129-.88-1.909,3.387.674,10.966,2.015,13.006,1.042a54.126,54.126,0,0,0,6.469-4.042s4.99-.692,5.658-.692a61.806,61.806,0,0,0,6.494-2.5Z" transform="translate(-390.807 -326.744)" opacity="0.1"/><path d="M1081.816,849.45a1.058,1.058,0,0,1-.043.318s-1.154,2.539-7.567,3.462-6.406-2.133-6.406-2.133l.062-.83C1069.89,851.041,1074.319,851.9,1081.816,849.45Z" transform="translate(-419.455 -331.168)" opacity="0.1"/><path d="M1029.853,568.26s0,13.168-1.123,14.466S1029.853,568.26,1029.853,568.26Z" transform="translate(-404.638 -225.381)" opacity="0.1"/><path d="M1114.17,575.07l1.678,4.7S1116.509,575.157,1114.17,575.07Z" transform="translate(-436.9 -227.943)" opacity="0.1"/><circle cx="0.143" cy="0.143" r="0.143" transform="translate(583.415 340.577)" fill="#e6e8ec"/><rect width="113.018" height="129.885" rx="6.61" transform="translate(529.67 343.939)" fill="#fff"/><rect width="113.018" height="129.885" rx="6.61" transform="translate(529.67 343.939)" fill="#5a5773" opacity="0.1"/><rect width="101.49" height="116.636" rx="6.61" transform="translate(535.433 350.564)" fill="#fff"/><rect width="69.627" height="24.028" rx="6.03" transform="translate(550.198 373.956)" fill="#2cccf3"/><rect width="64.518" height="4.903" transform="translate(552.756 406.773)" fill="#2cccf3"/><rect width="88.777" height="4.903" transform="translate(541.79 417.122)" fill="#2cccf3"/><rect width="88.777" height="4.903" transform="translate(541.79 428.013)" fill="#2cccf3"/><rect width="88.777" height="4.903" transform="translate(541.79 438.905)" fill="#2cccf3"/></g></svg>