<svg xmlns="http://www.w3.org/2000/svg" viewBox="0 0 256 80" preserveAspectRatio="xMinYMax meet"><g transform="translate(-1600 114)"><rect width="256" height="80" transform="translate(1600 -114)" fill="none"/><g transform="translate(2341 32)"><g transform="translate(-719.998 -125.984)"><path d="M128.339,2.3a1.928,1.928,0,0,1,1.461.459,2.231,2.231,0,0,1,.421,1.545v6.8q0,3.608-1.545,5.351a6.024,6.024,0,0,1-4.749,1.743h-7.009a2.13,2.13,0,0,1-1.562-.455A2.134,2.134,0,0,1,114.9,16.2V6.3c0-.842-.328-1.263-.972-1.263A1.2,1.2,0,0,0,112.9,5.5V19.914h10.87c.455,0,.686.21.686.627v1.486c0,.383-.232.573-.686.573H112.9V37.014a1.2,1.2,0,0,0,1.031.459c.644,0,.972-.421.972-1.263V26.435a2.143,2.143,0,0,1,.455-1.537,2.13,2.13,0,0,1,1.562-.467h7.035a6.016,6.016,0,0,1,4.749,1.747q1.545,1.747,1.545,5.346v6.807a2.235,2.235,0,0,1-.421,1.545,1.945,1.945,0,0,1-1.461.455H99.455A1.941,1.941,0,0,1,98,39.877a2.235,2.235,0,0,1-.421-1.545V8.817a6.921,6.921,0,0,0-.232-2.1,2.993,2.993,0,0,0-.808-1.179,15.3,15.3,0,0,0-1.932-1.465.564.564,0,0,1-.286-.514V2.868c0-.383.232-.573.686-.573Z" transform="translate(-54.613 -1.332)" fill="#2cccf3"/><path d="M221.525,28.133a9.829,9.829,0,0,1-4.744,8.777q-4.744,3.056-13.615,3.073-8.234,0-12.5-2.488a7.919,7.919,0,0,1-4.26-7.249,6.062,6.062,0,0,1,2.1-4.774,7.929,7.929,0,0,1,5.435-1.861,9.984,9.984,0,0,1,6.092,1.684,5.393,5.393,0,0,1,2.256,4.547,4.273,4.273,0,0,1-1.486,3.435,6.712,6.712,0,0,1-4.176,1.372,1.036,1.036,0,0,0-.341.741.7.7,0,0,0,.37.631,1.776,1.776,0,0,0,.943.227,6.651,6.651,0,0,0,4.778-1.831,6.066,6.066,0,0,0,1.915-4.576,6.824,6.824,0,0,0-.918-3.688,8,8,0,0,0-2.947-2.6,29.389,29.389,0,0,0-5.519-2.231,12.074,12.074,0,0,1-5.948-3.6,8.879,8.879,0,0,1-2-5.894,9.443,9.443,0,0,1,2.147-6.1,14.247,14.247,0,0,1,6.176-4.21,26.176,26.176,0,0,1,9.426-1.528q7.552,0,11.834,2.572A7.924,7.924,0,0,1,220.8,9.72a5.97,5.97,0,0,1-2.2,4.774,8.486,8.486,0,0,1-5.692,1.861,9.176,9.176,0,0,1-5.805-1.718,5.447,5.447,0,0,1-2.2-4.517,4.248,4.248,0,0,1,1.486-3.431,6.7,6.7,0,0,1,4.176-1.372,1.052,1.052,0,0,0,.341-.745.7.7,0,0,0-.37-.627,1.751,1.751,0,0,0-.943-.232,6.87,6.87,0,0,0-3.347.842,6.55,6.55,0,0,0-2.433,2.29,6.087,6.087,0,0,0-.914,3.288,6.5,6.5,0,0,0,2.1,5.052q2.1,1.92,7.262,3.368a15.244,15.244,0,0,1,7.009,3.663,8.23,8.23,0,0,1,2.248,5.919Z" transform="translate(-107.932 0)" fill="#2cccf3"/><path d="M289.815,38.332a2.236,2.236,0,0,1-.421,1.545,1.941,1.941,0,0,1-1.457.455H276.373a1.932,1.932,0,0,1-1.44-.455,2.236,2.236,0,0,1-.421-1.545V8.817a6.921,6.921,0,0,0-.232-2.1,2.993,2.993,0,0,0-.8-1.2,15.948,15.948,0,0,0-1.945-1.461.564.564,0,0,1-.286-.514V2.869c0-.383.232-.573.686-.573h16.018a1.924,1.924,0,0,1,1.457.459,2.231,2.231,0,0,1,.421,1.545Z" transform="translate(-157.059 -1.333)" fill="#2cccf3"/><path d="M351.052,39.005a18.061,18.061,0,0,1-3.12.775,24.054,24.054,0,0,1-3.288.2q-9.5,0-14.642-5.292t-5.149-15.071a20.721,20.721,0,0,1,2.459-10.209,17.159,17.159,0,0,1,7.157-6.921A23.289,23.289,0,0,1,345.541,0a20.089,20.089,0,0,1,7.666,1.4,13.329,13.329,0,0,1,5.473,3.974,9.173,9.173,0,0,1,2.059,5.894,7.637,7.637,0,0,1-2.745,6.146,10.863,10.863,0,0,1-7.262,2.32,11.632,11.632,0,0,1-5.005-1.061,8.916,8.916,0,0,1-3.553-2.972,7.435,7.435,0,0,1-1.343-4.378,6.172,6.172,0,0,1,2.1-4.917,8.418,8.418,0,0,1,5.721-1.831A1.044,1.044,0,0,0,349,3.828a.808.808,0,0,0-.421-.716,1.894,1.894,0,0,0-1.027-.257,8.684,8.684,0,0,0-4.26,1.09,8.466,8.466,0,0,0-3.174,3.031,8.176,8.176,0,0,0-1.2,4.387,9.57,9.57,0,0,0,.943,4.374,11.674,11.674,0,0,0,3.119,3.633,2.475,2.475,0,0,1,.745.888,3.064,3.064,0,0,1,.227,1.263V35.515q0,1.545,1.027,1.545c.69,0,1.031-.514,1.031-1.545V23.1a2.236,2.236,0,0,1,.421-1.545,1.941,1.941,0,0,1,1.457-.455h16.018c.455,0,.686.189.686.568v.686a.707.707,0,0,1-.088.375,1.448,1.448,0,0,1-.484.37,5.752,5.752,0,0,0-2.172,1.772,5.426,5.426,0,0,0-.518,2.69v9.438a2.235,2.235,0,0,1-.421,1.545,1.941,1.941,0,0,1-1.457.455Z" transform="translate(-188.095 -0.006)" fill="#2cccf3"/><path d="M451.621,28.78a1.52,1.52,0,0,0,.568.114.922.922,0,0,0,.631-.257.842.842,0,0,0,.286-.661,3.275,3.275,0,0,0-.631-1.713L439.325,4.527a6.746,6.746,0,0,1-.37-.657,1.208,1.208,0,0,1-.084-.488V3.041a.783.783,0,0,1,.168-.6.9.9,0,0,1,.573-.143h14.642a1.928,1.928,0,0,1,1.461.459,2.231,2.231,0,0,1,.421,1.545V38.332a2.235,2.235,0,0,1-.421,1.545,1.945,1.945,0,0,1-1.461.455h-7.321a7.868,7.868,0,0,1-4.117-.914,9.805,9.805,0,0,1-2.972-3.368L426.4,13.852a1.356,1.356,0,0,0-.518-.118,1.027,1.027,0,0,0-.657.261.8.8,0,0,0-.316.657,3.788,3.788,0,0,0,.631,1.713L438.7,38.1a5.521,5.521,0,0,1,.37.661,1.183,1.183,0,0,1,.088.484v.345a.9.9,0,0,1-.143.568.77.77,0,0,1-.6.173H423.769a1.953,1.953,0,0,1-1.461-.455,2.235,2.235,0,0,1-.421-1.545V8.817a6.953,6.953,0,0,0-.227-2.1,3.039,3.039,0,0,0-.8-1.2,15.948,15.948,0,0,0-1.945-1.461.556.556,0,0,1-.286-.514V2.868c0-.383.227-.573.686-.573H431.1a7.9,7.9,0,0,1,4.117.914A9.909,9.909,0,0,1,438.2,6.577Z" transform="translate(-242.394 -1.332)" fill="#2cccf3"/><path d="M7.83,12.267a.69.69,0,0,1-.37-.118,9.118,9.118,0,0,1,.118,1.6v3.191c.147.051.345.122.581.194a45.921,45.921,0,0,1,1.284-5.313c.265-.577,1.305-.421,1.747-.147-.126.387-.307,1.187-.505,2.1h.345c.884-.295,1.423-.8,1.423-1.549s-.6-1.322-1.747-1.322a2.45,2.45,0,0,0-1.979.8c-.034.029.042.122,0,.156a3.094,3.094,0,0,1-.9.408Z" transform="translate(-4.32 -6.319)" fill="#2cccf3"/><path d="M34.061,7.315Q29.346,2.306,20.876,2.31H.668C.226,2.31,0,2.5,0,2.883v.686a.556.556,0,0,0,.286.514,8.515,8.515,0,0,1,2.526,2.1c.038.067.076.147.114.227A5,5,0,0,1,6.68,5.126a3.66,3.66,0,0,1,2.774.956c.223-.421,1.04-.914,1.351-.653a20.678,20.678,0,0,1,2.189,2.989c1.124-1.777,2.189-3.3,2.9-3.3.547,0,1.326.939,1.263,1.137-1.621,1.107-5.031,7.245-5.8,8.138-.244,0-1.684-.56-1.642-.749a7.262,7.262,0,0,1,.653-1.629c.139-.265.316-.055.379-.139.442-.631.914-1.356,1.377-2.1a27.444,27.444,0,0,0-1.608-2.4c-.084-.105-.181.042-.278-.042a4.45,4.45,0,0,1-.358-.459,1.415,1.415,0,0,1,.034.3c0,.737-.623,1.4-1.528,1.873,1,.316,1.684.947,1.684,1.852,0,1.684-2.252,2.547-4.336,2.547H5.455v.076c-.084.358-.232.379-.5.358A3.317,3.317,0,0,1,3.624,13.4a.421.421,0,0,1,0-.126,3.014,3.014,0,0,1-.37-.088V38.346a2.235,2.235,0,0,0,.421,1.545,1.953,1.953,0,0,0,1.461.455H20.821a18.3,18.3,0,0,0,9.523-2.429,16.14,16.14,0,0,0,6.281-6.748A21.8,21.8,0,0,0,38.8,21.242Q38.78,12.317,34.061,7.315ZM20.762,36.17a1.739,1.739,0,0,1-.286,1.031.93.93,0,0,1-.8.421,1.263,1.263,0,0,1-1.086-.459V5.514a1.263,1.263,0,0,1,1.086-.459.93.93,0,0,1,.8.4,1.747,1.747,0,0,1,.286,1.031Z" transform="translate(0 -1.347)" fill="#2cccf3"/><path d="M13.916,20.042c-.2.947-.379,1.915-.526,2.652,1.074-.029,2.391-.358,2.391-1.558C15.781,20.412,14.948,19.978,13.916,20.042Z" transform="translate(-7.754 -11.61)" fill="#2cccf3"/></g></g></g></svg>