<svg xmlns="http://www.w3.org/2000/svg" xmlns:xlink="http://www.w3.org/1999/xlink" viewBox="0 0 764 568.508" preserveAspectRatio="xMaxYMax meet"><defs><linearGradient id="a" x1="2.196" y1="1" x2="2.196" gradientUnits="objectBoundingBox"><stop offset="0" stop-color="gray" stop-opacity="0.251"/><stop offset="0.54" stop-color="gray" stop-opacity="0.122"/><stop offset="1" stop-color="gray" stop-opacity="0.102"/></linearGradient></defs><g transform="translate(36.006 60.957)"><path d="M785.4,452.891a119.172,119.172,0,0,0-50.317-97.6,122.27,122.27,0,0,0,.662-12.427c0-65.637-52.462-118.848-117.186-118.848a115.384,115.384,0,0,0-56.878,14.923C515.874,208.8,456.069,190.56,390.644,190.56c-106.454,0-198.024,48.3-238.649,117.55-2.258-.132-4.529-.205-6.819-.205-64.71,0-117.186,53.21-117.186,118.848a119.523,119.523,0,0,0,19.286,65.339h0c0,59.056,55.739,106.924,124.469,106.924H670.361c53.985,0,97.748-37.586,97.748-83.957h0A119.518,119.518,0,0,0,785.4,452.891Z" transform="translate(-57.408 -92.106)" fill="#2cccf3" opacity="0.1"/><g transform="translate(465.254 151.254)" opacity="0.9"><path d="M1021.567,335.621v.07a.092.092,0,0,0,0,.035,3.067,3.067,0,0,1-.076.509c-.217,1.381-.474,2.768-.784,4.155a80.258,80.258,0,0,1-12.224,27.345c-.228.328-.456.655-.691.977-.445.638-.9,1.264-1.358,1.89-.322.427-.644.854-.977,1.282a91.279,91.279,0,0,1-7.338,8.409c-1.428,1.44-2.926,2.832-4.406,4.161l-.655.585q-1.211,1.053-2.458,2.048c-.357.287-.72.585-1.083.849l-.632.492-.451.334c-.4.31-.813.585-1.229.907l-.293.2c-.977.7-1.96,1.369-2.961,2.019a72.612,72.612,0,0,1-6.607,3.8q-1.574.8-3.166,1.5-1.931.86-3.891,1.574c-.351.135-.708.257-1.065.386-1,.345-2.013.667-3.02.96l-.515.152-.257.07h0l-.62.17a79.527,79.527,0,0,1-9.152,1.908l-.5.076-.263.041c-3.915.585-7.818.878-11.7,1.071a147.05,147.05,0,0,1-16.063,0l-1.463-.1H925.4c-1.012-.076-2.025-.17-3.031-.275-.585-.059-1.17-.123-1.756-.2-.889-.105-1.755-.228-2.657-.357h-.041l-.848-.135c-.767-.123-1.521-.252-2.276-.4l-.772-.14-1.17-.24-.228-.047q-3.675-.79-7.209-1.919l-.538-.181q-2.563-.854-5.032-1.9-1.832-.79-3.6-1.679-2.528-1.282-4.927-2.756-3.353-2.054-6.5-4.424c-2.756-2.054-5.407-4.266-7.982-6.56l-.532-.48-.971-.878a157.819,157.819,0,0,1-32.846-41.758q-1.334-2.493-2.586-5.068c-.258-.527-.509-1.053-.761-1.586a1.279,1.279,0,0,1-.058-.129l-.386-.819c-1.053-2.271-2.048-4.594-2.984-6.946l-.421-1.065-.655-1.72-.263-.72q-1.211-3.277-2.259-6.642c-.117-.386-.24-.772-.357-1.17q-.556-1.826-1.059-3.675c-.31-1.135-.585-2.288-.884-3.453-.047-.181-.088-.363-.129-.55-2.341-9.878-3.341-20.552-.966-31.383.158-.737.334-1.475.533-2.206.281-1.094.585-2.189.971-3.283.082-.257.17-.515.257-.772l.105-.281a.659.659,0,0,1,.064-.2.4.4,0,0,0,.041-.117c.2-.538.41-1.077.632-1.621s.456-1.083.7-1.621h0l.035-.076c0-.07.064-.135.094-.2.193-.421.392-.843.585-1.252l.211-.421.059-.211c.111-.217.228-.439.345-.65a52.67,52.67,0,0,1,5.665-8.6,48.52,48.52,0,0,1,3.862-4.243,41.823,41.823,0,0,1,6.782-5.43q.585-.351,1.124-.685a28.049,28.049,0,0,1,10.165-3.687c4.646-.655,9.006.1,13.248,1.112l.427.105c.714.17,1.428.351,2.136.533,2.475.626,4.968,1.276,7.484,1.832,2.341.521,4.681.966,7.1,1.276a49.935,49.935,0,0,0,7.344.41c.363,0,.737,0,1.106-.035a39.94,39.94,0,0,0,13.167-2.891,25.356,25.356,0,0,0,8.567-5.659,19.258,19.258,0,0,0,1.323-1.521h0a17.7,17.7,0,0,0,1.861-2.926c.164-.31.322-.626.474-.936h0c.059-.105.117-.222.176-.334h0l.9-1.756h0c.035-.064.064-.129.1-.187.433-.837.866-1.662,1.311-2.469a47.327,47.327,0,0,1,6.332-9.328h0a26.514,26.514,0,0,1,9.4-6.747c.585-.252,1.17-.492,1.82-.714a26.426,26.426,0,0,1,8.473-1.516h1.012a29.58,29.58,0,0,1,8.438,1.492h0a43.684,43.684,0,0,1,11.592,6,78.168,78.168,0,0,1,14.518,13.336c.339.4.679.808,1.012,1.217a101.137,101.137,0,0,1,9.708,14.319c8.462,14.992,14.009,32.554,18.012,50.437l.193.854c.094.421.187.843.275,1.258.187.866.375,1.756.55,2.592.135.638.269,1.282.4,1.919h0c.094.462.187.919.275,1.387.058.287.117.585.17.872a139.632,139.632,0,0,1,2.124,14.483,2.442,2.442,0,0,0,.041.544A79.581,79.581,0,0,1,1021.567,335.621Z" transform="translate(-827.355 -204.195)" fill="#FF1744" opacity="0.7"/><path d="M1066.224,499.817c-.644-.17-1.756.585-3.183,1.82-.691.585-1.457,1.317-2.288,2.112l-.392.38-.176.164c-1.1,1.059-2.305,2.23-3.581,3.412-.8.737-1.615,1.481-2.463,2.212-1.118.966-1.756,3.616-2.06,7.245a79.531,79.531,0,0,1-9.152,1.908l-.5.076-.263.041c-.182-1.088-.316-1.8-.316-1.8s-5.267-4.395-3.733-9.884c.883-3.148,9.527-9.041,16.742-13.5.883-.538,1.755-1.065,2.569-1.557l.533-.322c.333-.2.65-.392.966-.585l2.4-1.4c1.662-.96,2.868-1.633,3.295-1.873l.176-.1S1067.868,500.25,1066.224,499.817Z" transform="translate(-914.665 -320.85)" fill="#3f3d56"/><path d="M1066.224,499.817c-.644-.17-1.756.585-3.183,1.82-.691.585-1.457,1.317-2.288,2.112l-.392.38-.176.164c-1.1,1.059-2.305,2.23-3.581,3.412-.8.737-1.615,1.481-2.463,2.212-1.118.966-1.756,3.616-2.06,7.245a79.531,79.531,0,0,1-9.152,1.908l-.5.076-.263.041c-.182-1.088-.316-1.8-.316-1.8s-5.267-4.395-3.733-9.884c.883-3.148,9.527-9.041,16.742-13.5.883-.538,1.755-1.065,2.569-1.557l.533-.322c.333-.2.65-.392.966-.585l2.4-1.4c1.662-.96,2.868-1.633,3.295-1.873l.176-.1S1067.868,500.25,1066.224,499.817Z" transform="translate(-914.665 -320.85)" opacity="0.1"/><path d="M1043.728,474.552s-1.077,1.106-2.75,2.856c-.7.732-1.516,1.58-2.394,2.51l-.082.088-.456.474c-1.042,1.1-2.165,2.288-3.318,3.511-5.981,6.4-12.745,13.9-12.745,15.092a3.885,3.885,0,0,1-.287,1.3l-.5.076-.263.041c-3.915.585-7.818.878-11.7,1.071a147.019,147.019,0,0,1-16.063,0l-1.463-.1h-.263c-1.012-.076-2.025-.17-3.031-.275-.585-.059-1.17-.123-1.756-.2.69-.96,1.41-1.966,2.124-3,1.434-2.06,2.856-4.19,4.038-6.121.07-.111.135-.222.2-.328.708-1.17,1.323-2.276,1.8-3.23a8.623,8.623,0,0,0,.954-2.7,14.772,14.772,0,0,1,1.047-3.353c2.581-6.554,9.328-19.9,13.1-27.264l.339-.655.328-.632c1.211-2.341,1.99-3.839,1.99-3.839l9.217-2.487.585-.158,2.036-.55.784-.211,4.36-1.17h.053l.158-.047,4.6-1.235,1.527-.415,1.756-.462,4.447,7.578,1.3,18.925Z" transform="translate(-893.434 -302.175)" fill="#3f3d56"/><path d="M949.853,500.506c-1.8-2.341-2.85-3.774-2.85-3.774s2.557-.62,5.893-1.562c1.7-.486,3.611-1.047,5.483-1.662,1.17-.392,2.341-.8,3.458-1.217.585-.211,1.118-.433,1.638-.65,2.423-1.018,4.243-2.054,4.611-2.979a1.925,1.925,0,0,0-.094-1.106,29.982,29.982,0,0,0-2.153-4.88c-.31-.585-.65-1.223-1.012-1.884-1.17-2.136-2.569-4.582-4.1-7.163-1.281-2.154-2.657-4.406-4.049-6.665-1.229-1.984-2.475-3.979-3.7-5.91-.035-.059-.076-.117-.111-.181-5.577-8.813-10.586-16.385-10.791-16.672h0l-3.289,7.894-.141.129-5.413,4.8-.129.123c-1.685,1.492-3.6,3.2-5.547,4.945-1.445,1.293-2.926,2.6-4.3,3.868-2,1.791-3.862,3.482-5.378,4.869a43.116,43.116,0,0,0-3.634,3.511,37.964,37.964,0,0,0-2.341,6.326c2.575,2.294,5.226,4.506,7.982,6.566,2.1,1.568,4.26,3.049,6.5,4.418q2.405,1.475,4.927,2.756,1.756.884,3.6,1.68,2.464,1.053,5.033,1.9l.538.181a71.9,71.9,0,0,0,7.209,1.919l.228.047,1.17.24Z" transform="translate(-862.43 -302.615)" opacity="0.1"/><path d="M994.386,445.013l-.527.808c-.211.334-.486.761-.819,1.27s-.8,1.252-1.293,2.019l-.363.585c-.854,1.323-1.849,2.873-2.926,4.588-.134.2-.269.41-.4.626s-.275.433-.415.65c-7.022,11-17.4,27.3-20.013,32.009a12.059,12.059,0,0,0-.585,1.106c-.334.837-1.837,1.756-3.915,2.674-.462.211-.96.415-1.469.626-1.135.451-2.376.889-3.64,1.317-1.843.62-3.745,1.17-5.477,1.691-3.663,1.059-6.577,1.756-6.577,1.756s1.006,1.363,2.733,3.634l-1.17-.24-.228-.047q-3.675-.79-7.209-1.919l-.538-.181q-2.563-.854-5.033-1.9-1.832-.79-3.6-1.679-2.528-1.282-4.927-2.756-3.353-2.054-6.5-4.424c-2.756-2.054-5.407-4.266-7.982-6.56l-.533-.48a39.938,39.938,0,0,1,2.206-5.852,51.393,51.393,0,0,1,4.225-4.038c1.551-1.422,3.417-3.107,5.378-4.869l4.3-3.856,5.085-4.541.129-.117,5.267-4.681.141-.129,3.294-7.9h.667l11.979.187h1.884l3.757.059,4.471.064,5.2.082,20.394.316h.661l3.868.059Z" transform="translate(-862.044 -302.615)" fill="#3f3d56"/><path d="M1029.734,291.411l-1.978,17.983s-20.259,8.07-20.75,7.906-13.506-11.862-11.364-19.6a69.786,69.786,0,0,0,1.791-13.658c.222-4.395.187-7.754.187-7.754s29.481-10.533,26.842-3.295c-.954,2.633-.527,5.787.416,8.731A40.813,40.813,0,0,0,1029.734,291.411Z" transform="translate(-897.065 -230.54)" fill="#fbbebe"/><path d="M1026.3,281.654a7.543,7.543,0,0,1-.544.585,19.75,19.75,0,0,1-26.918,1.709c.222-4.36.187-7.754.187-7.754s29.481-10.533,26.842-3.295C1024.933,275.556,1025.36,278.71,1026.3,281.654Z" transform="translate(-898.49 -230.502)" opacity="0.1"/><path d="M1026.061,252.377a19.639,19.639,0,1,1-5.75-14.014,19.756,19.756,0,0,1,5.75,14.014Z" transform="translate(-893.392 -214.843)" fill="#fbbebe"/><path d="M1000.268,325.957S992.532,308.8,989.893,308.8s-6.753,88.743-6.753,88.743l40.377.638,1.65-46.6-8.239-41.3S1009.5,326.589,1000.268,325.957Z" transform="translate(-891.978 -246.448)" opacity="0.1"/><path d="M1000.268,328.207s-7.736-17.157-10.375-17.157S983.14,399.8,983.14,399.8l45.79.69-3.786-46.656-8.239-41.3S1009.5,328.845,1000.268,328.207Z" transform="translate(-891.978 -247.382)" opacity="0.1"/><path d="M1000.268,327.082s-7.736-17.152-10.375-17.152-6.753,88.743-6.753,88.743l45.79.691-3.786-46.674-8.239-41.3S1009.5,327.719,1000.268,327.082Z" transform="translate(-891.978 -246.917)" fill="#65617d"/><path d="M963.724,299.625s-1.381-2.025-3.359-1.363-3.458-1.17-5.436.655-9.884,4.284-11.364,3.458-6.753,2.8-7.906,4.945-4.945,7.906-4.945,7.906-3.289,3.95-2.8,6.092-1.17,4.611-3.131,5.6-5.928,10.873-5.928,10.873,1.065,13.213-3.382,15.519-1.17,12.353-1.17,12.353l21.008-4.98,5.945-13.494s-2.306,39.529-5.109,43.151-3.125,5.934-3.125,5.934,10.867,2.306,13.172,4.278,8.4-.492,8.4-.492l5.928-52.543s2.142-9.878,2.142-14.986S963.724,299.625,963.724,299.625Z" transform="translate(-862.941 -242.001)" opacity="0.1"/><path d="M962.662,299.625s-1.387-2.025-3.365-1.363-3.458-1.17-5.436.655-9.878,4.284-11.364,3.458-6.753,2.8-7.906,4.945-4.939,7.906-4.939,7.906-3.295,3.95-2.8,6.092-1.17,4.611-3.125,5.6-5.934,10.873-5.934,10.873,1.065,13.213-3.382,15.519a4.634,4.634,0,0,0-2.054,3.464,10.352,10.352,0,0,0,10.592,12.154l11.317-4.681,5.928-17.058s-2.306,39.529-5.1,43.151-3.125,5.922-3.125,5.922,10.873,2.306,13.178,4.278,8.4-.492,8.4-.492l5.928-52.543s2.142-9.878,2.142-14.986S962.662,299.625,962.662,299.625Z" transform="translate(-862.535 -242.001)" fill="#2cccf3"/><path d="M936.42,349.61s1.978,5.436,7.414,4.945S936.42,349.61,936.42,349.61Z" transform="translate(-872.597 -263.377)" opacity="0.1"/><path d="M945.43,335.54s3.622.661,4.939,3.786S945.43,335.54,945.43,335.54Z" transform="translate(-876.335 -257.54)" opacity="0.1"/><path d="M961.466,326c0,.661,2.306,12.189,0,16.97a23.888,23.888,0,0,0-1.978,10.375Z" transform="translate(-882.16 -253.583)" opacity="0.1"/><path d="M1036.84,292.973s1.293-1.516,2.61-1.352,2.142.989,3.792,1.65,5.594.819,5.594,1.317,3.464,2.469,5.77,2.961,9.55,5.436,11.364,14.992,4.939,12.353,4.939,12.353l-17.456,8.561s13.506,57.318,15.15,61.444,1.814,28.492,1.814,28.492-10.709,4.775-13.506,6.261-1.65-14.167-7.414-23.226-12.353-22.237-12.353-22.237L1027.1,356.026s-6.437-37.551-.989-44.474S1037.308,295.448,1036.84,292.973Z" transform="translate(-908.894 -239.317)" opacity="0.1"/><path d="M1071.485,423.056v.339l-.638.287-.451.2-4.471,2.025c-2.452,1.118-5.161,2.341-6.87,3.207-.427.2-.79.392-1.071.544a.62.62,0,0,1-.667,0c-.878-.585-1.276-3.558-1.9-7.432-.257-1.6-.55-3.359-.936-5.155-.058-.281-.123-.585-.187-.843a41.426,41.426,0,0,0-1.674-5.629,23.557,23.557,0,0,0-2.054-4.167c-.761-1.17-1.527-2.446-2.294-3.733-2.06-3.464-4.1-7.157-5.8-10.323-.117-.228-.234-.445-.351-.661-.433-.808-.843-1.574-1.211-2.288-.767-1.463-1.411-2.7-1.873-3.6l-.743-1.469a1.366,1.366,0,0,0-.076-.152l-.907-2.54-1.755-4.9-2.042-5.729-.966-2.7-.7-1.96-.222-.62-3.464-9.72s-.246-1.41-.585-3.733c-.919-6.109-2.587-18.533-2.581-28.264a52.761,52.761,0,0,1,.41-7.1c.041-.258.076-.509.123-.755s.094-.538.146-.8a9.472,9.472,0,0,1,1.5-3.821c5.431-6.917,11.224-16.1,10.732-18.574l.111-.123a5.407,5.407,0,0,1,.8-.691,3.118,3.118,0,0,1,1.17-.527,1.989,1.989,0,0,1,.527,0h0c1.317.164,2.142.989,3.786,1.65s5.6.819,5.6,1.317,3.458,2.469,5.764,2.967,9.556,5.43,11.364,14.986c1.755,9.2,4.717,12.137,4.933,12.347h0l-.65.316-9.907,4.863-2.124,1.036-4.781,2.341s1.252,5.308,3.037,12.81a1.583,1.583,0,0,0,.076.31c.053.222.105.451.164.679,1.311,5.5,2.879,12.055,4.442,18.521l.141.585.456,1.873c.14.585.287,1.17.427,1.756l.228.93c.433,1.791.866,3.558,1.287,5.267.626,2.534,1.223,4.939,1.755,7.139,1.521,6.063,2.7,10.5,3.119,11.546.585,1.51,1.007,5.752,1.276,10.533C1071.374,412.733,1071.473,421.271,1071.485,423.056Z" transform="translate(-909.34 -239.326)" fill="#2cccf3"/><path d="M1085.577,383.406c-.486.082-1.106.152-1.826.222-5.267.48-15.63.585-15.63.585s-7.742-15.32-14.331-14.823c0,0,6.092-6.917,8.567-6.092.41.135.667-.17.8-.761.656-2.926-1.621-13.079-1.621-13.079l-3.131-13.67,18.141,4.447c1.65.328,6.753,2.967,6.753,2.967s.164,7.081,1.48,8.725,2.8,9.556,2.639,11.534,1.808,11.2-.164,13.67S1089.7,382.727,1085.577,383.406Z" transform="translate(-921.285 -257.644)" opacity="0.1"/><path d="M1086.707,383.406c-.492.082-1.106.152-1.826.222-5.267.48-15.636.585-15.636.585s-7.742-15.32-14.325-14.823c0,0,6.092-6.917,8.561-6.092.416.135.673-.17.8-.761.661-2.926-1.621-13.079-1.621-13.079l-3.125-13.67,18.141,4.447c1.644.328,6.753,2.967,6.753,2.967s.164,7.081,1.481,8.725,2.8,9.556,2.633,11.534,1.814,11.2-.164,13.67S1090.821,382.727,1086.707,383.406Z" transform="translate(-921.753 -257.644)" fill="#2cccf3"/><path d="M1077.43,355.8s15.156,1.65,15.8,5.436S1077.43,355.8,1077.43,355.8Z" transform="translate(-931.091 -265.945)" opacity="0.1"/><path d="M1029.089,252.387a19.639,19.639,0,0,1-5.4,13.564.281.281,0,0,1-.047-.094,8.467,8.467,0,0,1-1.1-3.927c.053-1.656,1.006-3.154,1.317-4.793.392-2.072-.287-4.172-.954-6.168-.486-1.463-1.428-3.236-2.961-3.055a4.037,4.037,0,0,1-.907.105c-.819-.129-.983-1.17-1.071-2.013a9.123,9.123,0,0,0-7.449-7.812,2.3,2.3,0,0,0-1.305.088c-.585.258-.878.872-1.393,1.229-1.674,1.17-3.8-1.059-5.852-.889-1.756.146-2.78,1.914-3.511,3.511s-1.6,3.376-3.295,3.745a1,1,0,0,1-.8-.088c-.527-.386-.164-1.17.111-1.8a3.608,3.608,0,0,0-.62-3.927,19.756,19.756,0,0,1,35.2,12.336Z" transform="translate(-896.42 -214.853)" opacity="0.1"/><path d="M932.6,489.273q-2.528-1.282-4.927-2.756-3.353-2.054-6.5-4.424l-2.019-16.385-.064-.538-3.833-31.178-.228-1.843,6.367-.193,4.506-.135.3,2.651,2.563,21.974.064.527Z" transform="translate(-863.724 -297.479)" fill="#b2b1bb"/><path d="M927.67,486.592q-3.353-2.054-6.5-4.424l-2.019-16.385-.064-.538-3.833-31.178-.228-1.843,6.367-.193-.275,1.018.158,1.282,3.189,26.046.064.538Z" transform="translate(-863.724 -297.566)" opacity="0.1"/><path d="M998.735,432.92l-.345,2.791-.532,4.231-1.17,9.322-.082.644-.082.661-3.2,25.543-.989,7.941-.328,2.6-.035.3-1.287,10.375-1.463-.1h-.263c-1.012-.076-2.025-.17-3.031-.275-.585-.058-1.17-.123-1.755-.2-.89-.105-1.756-.228-2.657-.357h-.041l-.849-.135.8-5.782v-.2l3.745-28.007,1.586-11.862.088-.655.088-.655,1.246-9.316.527-3.909.3-2.306.38-.029Z" transform="translate(-890.936 -297.936)" fill="#b2b1bb"/><path d="M993.278,434.854l-.164,1.4-.48,4.055-1.1,9.322-.076.649-.1.691-2.177,18.457-2.341,19.65v.228l-.585,4.9-.375,3.2c-.585-.058-1.17-.123-1.755-.2-.89-.105-1.756-.228-2.657-.357h-.041l-.848-.135.831-5.776v-.2l3.745-28.007,1.586-11.862.088-.655.088-.655,1.247-9.316.527-3.909.3-2.306.38-.029Z" transform="translate(-890.916 -298.384)" opacity="0.2"/><path d="M1072.993,487.146l.252,1.7q-1.574.8-3.166,1.5-1.931.86-3.891,1.574l-.977-7.713-.644-5.027-1.106-8.678-1.065-8.38-.182-1.4-2.592-20.341-.457-3.57-.14-1.17-.135-1.053-.31-2.434h.211l4.453-.486,1.428-.146.445,2.979.632,4.237,4.178,27.913.889,5.94.831,5.553,1.3,8.7Z" transform="translate(-923.271 -297.359)" fill="#65617d"/><path d="M1072.993,487.146l.252,1.7q-1.574.8-3.166,1.5-1.931.86-3.891,1.574l-.977-7.713-.644-5.027-1.106-8.678-1.065-8.38-.182-1.4-2.592-20.341-.457-3.57-.14-1.17-.135-1.053-.31-2.434h.211l4.453-.486,1.428-.146.445,2.979.632,4.237,4.178,27.913.889,5.94.831,5.553,1.3,8.7Z" transform="translate(-923.271 -297.359)" fill="#ccc" opacity="0.1"/><path d="M1076.551,488.844q-1.574.8-3.166,1.5l-.667-5.817-.445-3.9-.626-5.448-.105-.93-.708-6.2-3.306-28.9-.533-4.629-.17-1.521-.275-1.334,1.428-.146.445,2.979.632,4.237,4.178,27.913.89,5.94.831,5.553,1.3,8.7.047.3Z" transform="translate(-926.577 -297.355)" fill="#b2b1bb"/><path d="M1102.311,431.5l-.035,2.241-.7,46.147c-.357.287-.72.585-1.083.849v.339l-.638.287-.451.2c-.4.31-.813.585-1.229.907l-.293.2c-.977.7-1.96,1.369-2.961,2.019v-1.41l.585-39.792.035-2.446.105-7.174.047-3.189,4.436.556Z" transform="translate(-938.346 -297.006)" fill="#65617d"/><path d="M1102.311,431.5l-.035,2.241-.7,46.147c-.357.287-.72.585-1.083.849v.339l-.638.287-.451.2c-.4.31-.813.585-1.229.907l-.293.2c-.977.7-1.96,1.369-2.961,2.019v-1.41l.585-39.792.035-2.446.105-7.174.047-3.189,4.436.556Z" transform="translate(-938.346 -297.006)" fill="#ccc" opacity="0.1"/><path d="M1105.808,431.877l-.035,2.241-.7,46.147c-.357.287-.72.585-1.083.849v.339l-.638.287v-.135l.105-18.141.176-29.323V431.59Z" transform="translate(-941.843 -297.384)" fill="#b2b1bb"/><path d="M1029.912,423.806a.09.09,0,0,0,0,.035,3.054,3.054,0,0,1-.076.509c-.217,1.381-.474,2.768-.784,4.155l-29.405.538-2.136.041-4.465.082-1.878.035h-.655l-12.95.24h-1.428l-4.681.088h-.1l-3.593.07-5.8.105h-.649l-18.141.334-5.267.094-4.424.082-3.856.07h-2.113l-2.926.053-13.325-.585-.655-.029-12.394-.532-4.927-.217-6.022-.263-36.416-1.574q-1.334-2.493-2.586-5.068c-.258-.527-.509-1.053-.761-1.586l37.065-.585h0l22.822-.351h0l4.313-.064h.661l11.7-.181,4.008.222h.07l2.013.111.655.035,7.994.445h0l19.434,1.071.673.035,9.082.5,2.745.152h.058l18.141,1,.667.041h.146Z" transform="translate(-835.712 -292.286)" fill="#65617d"/><path d="M1029.908,423.827a.074.074,0,0,1,0,.035,3.053,3.053,0,0,1-.076.509c-.217,1.381-.474,2.768-.784,4.155l-29.405.538-2.13.041-4.471.082-1.878.035h-.655l-12.95.24H976.13l-4.681.088h-.1l-3.593.07-5.8.105h-.649l-18.141.333-5.267.094-4.424.082-3.856.07h-2.113l-2.926.053-13.331-.585H910.6l-12.388-.538-4.933-.211-6.021-.258-36.416-1.58q-1.334-2.493-2.586-5.068c-.257-.527-.509-1.053-.761-1.586l37.065-.585h0l22.822-.351h0l4.313-.064h.661l11.7-.181,4.008.222h.076l2.013.111.655.041,7.994.439h0l19.434,1.071.667.035,9.082.5,2.745.152h.058l18.141,1,.667.041h.146Z" transform="translate(-835.707 -292.307)" fill="#b2b1bb"/><path d="M1029.9,423.856a.074.074,0,0,1,0,.035l-40.032.1h-.655l-18.24.047H959.228l-28.9.07h-2.5l-15.946.041h-.655l-16.648.041-46.352-2c-.258-.527-.509-1.053-.761-1.586l37.065-.585h0l22.822-.351h0l4.313-.064h.661l11.7-.181,4.009.222h.076l2.013.111.655.041,7.994.439h0l19.434,1.071.667.035,9.082.5,2.744.152h.059l18.141,1,.667.041h.146Z" transform="translate(-835.699 -292.336)" opacity="0.1"/><path d="M1092.91,381.14c.989.328,6.753,1.808,7.906,5.267S1092.91,381.14,1092.91,381.14Z" transform="translate(-937.512 -276.456)" opacity="0.1"/><path d="M1021.281,389.52s-8.4,2.551-12.189,2.551-18.609-.082-18.609-.082-38.71-12.932-27.094,4.775,29.973,7.824,29.973,7.824,1.486.328,3.295.743,36.814.082,37.967-1.317S1021.281,389.52,1021.281,389.52Z" transform="translate(-882.883 -279.067)" fill="#fbbebe"/><path d="M1083.761,402.59c-5.267.48-15.63.585-15.63.585s-7.742-15.32-14.331-14.823c0,0,6.092-6.917,8.567-6.092.41.135.667-.17.8-.761,6.437,1.972,18.726,6.794,19.955,15.25C1083.433,399.038,1083.638,400.957,1083.761,402.59Z" transform="translate(-921.289 -276.606)" opacity="0.1"/><path d="M1084.881,402.59c-5.267.48-15.636.585-15.636.585s-7.742-15.32-14.325-14.823c0,0,6.092-6.917,8.561-6.092.416.135.673-.17.8-.761,6.437,1.972,18.726,6.794,19.96,15.25C1084.559,399.038,1084.764,400.957,1084.881,402.59Z" transform="translate(-921.753 -276.606)" fill="#464353"/><path d="M1083.761,402.59c-5.267.486-15.63.585-15.63.585s-7.742-15.32-14.331-14.823c0,0,6.092-6.917,8.567-6.1.41.14.667-.164.8-.755,6.437,1.972,18.726,6.794,19.955,15.25C1083.433,399.044,1083.638,400.963,1083.761,402.59Z" transform="translate(-921.289 -276.606)" opacity="0.1"/><path d="M1027.05,491.292s14.823-3.628,17.128-1.65S1027.05,491.292,1027.05,491.292Z" transform="translate(-910.192 -321.22)" opacity="0.1"/><path d="M954.43,517.08s6.261,3.622,6.917,6.589S954.43,517.08,954.43,517.08Z" transform="translate(-880.068 -332.847)" opacity="0.1"/><path d="M909.16,307v64.908c0,1.118.585,1.276,1.574,1.814a21.739,21.739,0,0,0,21.142-.07c1-.527,1.615-.7,1.615-1.837V307.4S921.115,312.4,909.16,307Z" transform="translate(-861.289 -245.702)" fill="#333f4f"/><ellipse cx="12.166" cy="2.586" rx="12.166" ry="2.586" transform="translate(47.871 58.659)" fill="#2d394a" stroke="#40868e" stroke-miterlimit="10" stroke-width="1"/><g transform="translate(48.702 87.971)" opacity="0.2"><circle cx="0.275" cy="0.275" r="0.275"/><circle cx="0.275" cy="0.275" r="0.275" transform="translate(1.387 0.386)"/><circle cx="0.275" cy="0.275" r="0.275" transform="translate(3.096 0.93)"/><circle cx="0.275" cy="0.275" r="0.275" transform="translate(6.168 1.592)"/><circle cx="0.275" cy="0.275" r="0.275" transform="translate(9.404 1.984)"/><circle cx="0.275" cy="0.275" r="0.275" transform="translate(12.757 2.142)"/><circle cx="0.275" cy="0.275" r="0.275" transform="translate(17.567 1.481)"/><circle cx="0.275" cy="0.275" r="0.275" transform="translate(15.975 1.867)"/><circle cx="0.275" cy="0.275" r="0.275" transform="translate(20.546 0.93)"/><circle cx="0.275" cy="0.275" r="0.275" transform="translate(19.112 1.205)"/><circle cx="0.275" cy="0.275" r="0.275" transform="translate(22.12 0.386)"/><circle cx="0.275" cy="0.275" r="0.275" transform="translate(4.664 1.322)"/><circle cx="0.275" cy="0.275" r="0.275" transform="translate(7.836 1.867)"/><circle cx="0.275" cy="0.275" r="0.275" transform="translate(11.271 2.142)"/><circle cx="0.275" cy="0.275" r="0.275" transform="translate(14.395 2.142)"/></g><g transform="translate(48.702 89.311)" opacity="0.2"><circle cx="0.275" cy="0.275" r="0.275"/><circle cx="0.275" cy="0.275" r="0.275" transform="translate(1.387 0.392)"/><circle cx="0.275" cy="0.275" r="0.275" transform="translate(3.096 0.936)"/><circle cx="0.275" cy="0.275" r="0.275" transform="translate(6.168 1.598)"/><circle cx="0.275" cy="0.275" r="0.275" transform="translate(9.404 1.99)"/><circle cx="0.275" cy="0.275" r="0.275" transform="translate(12.757 2.142)"/><circle cx="0.275" cy="0.275" r="0.275" transform="translate(17.567 1.481)"/><circle cx="0.275" cy="0.275" r="0.275" transform="translate(15.975 1.873)"/><circle cx="0.275" cy="0.275" r="0.275" transform="translate(20.546 0.936)"/><circle cx="0.275" cy="0.275" r="0.275" transform="translate(19.112 1.211)"/><circle cx="0.275" cy="0.275" r="0.275" transform="translate(22.12 0.392)"/><circle cx="0.275" cy="0.275" r="0.275" transform="translate(4.664 1.323)"/><circle cx="0.275" cy="0.275" r="0.275" transform="translate(7.836 1.873)"/><circle cx="0.275" cy="0.275" r="0.275" transform="translate(11.271 2.142)"/><circle cx="0.275" cy="0.275" r="0.275" transform="translate(14.395 2.142)"/></g><g transform="translate(48.702 90.657)" opacity="0.2"><circle cx="0.275" cy="0.275" r="0.275"/><circle cx="0.275" cy="0.275" r="0.275" transform="translate(1.387 0.386)"/><circle cx="0.275" cy="0.275" r="0.275" transform="translate(3.096 0.936)"/><circle cx="0.275" cy="0.275" r="0.275" transform="translate(6.168 1.598)"/><circle cx="0.275" cy="0.275" r="0.275" transform="translate(9.404 1.99)"/><circle cx="0.275" cy="0.275" r="0.275" transform="translate(12.757 2.142)"/><circle cx="0.275" cy="0.275" r="0.275" transform="translate(17.567 1.481)"/><circle cx="0.275" cy="0.275" r="0.275" transform="translate(15.975 1.867)"/><circle cx="0.275" cy="0.275" r="0.275" transform="translate(20.546 0.936)"/><circle cx="0.275" cy="0.275" r="0.275" transform="translate(19.112 1.205)"/><circle cx="0.275" cy="0.275" r="0.275" transform="translate(22.12 0.386)"/><circle cx="0.275" cy="0.275" r="0.275" transform="translate(4.664 1.322)"/><circle cx="0.275" cy="0.275" r="0.275" transform="translate(7.836 1.867)"/><circle cx="0.275" cy="0.275" r="0.275" transform="translate(11.271 2.142)"/><circle cx="0.275" cy="0.275" r="0.275" transform="translate(14.395 2.142)"/></g><g transform="translate(48.702 92.003)" opacity="0.2"><circle cx="0.275" cy="0.275" r="0.275"/><circle cx="0.275" cy="0.275" r="0.275" transform="translate(1.387 0.386)"/><circle cx="0.275" cy="0.275" r="0.275" transform="translate(3.096 0.93)"/><circle cx="0.275" cy="0.275" r="0.275" transform="translate(6.168 1.592)"/><circle cx="0.275" cy="0.275" r="0.275" transform="translate(9.404 1.984)"/><circle cx="0.275" cy="0.275" r="0.275" transform="translate(12.757 2.136)"/><circle cx="0.275" cy="0.275" r="0.275" transform="translate(17.567 1.475)"/><circle cx="0.275" cy="0.275" r="0.275" transform="translate(15.975 1.867)"/><circle cx="0.275" cy="0.275" r="0.275" transform="translate(20.546 0.93)"/><circle cx="0.275" cy="0.275" r="0.275" transform="translate(19.112 1.205)"/><circle cx="0.275" cy="0.275" r="0.275" transform="translate(22.12 0.386)"/><circle cx="0.275" cy="0.275" r="0.275" transform="translate(4.664 1.317)"/><circle cx="0.275" cy="0.275" r="0.275" transform="translate(7.836 1.867)"/><circle cx="0.275" cy="0.275" r="0.275" transform="translate(11.271 2.136)"/><circle cx="0.275" cy="0.275" r="0.275" transform="translate(14.395 2.136)"/></g><g transform="translate(48.702 93.343)" opacity="0.2"><circle cx="0.275" cy="0.275" r="0.275"/><circle cx="0.275" cy="0.275" r="0.275" transform="translate(1.387 0.386)"/><circle cx="0.275" cy="0.275" r="0.275" transform="translate(3.096 0.936)"/><circle cx="0.275" cy="0.275" r="0.275" transform="translate(6.168 1.598)"/><circle cx="0.275" cy="0.275" r="0.275" transform="translate(9.404 1.99)"/><circle cx="0.275" cy="0.275" r="0.275" transform="translate(12.757 2.142)"/><circle cx="0.275" cy="0.275" r="0.275" transform="translate(17.567 1.481)"/><circle cx="0.275" cy="0.275" r="0.275" transform="translate(15.975 1.867)"/><circle cx="0.275" cy="0.275" r="0.275" transform="translate(20.546 0.936)"/><circle cx="0.275" cy="0.275" r="0.275" transform="translate(19.112 1.205)"/><circle cx="0.275" cy="0.275" r="0.275" transform="translate(22.12 0.386)"/><circle cx="0.275" cy="0.275" r="0.275" transform="translate(4.664 1.323)"/><circle cx="0.275" cy="0.275" r="0.275" transform="translate(7.836 1.867)"/><circle cx="0.275" cy="0.275" r="0.275" transform="translate(11.271 2.142)"/><circle cx="0.275" cy="0.275" r="0.275" transform="translate(14.395 2.142)"/></g><g transform="translate(48.702 94.689)" opacity="0.2"><circle cx="0.275" cy="0.275" r="0.275"/><circle cx="0.275" cy="0.275" r="0.275" transform="translate(1.387 0.386)"/><circle cx="0.275" cy="0.275" r="0.275" transform="translate(3.096 0.93)"/><circle cx="0.275" cy="0.275" r="0.275" transform="translate(6.168 1.592)"/><circle cx="0.275" cy="0.275" r="0.275" transform="translate(9.404 1.984)"/><circle cx="0.275" cy="0.275" r="0.275" transform="translate(12.757 2.142)"/><circle cx="0.275" cy="0.275" r="0.275" transform="translate(17.567 1.475)"/><circle cx="0.275" cy="0.275" r="0.275" transform="translate(15.975 1.867)"/><circle cx="0.275" cy="0.275" r="0.275" transform="translate(20.546 0.93)"/><circle cx="0.275" cy="0.275" r="0.275" transform="translate(19.112 1.205)"/><circle cx="0.275" cy="0.275" r="0.275" transform="translate(22.12 0.386)"/><circle cx="0.275" cy="0.275" r="0.275" transform="translate(4.664 1.323)"/><circle cx="0.275" cy="0.275" r="0.275" transform="translate(7.836 1.867)"/><circle cx="0.275" cy="0.275" r="0.275" transform="translate(11.271 2.142)"/><circle cx="0.275" cy="0.275" r="0.275" transform="translate(14.395 2.142)"/></g><g transform="translate(48.702 96.029)" opacity="0.2"><circle cx="0.275" cy="0.275" r="0.275"/><circle cx="0.275" cy="0.275" r="0.275" transform="translate(1.387 0.386)"/><circle cx="0.275" cy="0.275" r="0.275" transform="translate(3.096 0.936)"/><circle cx="0.275" cy="0.275" r="0.275" transform="translate(6.168 1.598)"/><circle cx="0.275" cy="0.275" r="0.275" transform="translate(9.404 1.99)"/><circle cx="0.275" cy="0.275" r="0.275" transform="translate(12.757 2.142)"/><circle cx="0.275" cy="0.275" r="0.275" transform="translate(17.567 1.481)"/><circle cx="0.275" cy="0.275" r="0.275" transform="translate(15.975 1.867)"/><circle cx="0.275" cy="0.275" r="0.275" transform="translate(20.546 0.936)"/><circle cx="0.275" cy="0.275" r="0.275" transform="translate(19.112 1.205)"/><circle cx="0.275" cy="0.275" r="0.275" transform="translate(22.12 0.386)"/><circle cx="0.275" cy="0.275" r="0.275" transform="translate(4.664 1.323)"/><circle cx="0.275" cy="0.275" r="0.275" transform="translate(7.836 1.867)"/><circle cx="0.275" cy="0.275" r="0.275" transform="translate(11.271 2.142)"/><circle cx="0.275" cy="0.275" r="0.275" transform="translate(14.395 2.142)"/></g><g transform="translate(48.702 97.375)" opacity="0.2"><circle cx="0.275" cy="0.275" r="0.275"/><circle cx="0.275" cy="0.275" r="0.275" transform="translate(1.387 0.386)"/><circle cx="0.275" cy="0.275" r="0.275" transform="translate(3.096 0.93)"/><circle cx="0.275" cy="0.275" r="0.275" transform="translate(6.168 1.592)"/><circle cx="0.275" cy="0.275" r="0.275" transform="translate(9.404 1.984)"/><circle cx="0.275" cy="0.275" r="0.275" transform="translate(12.757 2.142)"/><circle cx="0.275" cy="0.275" r="0.275" transform="translate(17.567 1.481)"/><circle cx="0.275" cy="0.275" r="0.275" transform="translate(15.975 1.867)"/><circle cx="0.275" cy="0.275" r="0.275" transform="translate(20.546 0.93)"/><circle cx="0.275" cy="0.275" r="0.275" transform="translate(19.112 1.205)"/><circle cx="0.275" cy="0.275" r="0.275" transform="translate(22.12 0.386)"/><circle cx="0.275" cy="0.275" r="0.275" transform="translate(4.664 1.323)"/><circle cx="0.275" cy="0.275" r="0.275" transform="translate(7.836 1.867)"/><circle cx="0.275" cy="0.275" r="0.275" transform="translate(11.271 2.142)"/><circle cx="0.275" cy="0.275" r="0.275" transform="translate(14.395 2.142)"/></g><g transform="translate(48.702 98.715)" opacity="0.2"><circle cx="0.275" cy="0.275" r="0.275"/><circle cx="0.275" cy="0.275" r="0.275" transform="translate(1.387 0.392)"/><circle cx="0.275" cy="0.275" r="0.275" transform="translate(3.096 0.936)"/><circle cx="0.275" cy="0.275" r="0.275" transform="translate(6.168 1.598)"/><circle cx="0.275" cy="0.275" r="0.275" transform="translate(9.404 1.99)"/><circle cx="0.275" cy="0.275" r="0.275" transform="translate(12.757 2.142)"/><circle cx="0.275" cy="0.275" r="0.275" transform="translate(17.567 1.481)"/><circle cx="0.275" cy="0.275" r="0.275" transform="translate(15.975 1.873)"/><circle cx="0.275" cy="0.275" r="0.275" transform="translate(20.546 0.936)"/><circle cx="0.275" cy="0.275" r="0.275" transform="translate(19.112 1.211)"/><circle cx="0.275" cy="0.275" r="0.275" transform="translate(22.12 0.392)"/><circle cx="0.275" cy="0.275" r="0.275" transform="translate(4.664 1.323)"/><circle cx="0.275" cy="0.275" r="0.275" transform="translate(7.836 1.873)"/><circle cx="0.275" cy="0.275" r="0.275" transform="translate(11.271 2.142)"/><circle cx="0.275" cy="0.275" r="0.275" transform="translate(14.395 2.142)"/></g><g transform="translate(48.702 100.061)" opacity="0.2"><circle cx="0.275" cy="0.275" r="0.275"/><circle cx="0.275" cy="0.275" r="0.275" transform="translate(1.387 0.386)"/><circle cx="0.275" cy="0.275" r="0.275" transform="translate(3.096 0.93)"/><circle cx="0.275" cy="0.275" r="0.275" transform="translate(6.168 1.592)"/><circle cx="0.275" cy="0.275" r="0.275" transform="translate(9.404 1.984)"/><circle cx="0.275" cy="0.275" r="0.275" transform="translate(12.757 2.142)"/><circle cx="0.275" cy="0.275" r="0.275" transform="translate(17.567 1.481)"/><circle cx="0.275" cy="0.275" r="0.275" transform="translate(15.975 1.867)"/><circle cx="0.275" cy="0.275" r="0.275" transform="translate(20.546 0.93)"/><circle cx="0.275" cy="0.275" r="0.275" transform="translate(19.112 1.205)"/><circle cx="0.275" cy="0.275" r="0.275" transform="translate(22.12 0.386)"/><circle cx="0.275" cy="0.275" r="0.275" transform="translate(4.664 1.322)"/><circle cx="0.275" cy="0.275" r="0.275" transform="translate(7.836 1.867)"/><circle cx="0.275" cy="0.275" r="0.275" transform="translate(11.271 2.142)"/><circle cx="0.275" cy="0.275" r="0.275" transform="translate(14.395 2.142)"/></g><g transform="translate(48.702 101.401)" opacity="0.2"><circle cx="0.275" cy="0.275" r="0.275"/><circle cx="0.275" cy="0.275" r="0.275" transform="translate(1.387 0.392)"/><circle cx="0.275" cy="0.275" r="0.275" transform="translate(3.096 0.936)"/><circle cx="0.275" cy="0.275" r="0.275" transform="translate(6.168 1.598)"/><circle cx="0.275" cy="0.275" r="0.275" transform="translate(9.404 1.99)"/><circle cx="0.275" cy="0.275" r="0.275" transform="translate(12.757 2.142)"/><circle cx="0.275" cy="0.275" r="0.275" transform="translate(17.567 1.481)"/><circle cx="0.275" cy="0.275" r="0.275" transform="translate(15.975 1.873)"/><circle cx="0.275" cy="0.275" r="0.275" transform="translate(20.546 0.936)"/><circle cx="0.275" cy="0.275" r="0.275" transform="translate(19.112 1.211)"/><circle cx="0.275" cy="0.275" r="0.275" transform="translate(22.12 0.392)"/><circle cx="0.275" cy="0.275" r="0.275" transform="translate(4.664 1.323)"/><circle cx="0.275" cy="0.275" r="0.275" transform="translate(7.836 1.873)"/><circle cx="0.275" cy="0.275" r="0.275" transform="translate(11.271 2.142)"/><circle cx="0.275" cy="0.275" r="0.275" transform="translate(14.395 2.142)"/></g><g transform="translate(48.702 102.747)" opacity="0.2"><circle cx="0.275" cy="0.275" r="0.275"/><circle cx="0.275" cy="0.275" r="0.275" transform="translate(1.387 0.386)"/><circle cx="0.275" cy="0.275" r="0.275" transform="translate(3.096 0.936)"/><circle cx="0.275" cy="0.275" r="0.275" transform="translate(6.168 1.598)"/><circle cx="0.275" cy="0.275" r="0.275" transform="translate(9.404 1.99)"/><circle cx="0.275" cy="0.275" r="0.275" transform="translate(12.757 2.142)"/><circle cx="0.275" cy="0.275" r="0.275" transform="translate(17.567 1.481)"/><circle cx="0.275" cy="0.275" r="0.275" transform="translate(15.975 1.867)"/><circle cx="0.275" cy="0.275" r="0.275" transform="translate(20.546 0.936)"/><circle cx="0.275" cy="0.275" r="0.275" transform="translate(19.112 1.205)"/><circle cx="0.275" cy="0.275" r="0.275" transform="translate(22.12 0.386)"/><circle cx="0.275" cy="0.275" r="0.275" transform="translate(4.664 1.322)"/><circle cx="0.275" cy="0.275" r="0.275" transform="translate(7.836 1.867)"/><circle cx="0.275" cy="0.275" r="0.275" transform="translate(11.271 2.142)"/><circle cx="0.275" cy="0.275" r="0.275" transform="translate(14.395 2.142)"/></g><g transform="translate(48.702 104.093)" opacity="0.2"><circle cx="0.275" cy="0.275" r="0.275"/><circle cx="0.275" cy="0.275" r="0.275" transform="translate(1.387 0.386)"/><circle cx="0.275" cy="0.275" r="0.275" transform="translate(3.096 0.93)"/><circle cx="0.275" cy="0.275" r="0.275" transform="translate(6.168 1.592)"/><circle cx="0.275" cy="0.275" r="0.275" transform="translate(9.404 1.984)"/><circle cx="0.275" cy="0.275" r="0.275" transform="translate(12.757 2.136)"/><circle cx="0.275" cy="0.275" r="0.275" transform="translate(17.567 1.475)"/><circle cx="0.275" cy="0.275" r="0.275" transform="translate(15.975 1.867)"/><circle cx="0.275" cy="0.275" r="0.275" transform="translate(20.546 0.93)"/><circle cx="0.275" cy="0.275" r="0.275" transform="translate(19.112 1.205)"/><circle cx="0.275" cy="0.275" r="0.275" transform="translate(22.12 0.386)"/><circle cx="0.275" cy="0.275" r="0.275" transform="translate(4.664 1.317)"/><circle cx="0.275" cy="0.275" r="0.275" transform="translate(7.836 1.867)"/><circle cx="0.275" cy="0.275" r="0.275" transform="translate(11.271 2.136)"/><circle cx="0.275" cy="0.275" r="0.275" transform="translate(14.395 2.136)"/></g><g transform="translate(48.702 105.433)" opacity="0.2"><circle cx="0.275" cy="0.275" r="0.275"/><circle cx="0.275" cy="0.275" r="0.275" transform="translate(1.387 0.386)"/><circle cx="0.275" cy="0.275" r="0.275" transform="translate(3.096 0.936)"/><circle cx="0.275" cy="0.275" r="0.275" transform="translate(6.168 1.598)"/><circle cx="0.275" cy="0.275" r="0.275" transform="translate(9.404 1.99)"/><circle cx="0.275" cy="0.275" r="0.275" transform="translate(12.757 2.142)"/><circle cx="0.275" cy="0.275" r="0.275" transform="translate(17.567 1.481)"/><circle cx="0.275" cy="0.275" r="0.275" transform="translate(15.975 1.867)"/><circle cx="0.275" cy="0.275" r="0.275" transform="translate(20.546 0.936)"/><circle cx="0.275" cy="0.275" r="0.275" transform="translate(19.112 1.205)"/><circle cx="0.275" cy="0.275" r="0.275" transform="translate(22.12 0.386)"/><circle cx="0.275" cy="0.275" r="0.275" transform="translate(4.664 1.322)"/><circle cx="0.275" cy="0.275" r="0.275" transform="translate(7.836 1.867)"/><circle cx="0.275" cy="0.275" r="0.275" transform="translate(11.271 2.142)"/><circle cx="0.275" cy="0.275" r="0.275" transform="translate(14.395 2.142)"/></g><g transform="translate(48.702 106.779)" opacity="0.2"><circle cx="0.275" cy="0.275" r="0.275"/><circle cx="0.275" cy="0.275" r="0.275" transform="translate(1.387 0.386)"/><circle cx="0.275" cy="0.275" r="0.275" transform="translate(3.096 0.93)"/><circle cx="0.275" cy="0.275" r="0.275" transform="translate(6.168 1.592)"/><circle cx="0.275" cy="0.275" r="0.275" transform="translate(9.404 1.984)"/><circle cx="0.275" cy="0.275" r="0.275" transform="translate(12.757 2.142)"/><circle cx="0.275" cy="0.275" r="0.275" transform="translate(17.567 1.475)"/><circle cx="0.275" cy="0.275" r="0.275" transform="translate(15.975 1.867)"/><circle cx="0.275" cy="0.275" r="0.275" transform="translate(20.546 0.93)"/><circle cx="0.275" cy="0.275" r="0.275" transform="translate(19.112 1.205)"/><circle cx="0.275" cy="0.275" r="0.275" transform="translate(22.12 0.386)"/><circle cx="0.275" cy="0.275" r="0.275" transform="translate(4.664 1.323)"/><circle cx="0.275" cy="0.275" r="0.275" transform="translate(7.836 1.867)"/><circle cx="0.275" cy="0.275" r="0.275" transform="translate(11.271 2.142)"/><circle cx="0.275" cy="0.275" r="0.275" transform="translate(14.395 2.142)"/></g><g transform="translate(48.702 108.119)" opacity="0.2"><circle cx="0.275" cy="0.275" r="0.275"/><circle cx="0.275" cy="0.275" r="0.275" transform="translate(1.387 0.386)"/><circle cx="0.275" cy="0.275" r="0.275" transform="translate(3.096 0.936)"/><circle cx="0.275" cy="0.275" r="0.275" transform="translate(6.168 1.598)"/><circle cx="0.275" cy="0.275" r="0.275" transform="translate(9.404 1.99)"/><circle cx="0.275" cy="0.275" r="0.275" transform="translate(12.757 2.142)"/><circle cx="0.275" cy="0.275" r="0.275" transform="translate(17.567 1.481)"/><circle cx="0.275" cy="0.275" r="0.275" transform="translate(15.975 1.867)"/><circle cx="0.275" cy="0.275" r="0.275" transform="translate(20.546 0.936)"/><circle cx="0.275" cy="0.275" r="0.275" transform="translate(19.112 1.205)"/><circle cx="0.275" cy="0.275" r="0.275" transform="translate(22.12 0.386)"/><circle cx="0.275" cy="0.275" r="0.275" transform="translate(4.664 1.323)"/><circle cx="0.275" cy="0.275" r="0.275" transform="translate(7.836 1.867)"/><circle cx="0.275" cy="0.275" r="0.275" transform="translate(11.271 2.142)"/><circle cx="0.275" cy="0.275" r="0.275" transform="translate(14.395 2.142)"/></g><g transform="translate(48.702 109.465)" opacity="0.2"><circle cx="0.275" cy="0.275" r="0.275"/><circle cx="0.275" cy="0.275" r="0.275" transform="translate(1.387 0.386)"/><circle cx="0.275" cy="0.275" r="0.275" transform="translate(3.096 0.93)"/><circle cx="0.275" cy="0.275" r="0.275" transform="translate(6.168 1.592)"/><circle cx="0.275" cy="0.275" r="0.275" transform="translate(9.404 1.984)"/><circle cx="0.275" cy="0.275" r="0.275" transform="translate(12.757 2.142)"/><circle cx="0.275" cy="0.275" r="0.275" transform="translate(17.567 1.481)"/><circle cx="0.275" cy="0.275" r="0.275" transform="translate(15.975 1.867)"/><circle cx="0.275" cy="0.275" r="0.275" transform="translate(20.546 0.93)"/><circle cx="0.275" cy="0.275" r="0.275" transform="translate(19.112 1.205)"/><circle cx="0.275" cy="0.275" r="0.275" transform="translate(22.12 0.386)"/><circle cx="0.275" cy="0.275" r="0.275" transform="translate(4.664 1.323)"/><circle cx="0.275" cy="0.275" r="0.275" transform="translate(7.836 1.867)"/><circle cx="0.275" cy="0.275" r="0.275" transform="translate(11.271 2.142)"/><circle cx="0.275" cy="0.275" r="0.275" transform="translate(14.395 2.142)"/></g><g transform="translate(48.702 110.805)" opacity="0.2"><circle cx="0.275" cy="0.275" r="0.275"/><circle cx="0.275" cy="0.275" r="0.275" transform="translate(1.387 0.392)"/><circle cx="0.275" cy="0.275" r="0.275" transform="translate(3.096 0.936)"/><circle cx="0.275" cy="0.275" r="0.275" transform="translate(6.168 1.598)"/><circle cx="0.275" cy="0.275" r="0.275" transform="translate(9.404 1.99)"/><circle cx="0.275" cy="0.275" r="0.275" transform="translate(12.757 2.142)"/><circle cx="0.275" cy="0.275" r="0.275" transform="translate(17.567 1.481)"/><circle cx="0.275" cy="0.275" r="0.275" transform="translate(15.975 1.873)"/><circle cx="0.275" cy="0.275" r="0.275" transform="translate(20.546 0.936)"/><circle cx="0.275" cy="0.275" r="0.275" transform="translate(19.112 1.211)"/><circle cx="0.275" cy="0.275" r="0.275" transform="translate(22.12 0.392)"/><circle cx="0.275" cy="0.275" r="0.275" transform="translate(4.664 1.323)"/><circle cx="0.275" cy="0.275" r="0.275" transform="translate(7.836 1.873)"/><circle cx="0.275" cy="0.275" r="0.275" transform="translate(11.271 2.142)"/><circle cx="0.275" cy="0.275" r="0.275" transform="translate(14.395 2.142)"/></g><g transform="translate(48.702 112.151)" opacity="0.2"><circle cx="0.275" cy="0.275" r="0.275"/><circle cx="0.275" cy="0.275" r="0.275" transform="translate(1.387 0.386)"/><circle cx="0.275" cy="0.275" r="0.275" transform="translate(3.096 0.93)"/><circle cx="0.275" cy="0.275" r="0.275" transform="translate(6.168 1.592)"/><circle cx="0.275" cy="0.275" r="0.275" transform="translate(9.404 1.984)"/><circle cx="0.275" cy="0.275" r="0.275" transform="translate(12.757 2.142)"/><circle cx="0.275" cy="0.275" r="0.275" transform="translate(17.567 1.481)"/><circle cx="0.275" cy="0.275" r="0.275" transform="translate(15.975 1.867)"/><circle cx="0.275" cy="0.275" r="0.275" transform="translate(20.546 0.93)"/><circle cx="0.275" cy="0.275" r="0.275" transform="translate(19.112 1.205)"/><circle cx="0.275" cy="0.275" r="0.275" transform="translate(22.12 0.386)"/><circle cx="0.275" cy="0.275" r="0.275" transform="translate(4.664 1.323)"/><circle cx="0.275" cy="0.275" r="0.275" transform="translate(7.836 1.867)"/><circle cx="0.275" cy="0.275" r="0.275" transform="translate(11.271 2.142)"/><circle cx="0.275" cy="0.275" r="0.275" transform="translate(14.395 2.142)"/></g><g transform="translate(48.702 113.491)" opacity="0.2"><circle cx="0.275" cy="0.275" r="0.275"/><circle cx="0.275" cy="0.275" r="0.275" transform="translate(1.387 0.392)"/><circle cx="0.275" cy="0.275" r="0.275" transform="translate(3.096 0.936)"/><circle cx="0.275" cy="0.275" r="0.275" transform="translate(6.168 1.598)"/><circle cx="0.275" cy="0.275" r="0.275" transform="translate(9.404 1.99)"/><circle cx="0.275" cy="0.275" r="0.275" transform="translate(12.757 2.142)"/><circle cx="0.275" cy="0.275" r="0.275" transform="translate(17.567 1.481)"/><circle cx="0.275" cy="0.275" r="0.275" transform="translate(15.975 1.873)"/><circle cx="0.275" cy="0.275" r="0.275" transform="translate(20.546 0.936)"/><circle cx="0.275" cy="0.275" r="0.275" transform="translate(19.112 1.211)"/><circle cx="0.275" cy="0.275" r="0.275" transform="translate(22.12 0.392)"/><circle cx="0.275" cy="0.275" r="0.275" transform="translate(4.664 1.323)"/><circle cx="0.275" cy="0.275" r="0.275" transform="translate(7.836 1.873)"/><circle cx="0.275" cy="0.275" r="0.275" transform="translate(11.271 2.142)"/><circle cx="0.275" cy="0.275" r="0.275" transform="translate(14.395 2.142)"/></g><g transform="translate(48.702 114.837)" opacity="0.2"><circle cx="0.275" cy="0.275" r="0.275"/><circle cx="0.275" cy="0.275" r="0.275" transform="translate(1.387 0.386)"/><circle cx="0.275" cy="0.275" r="0.275" transform="translate(3.096 0.936)"/><circle cx="0.275" cy="0.275" r="0.275" transform="translate(6.168 1.598)"/><circle cx="0.275" cy="0.275" r="0.275" transform="translate(9.404 1.99)"/><circle cx="0.275" cy="0.275" r="0.275" transform="translate(12.757 2.142)"/><circle cx="0.275" cy="0.275" r="0.275" transform="translate(17.567 1.481)"/><circle cx="0.275" cy="0.275" r="0.275" transform="translate(15.975 1.867)"/><circle cx="0.275" cy="0.275" r="0.275" transform="translate(20.546 0.936)"/><circle cx="0.275" cy="0.275" r="0.275" transform="translate(19.112 1.205)"/><circle cx="0.275" cy="0.275" r="0.275" transform="translate(22.12 0.386)"/><circle cx="0.275" cy="0.275" r="0.275" transform="translate(4.664 1.322)"/><circle cx="0.275" cy="0.275" r="0.275" transform="translate(7.836 1.867)"/><circle cx="0.275" cy="0.275" r="0.275" transform="translate(11.271 2.142)"/><circle cx="0.275" cy="0.275" r="0.275" transform="translate(14.395 2.142)"/></g><g transform="translate(48.702 116.183)" opacity="0.2"><circle cx="0.275" cy="0.275" r="0.275"/><circle cx="0.275" cy="0.275" r="0.275" transform="translate(1.387 0.386)"/><circle cx="0.275" cy="0.275" r="0.275" transform="translate(3.096 0.93)"/><circle cx="0.275" cy="0.275" r="0.275" transform="translate(6.168 1.592)"/><circle cx="0.275" cy="0.275" r="0.275" transform="translate(9.404 1.984)"/><circle cx="0.275" cy="0.275" r="0.275" transform="translate(12.757 2.136)"/><circle cx="0.275" cy="0.275" r="0.275" transform="translate(17.567 1.475)"/><circle cx="0.275" cy="0.275" r="0.275" transform="translate(15.975 1.867)"/><circle cx="0.275" cy="0.275" r="0.275" transform="translate(20.546 0.93)"/><circle cx="0.275" cy="0.275" r="0.275" transform="translate(19.112 1.205)"/><circle cx="0.275" cy="0.275" r="0.275" transform="translate(22.12 0.386)"/><circle cx="0.275" cy="0.275" r="0.275" transform="translate(4.664 1.317)"/><circle cx="0.275" cy="0.275" r="0.275" transform="translate(7.836 1.867)"/><circle cx="0.275" cy="0.275" r="0.275" transform="translate(11.271 2.136)"/><circle cx="0.275" cy="0.275" r="0.275" transform="translate(14.395 2.136)"/></g><g transform="translate(48.702 117.523)" opacity="0.2"><circle cx="0.275" cy="0.275" r="0.275"/><circle cx="0.275" cy="0.275" r="0.275" transform="translate(1.387 0.386)"/><circle cx="0.275" cy="0.275" r="0.275" transform="translate(3.096 0.936)"/><circle cx="0.275" cy="0.275" r="0.275" transform="translate(6.168 1.598)"/><circle cx="0.275" cy="0.275" r="0.275" transform="translate(9.404 1.99)"/><circle cx="0.275" cy="0.275" r="0.275" transform="translate(12.757 2.142)"/><circle cx="0.275" cy="0.275" r="0.275" transform="translate(17.567 1.481)"/><circle cx="0.275" cy="0.275" r="0.275" transform="translate(15.975 1.867)"/><circle cx="0.275" cy="0.275" r="0.275" transform="translate(20.546 0.936)"/><circle cx="0.275" cy="0.275" r="0.275" transform="translate(19.112 1.205)"/><circle cx="0.275" cy="0.275" r="0.275" transform="translate(22.12 0.386)"/><circle cx="0.275" cy="0.275" r="0.275" transform="translate(4.664 1.322)"/><circle cx="0.275" cy="0.275" r="0.275" transform="translate(7.836 1.867)"/><circle cx="0.275" cy="0.275" r="0.275" transform="translate(11.271 2.142)"/><circle cx="0.275" cy="0.275" r="0.275" transform="translate(14.395 2.142)"/></g><g transform="translate(48.702 118.868)" opacity="0.2"><circle cx="0.275" cy="0.275" r="0.275"/><circle cx="0.275" cy="0.275" r="0.275" transform="translate(1.387 0.386)"/><circle cx="0.275" cy="0.275" r="0.275" transform="translate(3.096 0.93)"/><circle cx="0.275" cy="0.275" r="0.275" transform="translate(6.168 1.592)"/><circle cx="0.275" cy="0.275" r="0.275" transform="translate(9.404 1.984)"/><circle cx="0.275" cy="0.275" r="0.275" transform="translate(12.757 2.136)"/><circle cx="0.275" cy="0.275" r="0.275" transform="translate(17.567 1.475)"/><circle cx="0.275" cy="0.275" r="0.275" transform="translate(15.975 1.867)"/><circle cx="0.275" cy="0.275" r="0.275" transform="translate(20.546 0.93)"/><circle cx="0.275" cy="0.275" r="0.275" transform="translate(19.112 1.205)"/><circle cx="0.275" cy="0.275" r="0.275" transform="translate(22.12 0.386)"/><circle cx="0.275" cy="0.275" r="0.275" transform="translate(4.664 1.323)"/><circle cx="0.275" cy="0.275" r="0.275" transform="translate(7.836 1.867)"/><circle cx="0.275" cy="0.275" r="0.275" transform="translate(11.271 2.136)"/><circle cx="0.275" cy="0.275" r="0.275" transform="translate(14.395 2.136)"/></g><path d="M984.656,250.285s8.011-3,10.674,3.178l.749.193,1.679.433c4.243-6.338,15.414,0,15.414,0l15.683,6.934-.585.977-15.718-5.483s-2.078,6.437-4.8,7.988-7.157-.86-7.157-.86c-2.762-1.106-2.973-5.957-2.926-8.3l-2.376-.474c-.164,2.341-1.03,6.852-5.267,7.362-5.764.69-6.168-4.395-6.168-4.395S983.708,251.367,984.656,250.285Z" transform="translate(-892.271 -221.873)" fill="#3f3d56"/><path d="M991.978,230.718c-.263.585-.632,1.41-.1,1.791a.989.989,0,0,0,.8.094c1.691-.369,2.587-2.171,3.295-3.751s1.755-3.347,3.511-3.511c2.031-.17,4.155,2.042,5.852.884.515-.351.825-.971,1.4-1.229a2.276,2.276,0,0,1,1.3-.082,9.117,9.117,0,0,1,7.449,7.806c.088.819.257,1.884,1.071,2.013a3.459,3.459,0,0,0,.907-.105c1.533-.176,2.469,1.592,2.961,3.055.667,2,1.34,4.1.954,6.174-.3,1.633-1.264,3.131-1.317,4.793a8.965,8.965,0,0,0,1.1,3.921c.568,1.246,1.492,2.709,2.85,2.534,1.112-.146,1.726-1.328,2.265-2.341s1.5-2.054,2.581-1.756c.48.14.983.55,1.422.3a1.024,1.024,0,0,0,.415-.714c.527-2.306-.228-4.892.89-6.97.86-1.6,2.61-2.464,4.032-3.6a11.528,11.528,0,0,0,1.557-16.514c-1.516-1.756-3.7-3.353-3.827-5.688-.094-1.756,1.112-3.417,1.124-5.2a6.372,6.372,0,0,0-2.341-4.465,15.349,15.349,0,0,0-13.8-3.634,11.013,11.013,0,0,1-3.862.62c-1.51-.187-2.774-1.17-4.131-1.884a10.563,10.563,0,0,0-13.19,3.587c-1.562,2.428-2.171,5.6-4.5,7.3-1.533,1.118-3.722,1.533-4.57,3.23a5.764,5.764,0,0,0-.211,3.353,7.852,7.852,0,0,0,2.5,4.793C991.7,227.038,992.914,228.571,991.978,230.718Z" transform="translate(-893.876 -202.249)" fill="#464353"/><g transform="translate(93.752 11.078)" opacity="0.1"><path d="M1066.81,222.549a8.682,8.682,0,0,0,.351-1.369A8.122,8.122,0,0,0,1066.81,222.549Z" transform="translate(-1020.437 -221.18)"/><path d="M992.232,239.724a4.906,4.906,0,0,1,.328-.878c.948-2.148-.269-3.681-1.685-5.126a7.853,7.853,0,0,1-2.5-4.793,12.127,12.127,0,0,1-.141-1.527,3.366,3.366,0,0,0-.31.48,5.766,5.766,0,0,0-.211,3.353,7.854,7.854,0,0,0,2.5,4.793C991.3,237.114,992.261,238.284,992.232,239.724Z" transform="translate(-987.565 -223.76)"/><path d="M1052.3,279.724c-1.083-.316-2.042.749-2.575,1.756s-1.17,2.171-2.271,2.341c-1.352.176-2.282-1.287-2.85-2.534a8.665,8.665,0,0,1-1.1-3.921,1.69,1.69,0,0,1,.047-.486,6.764,6.764,0,0,0,.4,6.712c.568,1.247,1.492,2.709,2.85,2.534,1.112-.146,1.726-1.328,2.264-2.341s1.5-2.054,2.581-1.755c.48.14.983.55,1.422.3a1.024,1.024,0,0,0,.415-.714,8.784,8.784,0,0,0,.193-1.568C1053.264,280.233,1052.784,279.876,1052.3,279.724Z" transform="translate(-1010.496 -244.285)"/><path d="M1067.307,259.665c-1.416,1.135-3.166,2-4.032,3.6a5.809,5.809,0,0,0-.585,2.23c.878-1.551,2.586-2.405,3.985-3.511a11.7,11.7,0,0,0,4.155-7.022A11.7,11.7,0,0,1,1067.307,259.665Z" transform="translate(-1018.728 -235.193)"/><path d="M1024.086,258.011a13.347,13.347,0,0,0,.626-2.031c.386-2.072-.293-4.178-.96-6.174-.486-1.463-1.428-3.23-2.926-3.055a3.474,3.474,0,0,1-.913.105c-.813-.129-.983-1.17-1.065-2.013a9.123,9.123,0,0,0-7.449-7.806,2.294,2.294,0,0,0-1.3.082c-.585.258-.884.878-1.393,1.229-1.679,1.17-3.8-1.053-5.852-.884-1.72.14-2.78,1.908-3.511,3.511s-1.6,3.382-3.295,3.751a.989.989,0,0,1-.8-.094.632.632,0,0,1-.263-.492,3.746,3.746,0,0,1-.3,1.006c-.263.585-.632,1.41-.1,1.791a.989.989,0,0,0,.8.094c1.691-.369,2.587-2.171,3.295-3.751s1.756-3.347,3.511-3.511c2.031-.17,4.155,2.042,5.852.884.515-.351.825-.971,1.4-1.229a2.276,2.276,0,0,1,1.3-.082,9.117,9.117,0,0,1,7.449,7.806c.088.819.257,1.884,1.071,2.013a3.462,3.462,0,0,0,.907-.105c1.533-.176,2.469,1.592,2.961,3.055A13.539,13.539,0,0,1,1024.086,258.011Z" transform="translate(-990.365 -227.734)"/></g></g><g transform="translate(-36.006 -60.957)" opacity="0.9"><path d="M39.5,171.211c0,.544,0,1.088.041,1.639a114.594,114.594,0,0,0,2.06,17.766c3.353,17.438,10.358,34.877,18.644,51.5.135.263.269.527.4.79.2.392.392.784.585,1.17q.585,1.205,1.217,2.388l.919,1.756h0c.217.421.445.843.667,1.27.135.257.275.521.421.784A146.036,146.036,0,0,0,71.967,263l.31.456A79.065,79.065,0,0,0,84.191,277.5a70.653,70.653,0,0,0,28.738,15.56c.363.105.726.2,1.094.3.7.181,1.416.357,2.13.527.492.117.983.228,1.48.328a77.7,77.7,0,0,0,10.4,1.5c1.9.146,3.8.217,5.688.217h.819a69.341,69.341,0,0,0,6.993-.41l.334-.041a60.637,60.637,0,0,0,18.234-4.91q1.387-.62,2.721-1.317l.456-.234.222-.123h0a73.827,73.827,0,0,0,8.579-5.366c3.189-2.288,6.2-4.769,9.105-7.321a140.1,140.1,0,0,0,12.289-12.1l.176-.193q2.475-2.791,4.722-5.735v-.035q1.562-2.054,3-4.184c.047-.059.088-.123.135-.193,1.4-2.089,2.7-4.231,3.88-6.437l.269-.509q1.282-2.423,2.341-4.927c4.049-9.41,5.852-19.6,6.841-29.809a177.115,177.115,0,0,0-4.617-62.532q-1.106-4.19-2.452-8.339c-.123-.369-.24-.743-.369-1.112-.193-.585-.4-1.17-.585-1.785-.082-.246-.17-.5-.257-.743q-1.17-3.371-2.534-6.7l-.474-1.17c-.5-1.17-1.007-2.393-1.539-3.581-.486-1.094-.989-2.194-1.516-3.283-.088-.176-.17-.345-.252-.521-4.506-9.252-10.416-18.246-18.819-25.028q-.878-.693-1.756-1.352-1.317-.983-2.721-1.884l-.661-.421-.246-.152-.176-.105-.1-.059c-.474-.287-.96-.585-1.445-.831s-.995-.527-1.5-.778h-.07l-.2-.094c-.392-.2-.79-.386-1.17-.585l-.41-.181-.158-.07-.661-.275a46.23,46.23,0,0,0-9.328-2.791,43.088,43.088,0,0,0-5.36-.655,35.491,35.491,0,0,0-8.152.439c-.41.07-.813.146-1.217.234a24.853,24.853,0,0,0-9.451,4.1c-3.681,2.668-6.279,6.244-8.637,9.948l-.24.375c-.4.626-.784,1.252-1.17,1.878-1.352,2.189-2.7,4.389-4.131,6.548-1.323,2-2.709,3.968-4.207,5.852a49.851,49.851,0,0,1-4.916,5.349c-.263.246-.533.492-.808.731a36.556,36.556,0,0,1-11.066,6.771,20.65,20.65,0,0,1-11.429,1.2h0a15.267,15.267,0,0,1-3.148-1.007c-1.908-.843-3.774-1.668-5.612-2.4a41.548,41.548,0,0,0-10.258-2.926h0a22.822,22.822,0,0,0-10.82,1.17c-.585.2-1.141.439-1.72.7a24.437,24.437,0,0,0-6.917,4.629c-.24.228-.474.462-.708.7-5.12,5.232-7.941,12.47-9.457,19.551a88.947,88.947,0,0,0-1.9,20.317Z" transform="translate(-39.474 -50.215)" fill="#1DE9B6" opacity="0.7"/><path d="M166.17,265.633,165,266.991c.363.105.726.2,1.094.3.7.181,1.416.357,2.13.527.492.117.983.228,1.48.328a77.7,77.7,0,0,0,10.4,1.5c1.9.146,3.8.217,5.688.217a8.94,8.94,0,0,0,.948-1.691c.772-1.808,3.786-5.015,7.022-8.1-.064.521-.105.819-.105.819v.2l-.035,8.351.334-.041a60.636,60.636,0,0,0,18.234-4.91q1.387-.62,2.721-1.317l.456-.234.222-.123c.4-2.013.772-3.944,1.071-5.483l.035-.217c.041-.2.076-.41.117-.585s.064-.363.1-.527.041-.24.064-.351c.2-1.059.31-1.691.31-1.691a8.255,8.255,0,0,1,.105-.96,8.45,8.45,0,0,1,2.265-4.74,4.442,4.442,0,0,0,1.088-1.878h0a16.484,16.484,0,0,0,.439-5.77c-.029-.392-.064-.626-.064-.626a8.79,8.79,0,0,0,3.546-4.8,14.354,14.354,0,0,0,.638-2.341c.954-5.144,3.9-15.993,4.26-17.327h0l.035-.129s.076-.187.211-.544a.648.648,0,0,1,.041-.129l.053-.135c1.323-3.622,6.437-18.3,6.022-28.054-.451-11.195.679-17.023.679-17.023l1.323-24.332v-.257L238,143.5v-.4c.193.146.369.287.509.4l.322.269.111.105v-.281c.2.17.322.281.322.281s.585-9.451.527-14.793c0-.626,0-1.205-.047-1.7,3.956-1.34,9.948-3.552,10.317-4.681.287-.93,2.51-2.979,4.424-4.617l1.047-.878.544-.451c.761-.62,1.282-1.024,1.282-1.024a1.171,1.171,0,0,1-.415-.158c.211-.094.439-.2.673-.334.585-.3,1.17-.679,1.849-1.118a31.571,31.571,0,0,0,8.163-7.607,6.346,6.346,0,0,0,1.4-4.477,2.5,2.5,0,0,0-.094-.375l8.087-11.628.942-1.358a2.212,2.212,0,0,0-.2-2.774l.035-.047-.059-.041-.351-.234.064.059a1.17,1.17,0,0,0-1.521.328l-.14.2-7.8,11.189-1.375,1.984c-3.043-.919-7.473,1.668-10.966,4.3-1.264.954-2.411,1.908-3.318,2.709l-.585.533c-.275-.585-.433-.995-.433-.995-.17,1.849-6.7,4.623-8.222,5.629a5.565,5.565,0,0,1-2.276.767c.217-7.022-5.22-14.425-5.22-14.425l-10.533-13.43h0l-.65-.825-2.083-2.651a12.2,12.2,0,0,1-.187-2.5,15.523,15.523,0,0,1,.585-4.061c.064-.211.135-.427.2-.644A13.818,13.818,0,0,1,223.664,72c.111-.217.222-.439.345-.655h.059c-.228.808-.468,1.621-.632,2.434-.047.222-.088.439-.117.661l-.035.275a8.914,8.914,0,0,0-.047,1.047v.152c.105,1.41,1.141,6.525,2.557,6.3a.831.831,0,0,0,.761-.369,3.641,3.641,0,0,0,.421-.585,3.815,3.815,0,0,0,.24-.492,5.512,5.512,0,0,0,.24-.7,14.137,14.137,0,0,0,.334-4.1,11.823,11.823,0,0,1-.211,1.908c.076-1.48-.047-3.037-.094-4.3V71.98h0a7.614,7.614,0,0,1,.029-.813h.164V71.16h.17a17.555,17.555,0,0,0,3.88-1.17,17.848,17.848,0,0,0,4.237-2.581,4.441,4.441,0,0,0,.831-.117,4.383,4.383,0,0,0,2.1-1.17l.117-.129a2.961,2.961,0,0,1-.5,2.68.445.445,0,0,1-.064.082h.082a4.8,4.8,0,0,0,3.81-2.926.929.929,0,0,0,.07-.158,10.715,10.715,0,0,0,.509-5.2,35.161,35.161,0,0,1-.38-5.267c0-.427.076-.854.117-1.282v-.152a8.3,8.3,0,0,0,0-1.428.652.652,0,0,0,0-.1,5.528,5.528,0,0,0-.14-.767h.053a1.252,1.252,0,0,0,.966-.5l.105-.088a2.03,2.03,0,0,0,.339-.4,3.059,3.059,0,0,0,.322-.585,9.868,9.868,0,0,0,.4-1.434,21.909,21.909,0,0,0,.685-6.022c-.041.585-.117,1.229-.211,1.843.164-2.341-.164-4.588-1.7-6.273a11.945,11.945,0,0,0-3.962-2.516,2.973,2.973,0,0,1-1.282-.913,3.775,3.775,0,0,1-.4-1.6c-.5-3.406-3.7-5.764-6.882-7.145-4.1-1.756-9.029-2.546-12.968-.427-1.914,1.024-3.423,2.639-5.15,3.956-2.189,1.656-4.681,2.821-7.022,4.272a14.131,14.131,0,0,0-5.7,5.758c-1.124,2.469-.948,5.384-.638,8.193.158,1.428.351,2.856.427,4.26V52.2a21.974,21.974,0,0,1-1.756,9.421A18.456,18.456,0,0,1,192.1,69.34a6.824,6.824,0,0,0-1.709,1.481,1.843,1.843,0,0,0-.14,2.112,2.287,2.287,0,0,0,.474.445,3.768,3.768,0,0,1,.544.468,1.639,1.639,0,0,1,.3.515,3.1,3.1,0,0,1,.047,1.7.274.274,0,0,1-.029.152l-.07.293a16.649,16.649,0,0,1-4.529,7.66c.094.69.936.96,1.633,1.065h0a37.92,37.92,0,0,0,5.53.4h.8c-.088.211-.17.427-.257.655h0c-.187.5-.392,1.053-.585,1.639h0c-.843,2.487-1.627,5.53-1.276,7.543.679,3.921,2.709,21.833,1.7,24.97s1.58,26.087,1.58,26.087.07.357.2.983c.164.772.427,1.954.767,3.4a.482.482,0,0,1-.076.181c-1.58,3.716-3.359,7.783-4.26,9.433-1.211,2.218-1.229,10.434.72,17.953a26.487,26.487,0,0,0,4.681,10.147s2.212,3.119,2.042,4.681a1.076,1.076,0,0,1-.111.375,5.026,5.026,0,0,0-.041,3.142c.082.339.158.55.158.55v.585l.977,21.611a57.1,57.1,0,0,1-.468,6.771c-2.7,3.341-6.858,8.193-8.825,9.012-3.031,1.235-25.643,28.674-25.643,28.674s.181.328.533.866Z" transform="translate(-91.545 -24.143)" fill="url(#a)"/><path d="M316.571,171.893a5.852,5.852,0,0,1-2.165.819c-2.826.088-5.155-7.566-5.155-7.566s.808-.813,2.089-1.954c3.786-3.371,11.733-9.591,15.46-6.109C330.978,160.986,321.439,169.26,316.571,171.893Z" transform="translate(-151.383 -78.863)" fill="#a1616a"/><path d="M170.453,438.119a77.7,77.7,0,0,0,10.4,1.5c-1.481-2.616-11.118-5.723-11.118-5.723l-1.3,1.521-.62.732-.948,1.112c.7.181,1.416.357,2.13.527C169.47,437.908,169.961,438.02,170.453,438.119Z" transform="translate(-92.316 -194.118)" fill="#a1616a"/><path d="M316.571,176.952a5.852,5.852,0,0,1-2.165.819c-2.826.088-5.155-7.566-5.155-7.566s.808-.813,2.089-1.955C312.24,170.333,314.792,175.916,316.571,176.952Z" transform="translate(-151.383 -83.921)" opacity="0.1"/><path d="M288.843,173.872a7.084,7.084,0,0,0,3.827-.831c1.486-1,7.9-3.739,8.064-5.571,0,0,3.827,9.316,5.986,9.65,0,0-6.654,5.237-7.151,6.9s-13.459,5.735-13.459,5.735Z" transform="translate(-141.784 -83.598)" fill="#ff748e"/><path d="M288.843,173.872a7.084,7.084,0,0,0,3.827-.831c1.486-1,7.9-3.739,8.064-5.571,0,0,3.827,9.316,5.986,9.65,0,0-6.654,5.237-7.151,6.9s-13.459,5.735-13.459,5.735Z" transform="translate(-141.784 -83.598)" fill="#5e5a6b"/><path d="M168.46,436.153c.287.439.679,1,1.17,1.638.492.117.983.228,1.48.328a77.7,77.7,0,0,0,10.4,1.5c-1.481-2.616-11.118-5.723-11.118-5.723l-1.3,1.521Z" transform="translate(-92.98 -194.118)" opacity="0.1"/><path d="M168.63,406.311s.176.328.521.86a24.9,24.9,0,0,0,2.042,2.7,77.711,77.711,0,0,0,10.4,1.5c1.9.146,3.8.216,5.688.216h.819a8.376,8.376,0,0,0,.585-1.17c.72-1.709,3.447-4.681,6.437-7.607.14-.146.293-.287.433-.427,4.266-4.137,8.877-8.052,8.877-8.052l.445-28.492s-1.012,1.352-2.452,3.154c-2.645,3.306-6.735,8.134-8.655,8.924C190.8,379.17,168.63,406.311,168.63,406.311Z" transform="translate(-93.051 -165.885)" fill="#5e5a6b"/><path d="M168.63,406.311s.176.328.521.86a24.9,24.9,0,0,0,2.042,2.7,77.711,77.711,0,0,0,10.4,1.5c1.9.146,3.8.216,5.688.216h.819a8.376,8.376,0,0,0,.585-1.17c.72-1.709,3.447-4.681,6.437-7.607.14-.146.293-.287.433-.427,4.266-4.137,8.877-8.052,8.877-8.052l.445-28.492s-1.012,1.352-2.452,3.154c-2.645,3.306-6.735,8.134-8.655,8.924C190.8,379.17,168.63,406.311,168.63,406.311Z" transform="translate(-93.051 -165.885)" opacity="0.1"/><path d="M188.47,428.038a35.322,35.322,0,0,0,7.4,0C200.279,427.623,196.973,430.285,188.47,428.038Z" transform="translate(-101.281 -191.668)" opacity="0.1"/><path d="M185.06,432.91s5.823,3.324,8.07,1.662S190.964,436.175,185.06,432.91Z" transform="translate(-99.866 -193.707)" opacity="0.1"/><path d="M219.508,276.386a2.282,2.282,0,0,1,.094,1.627,3.64,3.64,0,0,0-.246,1.89,8.191,8.191,0,0,0,.181,1.112c.094.392.181.655.181.655l.983,21.95a57.425,57.425,0,0,1-.456,6.706,16.733,16.733,0,0,1-1.756,6.156c-1.984,3.043-4.576,22.939-5.114,27.234l-.1.813-.035,7.923a60.637,60.637,0,0,0,18.234-4.91q1.387-.62,2.721-1.317l.456-.234.222-.123h0c.4-2.06.772-4,1.047-5.471l.035-.217c.041-.211.082-.41.117-.585s.064-.363.1-.527.041-.24.064-.351c.117-.655.187-1.03.187-1.03a10.1,10.1,0,0,1,.228-1.621,7.982,7.982,0,0,1,2.089-4.026,5.039,5.039,0,0,0,1.264-2.592h0a19.182,19.182,0,0,0,.17-5.6,3.04,3.04,0,0,0,.322-.228,9.8,9.8,0,0,0,3.482-5.43,14,14,0,0,0,.351-1.492c1-5.43,4.213-17.3,4.213-17.3s.123-.322.334-.9h0c.076-.193.158-.421.246-.673a.647.647,0,0,1,.041-.129l.053-.135c1.679-4.8,5.887-17.842,5.536-26.731-.451-11.083.661-16.853.661-16.853l1.387-25.748v-.644l.129-2.423-12.757-.38h-.743l-3.031-.094h-.421l-4.1-.123-1.832-.053-3.3-.1h-1.205L227,224.34l-7.42,4.325s-.287.72-.761,1.861c-.1.257-.217.544-.345.843s-.252.626-.4.971l-1.053,2.528c-.123.3-.246.585-.375.9-1.568,3.733-3.353,7.865-4.254,9.521-1.118,2.06-1.17,9.363.369,16.385.966,4.336,2.557,8.579,4.921,11.452a16.385,16.385,0,0,1,1.826,3.259Z" transform="translate(-110.866 -107.188)" fill="#5e5a6b"/><path d="M239.34,414.43s4.547,3.587,6.437,3.575S239.34,414.43,239.34,414.43Z" transform="translate(-122.383 -186.042)" opacity="0.1"/><path d="M260.872,127.469v7.321l-4.834-2.083-4.81-2.077-10.475-10.311s-8.292-5.39-12.728-10.293c-2.534-2.8-3.81-5.442-1.574-6.835a13.856,13.856,0,0,0,2.9-2.546,47.347,47.347,0,0,0,5.782-8.532c.07-.123.14-.246.2-.369,2.159-3.962,3.587-7.344,3.587-7.344a44.854,44.854,0,0,1,9.983,4.681c.316.217.614.445.9.679,2.183,1.791,3.259,3.856,1.258,5.922a15.627,15.627,0,0,0-1.434,1.709h0a12.681,12.681,0,0,0-.889,1.4c-.123.217-.234.433-.339.65a14.951,14.951,0,0,0-1.334,8.877Z" transform="translate(-116.557 -49.139)" fill="#a1616a"/><path d="M284.382,65.73c.252.433.585.813.837,1.258a6.044,6.044,0,0,1,.363,3.107,17.771,17.771,0,0,0,.322,4.951,22.863,22.863,0,0,1,1.036,4.365c.076,2.118-1.024,4.1-2.089,5.9a4.26,4.26,0,0,0,3.043-1.416,2.926,2.926,0,0,1-.585,2.733,4.712,4.712,0,0,0,3.891-3.061,10.761,10.761,0,0,0,.5-5.144,34.527,34.527,0,0,1-.375-5.2,20.063,20.063,0,0,0,.152-2.838c-.164-1.884-1.323-3.511-2.434-5.044l-2.253-3.084a1.58,1.58,0,0,0-.62-.585C284.043,60.767,283.785,64.688,284.382,65.73Z" transform="translate(-140.951 -39.656)" fill="#464353"/><path d="M258.034,95.643a15.629,15.629,0,0,0-1.434,1.709h0a12.681,12.681,0,0,0-.889,1.4c-.123.217-.234.433-.339.65a17.31,17.31,0,0,1-8.3-2.639,17.514,17.514,0,0,1-4.763-4.436c-.07-.094-.14-.193-.2-.293.07-.123.14-.246.2-.369,2.159-3.962,3.587-7.344,3.587-7.344A44.854,44.854,0,0,1,255.875,89c.316.217.614.445.9.679C258.959,91.512,260.036,93.578,258.034,95.643Z" transform="translate(-123.527 -49.105)" opacity="0.1"/><path d="M271.56,66.855a17.473,17.473,0,0,1-14.295,17.181,18.2,18.2,0,0,1-3.167.281h-.661a17.31,17.31,0,0,1-8.643-2.657A17.439,17.439,0,1,1,271.56,66.855Z" transform="translate(-121.271 -34.654)" fill="#a1616a"/><path d="M265.811,141.452s8.778,4.962,6.542.778l-11.475-16.97h0L273.9,142s8.315,11.417,3.769,19.311c0,0-.667,6.542.111,8.093s-.222,18.076-.222,18.076-3.1-2.885-4.769-2.341-13.412,1.551-13.412,1.551Z" transform="translate(-130.696 -66.088)" opacity="0.1"/><path d="M277.007,225.342l-.164,3.066c-1.053-.767-2.516-1.621-3.511-1.3-1.662.556-13.412,1.557-13.412,1.557l.538-3.815Z" transform="translate(-130.92 -107.4)" opacity="0.1"/><path d="M266.4,141.452s8.778,4.962,6.536.778l-11.475-16.97h0L274.495,142s8.315,11.417,3.769,19.311c0,0-.667,6.542.111,8.093s-.222,18.076-.222,18.076-3.107-2.885-4.769-2.341S260,186.686,260,186.686Z" transform="translate(-130.953 -66.088)" fill="#464353"/><path d="M252.131,144.742a60.716,60.716,0,0,1-2.709,11.669s-1.545,15.747-3.511,20.405-1.112,11.083-2.224,22.945c-.4,4.272-1.756,7.2-3.628,9.187-3.055,3.259-7.414,3.938-10.855,3.733-.281,0-.55-.035-.813-.059-5.548-.585-10.867-27.275-10.867-27.275s-2.546-22.728-1.551-25.83-.995-20.844-1.662-24.724c-.421-2.458.849-6.478,1.832-9.094.585-1.51,1.047-2.551,1.047-2.551s1.884-5.986,4.992-9.088a4.547,4.547,0,0,1,3.289-1.381,8.152,8.152,0,0,1,4.1,1.287l.14.094s20.183,20.622,22.061,25.385A13.091,13.091,0,0,1,252.131,144.742Z" transform="translate(-111.966 -60.87)" opacity="0.1"/><path d="M250.941,144.172a60.92,60.92,0,0,1-2.7,11.669s-1.551,15.747-3.546,20.405-1.112,11.083-2.218,22.951c-.4,4.266-1.756,7.2-3.634,9.181-3.055,3.259-7.408,3.938-10.855,3.739l-.813-.064c-5.542-.55-10.867-27.275-10.867-27.275s-2.546-22.728-1.551-25.83-.995-20.844-1.662-24.724c-.421-2.458.849-6.478,1.832-9.094.585-1.51,1.047-2.551,1.047-2.551s1.89-5.986,4.992-9.088a4.582,4.582,0,0,1,3.289-1.381,8.151,8.151,0,0,1,4.1,1.287l.146.094s20.177,20.622,22.061,25.391A11.941,11.941,0,0,1,250.941,144.172Z" transform="translate(-111.46 -60.633)" fill="#5e5a6b"/><path d="M234.689,305.59s-4.57,4.1-6.15,3.909S234.689,305.59,234.689,305.59Z" transform="translate(-117.814 -140.893)" opacity="0.1"/><path d="M236.681,312.234a62.57,62.57,0,0,1-6.261,2.569C228.98,315.136,234.82,311.654,236.681,312.234Z" transform="translate(-118.589 -143.622)" opacity="0.1"/><path d="M273.16,207.607s7.151.088,8.233,2.341S275.489,206.694,273.16,207.607Z" transform="translate(-136.412 -100.204)" opacity="0.1"/><path d="M271.46,214.36s5.489,1.17,7.151,2.5S271.46,214.36,271.46,214.36Z" transform="translate(-135.707 -103.049)" opacity="0.1"/><path d="M253.036,191.2s-.661,22.535-3.119,25.444S253.036,191.2,253.036,191.2Z" transform="translate(-126.51 -93.441)" opacity="0.1"/><path d="M244.366,298.988s-4.564,19.9,4.617,21.119,6.361-22.617,6.361-22.617Z" transform="translate(-123.997 -137.533)" opacity="0.1"/><path d="M243.8,298.418s-4.564,19.9,4.617,21.119,6.361-22.617,6.361-22.617Z" transform="translate(-123.76 -137.296)" fill="#a1616a"/><path d="M263.024,64.865a6.371,6.371,0,0,1-.65-1.205c-1.223-2.546-4.36-1.3-6.665-.082l-1.235,1.58a10.241,10.241,0,0,0-1.4,2.165,17.258,17.258,0,0,0-.585,1.943c-.316,1.124-.784,2.2-1.205,3.295a38.722,38.722,0,0,0-2.464,11.411,18.2,18.2,0,0,1-3.166.281h-.076V84.17c.117-.439.216-.884.3-1.328h0a23.038,23.038,0,0,0,.176-7.607V75.07c-.088-.585-.193-1.129-.246-1.7-.211.392-.415.784-.632,1.17-1.387,2.61-2.85,5.167-5.477,6.308a11.428,11.428,0,0,1-3.33.749,19.026,19.026,0,0,0-4.161.691,2.633,2.633,0,0,0-1.211.731,3.61,3.61,0,0,0-.585,1.82,14.872,14.872,0,0,1-.661,2.528,22.167,22.167,0,0,1-5.413,8.075l-.585.585a11.224,11.224,0,0,1-3.593,2.487,10.849,10.849,0,0,1-3.81.585c.585-1.51,1.047-2.551,1.047-2.551s1.89-5.986,4.992-9.088a4.582,4.582,0,0,1,3.289-1.381,48.716,48.716,0,0,0,5.945-8.918,17.462,17.462,0,1,1,31.4-12.289Z" transform="translate(-112.846 -34.589)" opacity="0.1"/><path d="M258.754,42.856a11.479,11.479,0,0,0-3.886-2.487,2.926,2.926,0,0,1-1.258-.919,3.915,3.915,0,0,1-.392-1.586c-.486-3.376-3.622-5.711-6.747-7.081-4.02-1.756-8.848-2.516-12.71-.421-1.873,1.018-3.359,2.616-5.05,3.915-2.142,1.644-4.617,2.791-6.905,4.231a13.707,13.707,0,0,0-5.559,5.723c-1.679,3.815-.421,8.193-.2,12.359.328,6.56-2.341,13.424-7.642,17.31a6.747,6.747,0,0,0-1.679,1.469,1.843,1.843,0,0,0-.135,2.089,12.1,12.1,0,0,0,.995.907A2.952,2.952,0,0,1,207.826,81a16.514,16.514,0,0,1-4.436,7.607c.088.685.919.954,1.6,1.053a37.4,37.4,0,0,0,5.419.4A9.117,9.117,0,0,0,218.014,87c3.218-3.037,5.963-6.835,6.694-11.2a3.686,3.686,0,0,1,.585-1.826,2.738,2.738,0,0,1,1.211-.731c2.411-.831,5.15-.421,7.49-1.44,3.031-1.317,4.506-4.506,6.109-7.49.053.585.158,1.135.246,1.7a23,23,0,0,1-.451,9.135,18.852,18.852,0,0,0-1.018,5.109c.035,1.276,1.346,8.046,3.072,6.022s1.088-6.5,1.094-9.006a38.576,38.576,0,0,1,2.54-13.74c.415-1.094.884-2.165,1.205-3.295a15.7,15.7,0,0,1,.585-1.937,10.1,10.1,0,0,1,1.4-2.165l1.235-1.586c2.306-1.217,5.442-2.464,6.665.082.474.977.72,2.054,1.931,1.106a4.553,4.553,0,0,0,1.17-2.5C260.545,49.679,261.177,45.536,258.754,42.856Z" transform="translate(-107.47 -26.197)" fill="#464353"/><path d="M241.819,149.549c-.474-11.944-17.181-14.413-21.066-3.119-.029.076-.053.152-.076.228-2.551,7.654-1.445,27.024-1.445,27.024s.334,13,1.557,17.327,4.652,16.742,4.652,18.726,3.189,9.644,4.529,10.2,2.025,4.875,2.341,5.653,1.317,10.879,1.317,10.879,12.529-.778,12.751-2.774-2.774-11.75-2.774-11.75a22.556,22.556,0,0,1-2.487-7.209c-.281-3.219-2.054-4.681-1.726-6.87s-.995-3.33-.995-4.769a35.452,35.452,0,0,0-1-5.325s-2.107-1.662-1.756-3.657-2.99-5.986-2.107-7.426,1.112-4.992,1.112-4.992,1.106-15.964,1.884-20.288,5.319-11.306,5.319-11.306S241.848,149.9,241.819,149.549Z" transform="translate(-113.942 -71.85)" opacity="0.1"/><path d="M240.361,219.367c-3.055,3.259-7.408,3.938-10.855,3.739-.392-1.516-.977-3.371-1.826-3.722-1.346-.556-4.529-8.193-4.529-10.2s-3.435-14.413-4.681-18.726-1.551-17.327-1.551-17.327-1.112-19.369,1.44-27.018a.844.844,0,0,1,.076-.234c3.9-11.294,20.616-8.825,21.066,3.119v.55s-4.547,6.981-5.319,11.306-1.89,20.288-1.89,20.288-.222,3.552-1.106,4.992,2.44,5.436,2.107,7.432,1.756,3.657,1.756,3.657a35.522,35.522,0,0,1,.995,5.319c0,1.44,1.334,2.551,1,4.769s1.445,3.657,1.726,6.876A17.842,17.842,0,0,0,240.361,219.367Z" transform="translate(-112.982 -71.622)" opacity="0.1"/><path d="M240.711,148.979c-.468-11.944-17.181-14.413-21.066-3.119a.99.99,0,0,1-.076.234c-2.551,7.648-1.44,27.018-1.44,27.018s.328,13,1.551,17.327,4.681,16.742,4.681,18.726,3.183,9.644,4.529,10.2,2.019,4.875,2.341,5.653,1.328,10.867,1.328,10.867,12.523-.778,12.745-2.774-2.774-11.739-2.774-11.739a22.658,22.658,0,0,1-2.493-7.209c-.287-3.219-2.054-4.652-1.72-6.87s-1-3.33-1-4.769a35.522,35.522,0,0,0-.995-5.319s-2.107-1.668-1.756-3.663-3-5.986-2.107-7.426,1.106-4.992,1.106-4.992,1.112-15.964,1.884-20.288,5.325-11.306,5.325-11.306A2.817,2.817,0,0,1,240.711,148.979Z" transform="translate(-113.484 -71.614)" fill="#5e5a6b"/><path d="M221.72,205.021c.334-.334,6.654-7.315,8.649-4.822S221.72,205.021,221.72,205.021Z" transform="translate(-115.073 -96.952)" opacity="0.1"/><path d="M222.72,214.647c.246-.252,6.32-.5,7.818-3.909S222.72,214.647,222.72,214.647Z" transform="translate(-115.488 -101.17)" opacity="0.1"/><g transform="translate(96.119 21.041)" opacity="0.1"><path d="M210,111.394a1.633,1.633,0,0,1,.334.585,2.6,2.6,0,0,0-.334-2.265c-.3-.339-.731-.538-1-.9l-.053-.094a1.756,1.756,0,0,0,.053,1.756C209.273,110.85,209.706,111.055,210,111.394Z" transform="translate(-205.809 -80.269)"/><path d="M224.9,70.267V68.382c-.117-2.265-.533-4.588-.632-6.852-.129,2.774.492,5.694.632,8.514C224.9,70.115,224.894,70.191,224.9,70.267Z" transform="translate(-212.242 -60.693)"/><path d="M267.465,120.066c-1.539,1.808-2.745-3.388-3.014-5.436a7.33,7.33,0,0,0-.053,1.077c.035,1.276,1.34,8.046,3.066,6.021,1.17-1.369,1.282-3.7,1.211-5.852A6.85,6.85,0,0,1,267.465,120.066Z" transform="translate(-228.895 -82.72)"/><path d="M240.7,89.749a22.014,22.014,0,0,1,.24,2.633,22.944,22.944,0,0,0-.24-4.3c-.088-.585-.193-1.129-.24-1.7-1.6,2.984-3.084,6.174-6.109,7.49-2.341,1.012-5.079.585-7.5,1.44a2.639,2.639,0,0,0-1.205.731,3.611,3.611,0,0,0-.585,1.826c-.731,4.365-3.476,8.193-6.7,11.2a9.07,9.07,0,0,1-7.607,3.055,36.468,36.468,0,0,1-5.419-.392,3.617,3.617,0,0,1-.813-.211,8.757,8.757,0,0,1-.79.819c.094.685.925.954,1.6,1.053a37.278,37.278,0,0,0,5.419.4,9.094,9.094,0,0,0,7.607-3.06c3.224-3.037,5.969-6.835,6.7-11.2a3.634,3.634,0,0,1,.585-1.826,2.686,2.686,0,0,1,1.205-.731c2.417-.831,5.155-.421,7.5-1.44,3.025-1.317,4.506-4.506,6.109-7.49C240.5,88.62,240.608,89.187,240.7,89.749Z" transform="translate(-203.73 -71.006)"/><path d="M288.217,64.4a4.33,4.33,0,0,1-1.141,2.5c-1.211.948-1.463-.129-1.931-1.106-1.223-2.546-4.365-1.3-6.665-.082l-1.235,1.58a10.165,10.165,0,0,0-1.4,2.165,17.257,17.257,0,0,0-.585,1.943c-.316,1.124-.784,2.2-1.206,3.295a38.527,38.527,0,0,0-2.54,13.74v.679a38.714,38.714,0,0,1,2.528-12.757c.421-1.094.889-2.165,1.205-3.295a16.8,16.8,0,0,1,.585-1.937,9.875,9.875,0,0,1,1.4-2.165l1.235-1.586c2.3-1.217,5.442-2.464,6.665.082.468.977.72,2.054,1.931,1.106a4.4,4.4,0,0,0,1.141-2.5,21.651,21.651,0,0,0,.673-5.963A27.554,27.554,0,0,1,288.217,64.4Z" transform="translate(-231.846 -60.1)"/></g><path d="M325.724,157.54l.345.24a1.369,1.369,0,0,1-.351-1.908L341.125,133.5a1.375,1.375,0,0,1,1.908-.351l-.339-.234a2.2,2.2,0,0,1,.585,3.061L328.79,156.954a2.206,2.206,0,0,1-3.066.585Z" transform="translate(-158.113 -69.261)" fill="#464353"/><path d="M1.018,0H1.44V29.909H1.018A1.018,1.018,0,0,1,0,28.89V1.018A1.018,1.018,0,0,1,1.018,0Z" transform="translate(183.798 63.106) rotate(34.56)" fill="#9f9eff"/><rect width="0.275" height="2.44" rx="0.138" transform="translate(182.689 67.012) rotate(34.56)" fill="#464353"/></g><path d="M93.83,792.079l49.945-54.135,198.376-6.384,34.631,70.268H93.83Z" transform="translate(-33.568 -294.371)" fill="#514e7f"/><path d="M93.83,792.079l49.945-54.135,198.376-6.384,34.631,70.268H93.83Z" transform="translate(-33.568 -294.371)" opacity="0.2"/><path d="M495.865,829.995v1.873a3.652,3.652,0,0,1-3.652,3.651H385.582c-2.019,0,0-4.032,0-4.032l-1.206-26.409a4.36,4.36,0,0,1,3.289-4.424,14.1,14.1,0,0,1,10.018.907l66.055-1.679a21.183,21.183,0,0,1,4.1.193,17.941,17.941,0,0,1,12.107,7.174l15.18,20.581A3.652,3.652,0,0,1,495.865,829.995Z" transform="translate(-177.194 -336.804)" fill="#514e7f"/><path d="M496.087,851.436h0a3.652,3.652,0,0,1-3.651,3.651H385.8c-2.019,0,0-4.032,0-4.032a31.977,31.977,0,0,1,14.629-2.341l77.829-1.685s9.193.211,14.571.8A3.646,3.646,0,0,1,496.087,851.436Z" transform="translate(-177.415 -356.373)" opacity="0.1"/><path d="M436.27,783.55H369.36l1.849,20.347,77.5-1.346Z" transform="translate(-147.863 -315.938)" fill="#2cccf3"/><path d="M266.749,817.282v7.063l-70.1,2.844s-16.028-1.094-17.994-10.943a9.187,9.187,0,0,1,.059-3.1c.708-4.149,4.266-11.393,19.949-14.741l19.311-1.984h43.058S266.591,801.985,266.749,817.282Z" transform="translate(-91.815 -335.379)" fill="#514e7f"/><path d="M266.749,829.36V836.2l-70.1,2.844s-16.028-1.094-17.994-10.943a9.187,9.187,0,0,1,.059-3.1s9.691,9.164,22.822,7.818l61.7-2.686A34.665,34.665,0,0,0,266.749,829.36Z" transform="translate(-91.815 -347.235)" opacity="0.1"/><ellipse cx="21.552" cy="3.698" rx="21.552" ry="3.698" transform="translate(99.402 468.734) rotate(-2.95)" opacity="0.1"/><path d="M216.644,697.472,205.3,703.078l-12.066-2.856-.059-19.668c.767-14.354-5.852-43.087-9.123-56.107q-1.89-7.549-3.306-15.215l-3.71-19.984L171,537.32h14.372l8.45,12.1Z" transform="translate(-88.683 -227.899)" fill="#514e7f"/><path d="M219.747,697.489l-11.341,5.606-7.233-42c.14-7.157-8.83-41.132-9.416-42.531-7.151-17.07-13.278-81.2-13.278-81.2h10l8.444,12.078Z" transform="translate(-91.786 -227.916)" fill="#514e7f"/><path d="M219.747,697.489l-11.341,5.606-7.233-42c.14-7.157-8.83-41.132-9.416-42.531-7.151-17.07-13.278-81.2-13.278-81.2h10l8.444,12.078Z" transform="translate(-91.786 -227.916)" opacity="0.15"/><path d="M285.133,637.6l-38.622,40.7-4.529.322-5.518.4a6.22,6.22,0,0,1-6.133-3.681c-11.7-26.333-49.12-153.662-57-180.633a5.115,5.115,0,0,1,3.587-6.378l5.267-1.416.392.047,56.265,7.549a8.573,8.573,0,0,1,7.022,5.887l41.185,128.7a8.567,8.567,0,0,1-1.919,8.509Z" transform="translate(-89.565 -206.988)" fill="#514e7f"/><path d="M285.133,637.6l-38.622,40.7-4.529.322-5.518.4a6.22,6.22,0,0,1-6.133-3.681c-11.7-26.333-49.12-153.662-57-180.633a5.115,5.115,0,0,1,3.587-6.378l5.267-1.416.392.047,56.265,7.549a8.573,8.573,0,0,1,7.022,5.887l41.185,128.7a8.567,8.567,0,0,1-1.919,8.509Z" transform="translate(-89.565 -206.988)" opacity="0.1"/><path d="M291.715,637.778l-38.487,40.576-4.529.322L190.941,493.759A17.643,17.643,0,0,1,189.32,487l57.207,7.678a7.069,7.069,0,0,1,5.793,4.857l41.413,129.413a8.9,8.9,0,0,1-2.019,8.83Z" transform="translate(-96.282 -207.026)" fill="#514e7f"/><path d="M294.872,637.886a8.58,8.58,0,0,1-1.557,1.931l-37.89,35.228L203.73,503.71l49.641,4.915a8.7,8.7,0,0,1,7.484,6.162L295.726,630.9A8.736,8.736,0,0,1,294.872,637.886Z" transform="translate(-102.26 -213.957)" fill="#2cccf3"/><path d="M330.061,641.37l-41.5-129.26a8.7,8.7,0,0,1,7.484,6.162l34.871,116.117A8.737,8.737,0,0,1,330.061,641.37Z" transform="translate(-137.449 -217.442)" opacity="0.1"/><path d="M704.816,352.674a21.973,21.973,0,0,1,20.672-21.932c-.43,0-.869-.041-1.308-.041a21.978,21.978,0,1,0,0,43.956,13.031,13.031,0,0,0,1.311-.05,21.968,21.968,0,0,1-20.674-21.933Z" transform="translate(-309.035 -142.189)" opacity="0.1"/><path d="M508.765,770.779a59.579,59.579,0,0,1-6.332,2.885c-5.653,2.224-14.267,4.775-22.289,3.8-13.488-1.638-21.558,2.774-21.558,2.774l-3.025-22.442s9.948-2.926,13.992-3.657c3.031-.585,13.968-5.624,19.217-8.1,1.756-.819,2.85-1.358,2.85-1.358h10.089Z" transform="translate(-206.724 -313.916)" fill="#ffc1c7"/><path d="M532.306,770.779a59.573,59.573,0,0,1-6.332,2.885c-.685-19.984-8.351-25.918-13.664-27.626,1.755-.819,2.85-1.358,2.85-1.358h10.089Z" transform="translate(-230.265 -313.916)" opacity="0.1"/><path d="M566.729,669.209v49.155l-2.639,3.125L555.634,731.5s-1.89,5.267-5.044,7.561-10.346-.755-10.346-.755l-2.019,3.277s-4.535.884-6.677,0S524.1,744.1,524.1,744.1c.761-36.059-18.784-33.156-18.784-33.156,13.488-14.5,21.81-9.837,21.81-9.837l5.8-5.547,7.186-7.28c-1.638-5.635,4.284-6.841,5.67-7.473s5.044-6.683,4.921-7.438,1.129-5.676,3.148-5.483c1.124.105,2.663-1.867,3.821-3.64.925-1.428,1.6-2.727,1.6-2.727Z" transform="translate(-227.365 -279.42)" fill="#ffd24c"/><path d="M640.09,585.3l14.864-7.607-.843,8.912,2.926,8.953s-2.686,6.934-3.02,7.689-6.724,16.561-6.724,16.561l-5.126-6.472Z" transform="translate(-283.271 -244.646)" fill="#ff6584"/><path d="M602.693,589.237,600.61,561.2l14.864-7.6" transform="translate(-243.79 -220.55)" opacity="0.1"/><path d="M695.461,534.533s-4.939,7.1-11.7,16.157c-15.741,21.067-41.349,52.666-37.452,29.739.129-.749.228-1.5.316-2.253-.96.644-3.16.082-5.559-1.059l-.164-.076a28.611,28.611,0,0,1-3.417-1.978c-.123-.076-.24-.158-.357-.24-2.662-1.855-4.793-4.026-4.681-5.524,1.89-32.911,9.55-17.216,11.7-13.564a2.375,2.375,0,0,0,.492.685q-.14-.386-.316-.808a160.6,160.6,0,0,0-7.689-15.156V540.4l-.439-.784c-2.739-4.886-5.705-9.995-8.374-14.477l-.72-1.206c-4.213-7.069-7.49-12.341-7.49-12.341s19.141-17.509,35.275-28.147c13.459-8.889,24.858-12.991,21.213,1.919a44.778,44.778,0,0,0,.5,24.578c.076.252.158.5.246.749a39.7,39.7,0,0,0,1.5,3.81,43.269,43.269,0,0,0,2.622,4.974A48.211,48.211,0,0,0,695.461,534.533Z" transform="translate(-274.775 -202.237)" fill="#ffc1c7"/><path d="M665.68,508.354c-9.076,9.86-11.007,19.311-25.467,19.311a49.736,49.736,0,0,1-12.47-1.58c-4.559-7.666-8.193-13.547-8.193-13.547s64.5-58.98,56.487-26.228C673.591,496.205,663.333,501.39,665.68,508.354Z" transform="translate(-274.75 -202.632)" opacity="0.15"/><path d="M669.314,441.221a49.46,49.46,0,1,1-14.485-35.2A49.682,49.682,0,0,1,669.314,441.221Z" transform="translate(-254.175 -167.427)" fill="#ffc1c7"/><path d="M640.138,623.38s.884,14.12,9.837,12.985,2.142,30.008,2.142,30.008l-9.948,9.076-10.732,3.3s-9.457-2.774-9.328-3.283,3.78-30,3.78-30l5.547-15.765Z" transform="translate(-275.811 -263.599)" opacity="0.1"/><path d="M640.147,625.1s.884,14.12,9.837,12.991,2.142,30.008,2.142,30.008l-9.948,9.076-10.721,3.277s-9.456-2.774-9.328-3.277,3.78-30.008,3.78-30.008l5.547-15.759Z" transform="translate(-275.819 -264.312)" fill="#514e7f"/><path d="M603.872,669.2v49.155l-2.639,3.125c-2.721-7.221-4.793-17.011-3.511-25.812,1.668-11.668-1.656-26.6-2.862-31.442.925-1.428,1.6-2.727,1.6-2.727Z" transform="translate(-264.508 -279.412)" opacity="0.1"/><path d="M649.319,616.527a28.832,28.832,0,0,1-2.136,8.04c-.328.778-.661,1.533-.995,2.241-2.663-1.855-4.793-4.026-4.681-5.524,1.89-32.911,9.55-17.216,11.7-13.564C652.157,608.516,649.8,610.857,649.319,616.527Z" transform="translate(-283.857 -254.224)" opacity="0.1"/><path d="M656.011,600.931a171.151,171.151,0,0,0-8.151-16l.439-.222,8.029,16.022a1.709,1.709,0,0,0-.316.2Z" transform="translate(-286.494 -247.558)" opacity="0.1"/><path d="M710.552,565.757s-54.72,78.677-49.155,45.9c.129-.749.228-1.5.316-2.253-.983.655-3.259.058-5.723-1.135.374-2.189.585-3.687.585-3.687l6.057-17.134s3.511-13.617,3.025-16.385l.164-.111,30.113-20.218h.029A48.214,48.214,0,0,0,710.552,565.757Z" transform="translate(-289.866 -233.462)" opacity="0.1"/><path d="M740.9,620.229,736.613,642.4l-12.874,93.553H612.052s2.013-16.385,2.013-18.913-2.265-6.3-2.013-9.076,1.217-.761,0-5.547-1.756-17.906-5.776-22.442-10.609-21.189-8.6-35.286-3.283-33.033-3.283-33.033-4.535-6.56,0-6.812,6.308.228,6.057-4.3,2.013-13.1,4.787-14.869,6.812-8.321,7.566-10.843a4.232,4.232,0,0,1,1.17-1.644,33.734,33.734,0,0,1,6.888-4.406l4.412-2.206v.059l8.005,15.964s-3.745,1.82-4.371,9.129a28.774,28.774,0,0,1-2.136,8.04c-.211.5-.421,1-.638,1.475-.644,1.428-1.3,2.692-1.855,3.7h0c-.825,1.492-1.416,2.411-1.416,2.411s-.216,1.709-.544,4.1h0c-.673,4.9-1.808,12.675-2.481,14.536-.585,1.65-1.756,4.488-2.405,7.022a9.711,9.711,0,0,0-.427,4.014.736.736,0,0,0,.059.222c.755,2.341,4.535-7.724,4.535-7.724s2.774-8.573,4.038-8.573c.966,0,3.137-12.1,4.1-17.684.281-1.668.451-2.75.451-2.75l6.057-17.14s.837-3.236,1.638-6.876c.843-3.827,1.644-8.093,1.387-9.515l.164-.111,30.113-20.218h.029l.462-.31h-.047c-.211,0-.819-.375-1.984-3.113-.3-.7-.632-1.539-1-2.581,0,0,9.632-3.868,13.067-1.036a3.061,3.061,0,0,1,.585.62,2.457,2.457,0,0,1,.252.416c2.27,4.681,3.277,8.192,5.547,11.224a9.76,9.76,0,0,0,.8.919c2.745,2.873,8.193,6.238,7.274,7.151-1.007,1.006,7.566,5.267,7.566,5.267s5.015,2.867,6.589,5.267a2.4,2.4,0,0,1,.468,1.276c0,2.522,7.315,4.032,9.585,4.032s13.114,23.454,18.4,26.228S740.9,620.229,740.9,620.229Z" transform="translate(-263.478 -228.421)" fill="#ffd24c"/><g transform="translate(347.924 310.203)" opacity="0.1"><path d="M641.251,602.469s-3.745,1.82-4.371,9.129a28.585,28.585,0,0,1-2.142,8.04,51.4,51.4,0,0,1-2.487,5.173h0c-.825,1.492-1.416,2.411-1.416,2.411s-.216,1.709-.544,4.1h0c-.655,4.945-1.826,12.716-2.487,14.565-.585,1.65-1.756,4.488-2.405,7.022a9.713,9.713,0,0,0-.427,4.014.734.734,0,0,0,.059.222c.755,2.341,4.535-7.724,4.535-7.724s2.774-8.573,4.038-8.573c.357,0,.884-1.674,1.451-4.061.287-1.914.585-3.827.778-5.431h0c.328-2.4.544-4.1.544-4.1s.334-.515.849-1.4c.538-3.084.913-5.413.913-5.413l6.057-17.14s.439-1.709.989-4.032l-6.437-12.8-4.412,2.206h0Z" transform="translate(-624.889 -558.491)"/><path d="M794.347,602.1c-5.267-2.774-16.133-26.228-18.4-26.228s-9.585-1.51-9.585-4.032-7.057-6.56-7.057-6.56-8.573-4.284-7.566-5.267c.907-.913-4.529-4.278-7.274-7.151a10.527,10.527,0,0,1-.8-.919c-2.271-3.031-3.277-6.56-5.547-11.224a2.763,2.763,0,0,0-.252-.421,3.4,3.4,0,0,0-.585-.62c-1.545-1.27-4.33-1.17-6.94-.714a4.181,4.181,0,0,1,1.393.714,3.408,3.408,0,0,1,.585.62,2.758,2.758,0,0,1,.252.421c2.271,4.682,3.277,8.193,5.547,11.224a10.515,10.515,0,0,0,.8.9c2.745,2.873,8.193,6.238,7.274,7.151-1.006,1.006,7.566,5.267,7.566,5.267s7.057,4.038,7.057,6.56,7.315,4.032,9.585,4.032,13.114,23.454,18.4,26.228,3.786,18.141,3.786,18.141l-4.3,22.214-12.874,93.553h5.548l12.874-93.553,4.289-22.19S799.643,604.878,794.347,602.1Z" transform="translate(-668.632 -538.657)"/></g><path d="M438.894,765.764s-32.074-9.281-34.344,4.968,13.114,22.442,22.945,22.19,14.12-9.585,14.12-9.585Z" transform="translate(-185.47 -321.431)" fill="#ffc1c7"/><path d="M650.114,830.124s-7.186,5.167-22.442,5.167-33.033,3.277-33.033,3.277-22.693-53.456-68.209-7.7c0,0-8.192,10.592,34.292,11.7,0,0,15-.5,18.281,6.934h84.851l11.6-8.69Z" transform="translate(-235.859 -341.989)" fill="#ffc1c7"/><path d="M442.217,726.933s-2.142-5.038-4.681,0l-1.375,39.09,3.02,9.2,3.02-8.193Z" transform="translate(-198.676 -305.626)" fill="#514e7f"/><path d="M733.535,540.266c-4.4,1.5-9.228,5.009-10.65,6.109-.263,0-1.17-.585-2.984-5.694C719.894,540.681,730.784,536.31,733.535,540.266Z" transform="translate(-316.377 -228.434)" opacity="0.1"/><path d="M645.02,602.448s-3.745,1.82-4.371,9.129a28.774,28.774,0,0,1-2.136,8.04l-2.464,5.179h0l-1.96,6.519h0l.2,13.272-5.126,8.3-.427,4.014-1.328,12.417L620.6,666.04s2.809-20.025,4.916-24.08,4.921-25.531,4.921-25.531-.129-7.882.884-9.269-1.755-1.135-2.019-4.032c-.152-1.721-2.072-6.5-3.611-10.094a33.734,33.734,0,0,1,6.888-4.406l4.412-2.206Z" transform="translate(-275.186 -248.267)" fill="#ffd24c"/><path d="M645.02,602.448s-3.745,1.82-4.371,9.129a28.774,28.774,0,0,1-2.136,8.04l-2.464,5.179h0l-1.96,6.519h0l.2,13.272-5.126,8.3-.427,4.014-1.328,12.417L620.6,666.04s2.809-20.025,4.916-24.08,4.921-25.531,4.921-25.531-.129-7.882.884-9.269-1.755-1.135-2.019-4.032c-.152-1.721-2.072-6.5-3.611-10.094a33.734,33.734,0,0,1,6.888-4.406l4.412-2.206Z" transform="translate(-275.186 -248.267)" opacity="0.1"/><path d="M720.6,555.3c-5.624,4.6-20.745,17.649-22.483,26.52-2.142,10.937-8.573,9.878-8.573,9.878-8.035-17.427-13.564-21.7-16.73-22.3l30.113-20.224h.029l.462-.31h-.064c-.211,0-.819-.369-1.984-3.107l12.066-3.622a3.056,3.056,0,0,1,.585.62,2.717,2.717,0,0,1,.252.416c2.27,4.681,3.277,8.193,5.548,11.224a10.585,10.585,0,0,0,.778.907Z" transform="translate(-296.843 -229.895)" opacity="0.1"/><path d="M720.6,553.575c-5.624,4.6-20.745,17.655-22.483,26.526-2.142,10.931-8.573,9.872-8.573,9.872-8.034-17.421-13.564-21.71-16.73-22.3l30.113-20.218h.029l.462-.31h-.064c-.211,0-.819-.375-1.984-3.113l12.066-3.616a3.06,3.06,0,0,1,.585.62,2.454,2.454,0,0,1,.252.415c2.27,4.682,3.277,8.193,5.548,11.224a9.75,9.75,0,0,0,.778.9Z" transform="translate(-296.843 -229.185)" fill="#ffd24c"/><path d="M696.23,709.646c.375-.123,20.025-11.247,17.766-2.785S696.23,709.646,696.23,709.646Z" transform="translate(-306.558 -296.912)" opacity="0.1"/><path d="M551,732.08s10.334,16.075,13.992,15.572S551,732.08,551,732.08Z" transform="translate(-246.314 -308.69)" opacity="0.1"/><path d="M573,721.85s.632,12.482,6.057,13.36S573,721.85,573,721.85Z" transform="translate(-255.44 -304.446)" opacity="0.1"/><path d="M671,790.36s12.839,21.359,10.34,28.75Z" transform="translate(-296.092 -332.865)" opacity="0.1"/><path d="M696.44,794.67s17.368,22.822,14.36,24.712S696.44,794.67,696.44,794.67Z" transform="translate(-306.646 -334.653)" opacity="0.1"/><path d="M629.557,732.08s-1.785,16.227,4.916,20.944Z" transform="translate(-278.812 -308.69)" opacity="0.1"/><path d="M744.743,608.524s-29.733,23.074-24.97,47.031,9.363,25.719,9.363,25.719,1.755,9.579,5.044,13.617,2.774,6.683,2.774,6.683,3.025-1.387,4.032,5.548,6.3,11.85,6.3,11.85,1.755,5.548-2.774,8.573S741,733.852,741,733.852l-18.41,10.715,20.5,20.3h52.959s-1.516-2.645,1.756-6.437,1.644-18.784,1.644-18.784-1.832-2.4.41-7.7-1.925-20.423-1.925-20.423l-4.681-14.752s-3.909-10.463-3.277-16.075a33.237,33.237,0,0,0-1.287-11.745l-10.165-32.068S779.035,604.866,744.743,608.524Z" transform="translate(-316.11 -257.315)" opacity="0.1"/><path d="M746.463,608.524S716.707,631.6,721.5,655.555s9.328,25.719,9.328,25.719,1.756,9.579,5.044,13.617,2.774,6.683,2.774,6.683,3.025-1.387,4.038,5.548,6.3,11.85,6.3,11.85,1.755,5.548-2.774,8.573-3.511,6.308-3.511,6.308l-18.41,10.715,20.552,20.3H797.8s-1.51-2.645,1.756-6.437,1.638-18.784,1.638-18.784-1.832-2.4.41-7.7-1.925-20.423-1.925-20.423l-4.681-14.752s-3.909-10.463-3.277-16.075a33.107,33.107,0,0,0-1.3-11.745l-10.165-32.068S780.755,604.866,746.463,608.524Z" transform="translate(-316.824 -257.315)" fill="#ffd24c"/><path d="M781.55,636.229s21.184,7.186,26.854,10.72S800.083,632.952,781.55,636.229Z" transform="translate(-341.951 -268.759)" opacity="0.1"/><path d="M800.51,822.9s30.131,3.78,28.375,9.708S800.51,822.9,800.51,822.9Z" transform="translate(-349.816 -346.364)" opacity="0.1"/><path d="M790.42,833.88s22.044,7.063,18.141,12.874S790.42,833.88,790.42,833.88Z" transform="translate(-345.63 -350.918)" opacity="0.1"/><ellipse cx="9.597" cy="5.243" rx="9.597" ry="5.243" transform="translate(236.103 445.943)" fill="#ffc1c7"/><path d="M651.806,108.806c-14.659-2.85-29.462-5.711-44.626-6.168s-30.916,1.685-43.293,8.075c-6.193,3.2-11.333,7.332-16.546,11.358a531.068,531.068,0,0,1-92.1,56.727c-13.5,6.572-27.936,12.839-44.024,14.472s-34.265-2.428-42.57-12.587l4.948-1.849" transform="translate(-247.534 -47.56)" fill="none" stroke="#ffd24c" stroke-miterlimit="10" stroke-width="0.75" stroke-dasharray="12"/><path d="M824.854,71.617H749.231a5.4,5.4,0,0,1-5.4-5.4v-10.8a5.4,5.4,0,0,1,5.4-5.413h75.623a5.4,5.4,0,0,1,5.4,5.4V66.215a5.4,5.4,0,0,1-5.4,5.4Zm-8.1-14.852a4.049,4.049,0,1,0,2.867,1.184A4.049,4.049,0,0,0,816.749,56.765Zm-10.8,0a4.044,4.044,0,1,0,.012,0Zm18.907,41.864H749.231a5.407,5.407,0,0,1-5.4-5.407v-10.8a5.4,5.4,0,0,1,5.4-5.4h75.623a5.4,5.4,0,0,1,5.4,5.4v10.8a5.407,5.407,0,0,1-5.4,5.407Zm-8.1-14.858a4.049,4.049,0,1,0,2.867,1.184A4.055,4.055,0,0,0,816.749,83.771Zm-10.8,0a4.044,4.044,0,1,0,.012,0Zm18.907,41.864H749.231a5.4,5.4,0,0,1-5.4-5.4v-10.8a5.4,5.4,0,0,1,5.4-5.4h75.623a5.4,5.4,0,0,1,5.4,5.4v10.791a5.4,5.4,0,0,1-5.4,5.413Zm-8.1-14.858a4.049,4.049,0,1,0,2.869,1.186,4.055,4.055,0,0,0-2.869-1.186Zm-10.8,0a4.046,4.046,0,1,0,.012,0Z" transform="translate(-326.304 -25.75)" fill="#514e7f"/><path d="M903.21,111.641c4.417-.872,9.143-.627,12.931,3.653,4.012,4.534,6.33,13,7.107,21.545s.234,17.285-.32,25.884L919.945,209.1c-.421,6.493-.826,13.25.32,19.449s4.315,11.644,7.859,11.066" transform="translate(-392.418 -51.151)" fill="none" stroke="#ffd24c" stroke-miterlimit="10" stroke-width="0.75" stroke-dasharray="12"/><path d="M361.57,415.778c12.494.31,26.579,0,35.21-9.035,6.554-6.858,8.093-16.906,10.3-26.134,3.985-16.66,11.23-32.694,22.237-45.831s25.865-23.261,42.5-27.345c13.366-3.289,27.422-2.668,40.857-5.624s27.234-10.919,30.95-24.168" transform="translate(-167.735 -120.179)" fill="none" stroke="#ffd24c" stroke-miterlimit="10" stroke-width="0.75" stroke-dasharray="12"/><path d="M695.28,228.044l-33.712,12.289a.661.661,0,0,0-.129,1.17l5.033,2.791a1.276,1.276,0,0,1,.585.761l2.885,9.129c0,.386.7.585.767.211l.4-7.139a2.58,2.58,0,0,1,.778-1.34l18.527-13.459a.416.416,0,0,1,.369-.047.374.374,0,0,1,.117.62L674.43,248.052a3.159,3.159,0,0,0-.755,1.323l-1.756,5.963c0,.538.375.8.784.375l3.511-3.084a.638.638,0,0,1,.907,0l6.917,6.788a.632.632,0,0,0,1.042-.24l10.949-30.266a.638.638,0,0,0-.808-.837Z" transform="translate(-292.003 -99.602)" fill="#2cccf3" opacity="0.5"/><g transform="translate(301.51 199.578)"><path d="M12.535,50.362c-3.125,1.258-6.8,2.706-9.672.945C.752,50-.117,47.3.013,44.821a29.368,29.368,0,0,1,1.822-7.187c1.524-4.855,2.347-9.908,4.047-14.74s4.474-9.489,8.879-12.042c8.11-4.7,18.6-.816,27.606-3.415,3.811-1.09,7.126-3.285,10.67-5.008S60.567-.62,64.393.3C68.875,1.346,72.183,5.119,76.36,7.04,80.933,9.143,86.405,9,90.567,11.811c2.95,2,4.809,5.221,6.463,8.384A159.149,159.149,0,0,1,109.491,52.13a48.429,48.429,0,0,1,2.035,12.195c.038,5.289-1.395,10.472-2.812,15.579l-2.287,8.079a37.033,37.033,0,0,1-3.315,8.856,12.136,12.136,0,0,1-7.126,5.884,8.782,8.782,0,0,1-9.908-4.489c-1.021-2.21-.976-4.741-1.029-7.172a79.829,79.829,0,0,0-1.524-14.176c-.473-2.34-1.105-4.771-2.7-6.539-2.058-2.287-5.335-3.049-8.384-3.1-3.567-.046-7.477.922-9.558,3.811-1.669,2.332-1.959,5.61-4.177,7.431a6.912,6.912,0,0,1-3.392,1.38,11.333,11.333,0,0,1-11.989-7.2c-.7-2.012-1.044-4.512-2.95-5.457-.991-.5-2.172-.4-3.232-.724-3.247-.983-4.1-5.1-4.4-8.475-.343-3.956.976-11.768-3.94-12.035C23.51,45.682,17.405,48.738,12.535,50.362Z" transform="translate(0 17.447) rotate(-9)" fill="#575988"/><path d="M14.915,21.7c-1.692.816-3.544,1.768-4.207,3.521-.259.686-.3,1.44-.541,2.142-1.075,3.1-5.267,3.712-7.431,6.181A9.733,9.733,0,0,0,.823,37.819,31.005,31.005,0,0,0,2.164,56.294a14.909,14.909,0,0,0,3.049,5.03c3.872,3.948,10.549,3.872,15.373,1.181S28.741,55.1,31.569,50.311a42.433,42.433,0,0,0,3.742-7.622,46.493,46.493,0,0,0,1.852-8.3c1.692-10.983,3.9-23.162,3.14-34.3-2.286-.145-6.654-.3-8.674,1.128-2.53,1.8-1.829,5.427-2.744,8.056C26.721,15.6,20.441,18.94,14.915,21.7Z" transform="matrix(0.978, -0.208, 0.208, 0.978, 23.591, 94.727)" fill="#575988"/><path d="M16.006,15.237c-2.858.175-7.98-2.988-10.846-2.828A89.24,89.24,0,0,1,0,1.846c1.524-2.187,3.979-2.721,7.69,0C10.67,3.942,14.786,11.19,16.006,15.237Z" transform="matrix(0.978, -0.208, 0.208, 0.978, 23.831, 103.474)" fill="#575988"/><path d="M105.36,71.4a12.3,12.3,0,0,1-7.126,5.884A8.782,8.782,0,0,1,88.325,72.8c-1.021-2.21-.976-4.741-1.029-7.172a79.835,79.835,0,0,0-1.524-14.176c-.472-2.34-1.105-4.771-2.7-6.539-2.058-2.287-5.335-3.049-8.384-3.1-3.567-.046-7.477.922-9.558,3.811-1.669,2.332-1.959,5.61-4.177,7.431a6.913,6.913,0,0,1-3.392,1.38,11.333,11.333,0,0,1-11.989-7.2c-.7-2.012-1.044-4.512-2.95-5.457-.991-.5-2.172-.4-3.232-.724-3.247-.983-4.1-5.1-4.4-8.475-.343-3.956.976-11.768-3.94-12.035-5.259-.29-11.364,2.767-16.234,4.39-3.125,1.258-6.8,2.706-9.672.945-2.111-1.3-2.98-4.009-2.851-6.486A29.362,29.362,0,0,1,4.12,12.195C5.4,8.2,6.171,4.055,7.344,0A36.2,36.2,0,0,0,5.873,3.521c-1.692,4.809-2.485,9.908-4.04,14.74A28.7,28.7,0,0,0,.012,25.449c-.13,2.477.762,5.183,2.851,6.486,2.873,1.761,6.547.312,9.672-.945,4.87-1.623,10.975-4.68,16.234-4.39,4.916.267,3.6,8.079,3.94,12.035.3,3.376,1.151,7.492,4.4,8.475,1.059.32,2.241.229,3.232.724,1.905.945,2.286,3.445,2.95,5.457a11.334,11.334,0,0,0,11.989,7.2,6.913,6.913,0,0,0,3.392-1.38c2.218-1.822,2.508-5.1,4.177-7.431,2.081-2.9,5.991-3.872,9.558-3.811,3.049.046,6.364.808,8.384,3.1,1.593,1.768,2.226,4.2,2.7,6.539A79.84,79.84,0,0,1,85.01,71.69c.053,2.431,0,4.962,1.029,7.172a8.778,8.778,0,0,0,9.908,4.489,12.32,12.32,0,0,0,7.126-5.884,30.486,30.486,0,0,0,2.8-7.043C105.71,70.776,105.543,71.088,105.36,71.4Z" transform="translate(3.084 36.525) rotate(-9)" opacity="0.1"/></g></g></svg>